<?xml version="1.0" encoding="utf-8"?>
<!-- Generator: Adobe Illustrator 21.0.0, SVG Export Plug-In . SVG Version: 6.00 Build 0)  -->
<svg version="1.1" id="图层_1" xmlns="http://www.w3.org/2000/svg" xmlns:xlink="http://www.w3.org/1999/xlink" x="0px" y="0px"
	 viewBox="0 0 116 52" style="enable-background:new 0 0 116 52;" xml:space="preserve">
<style type="text/css">
	.st0{fill:#D4E1EE;}
	.st1{fill:none;stroke:#495368;stroke-width:2;stroke-linecap:round;stroke-linejoin:round;stroke-miterlimit:10;}
</style>
<path class="st0" d="M48.1,16.5v18.4h17.4v-5.4l-5-13.1L48.1,16.5z"/>
<path class="st0" d="M76.8,21l-6.3,2.2l2.2,6.1l6.3-2.2L76.8,21z"/>
<path class="st1" d="M44.9,41.2c1.2,0,2.2-1,2.2-2.2s-1-2.2-2.2-2.2s-2.2,1-2.2,2.2S43.7,41.2,44.9,41.2z"/>
<path class="st1" d="M57.7,41.2c1.2,0,2.2-1,2.2-2.2s-1-2.2-2.2-2.2s-2.2,1-2.2,2.2S56.5,41.2,57.7,41.2z"/>
<path class="st1" d="M60.7,11.2l8.2,21l9.6-3.5"/>
<path class="st1" d="M39.4,33.4h23.7v-3.9l-6.3-17.7H44.9v21.6"/>
<path class="st1" d="M48.1,15v7.7h8.7L53.9,15H48.1z"/>
<path class="st1" d="M74.4,20.1l-6.3,2.2l2.2,6.1l6.3-2.2L74.4,20.1z"/>
</svg>
