<?xml version="1.0" encoding="utf-8"?>
<!-- Generator: Adobe Illustrator 21.0.0, SVG Export Plug-In . SVG Version: 6.00 Build 0)  -->
<svg version="1.1" id="图层_1" xmlns="http://www.w3.org/2000/svg" xmlns:xlink="http://www.w3.org/1999/xlink" x="0px" y="0px"
	 viewBox="0 0 844 539" style="enable-background:new 0 0 844 539;" xml:space="preserve">
<style type="text/css">
	.st0{fill:#F5F5F5;}
	.st1{fill:#FFFFFF;}
	.st2{fill:none;stroke:#979797;stroke-width:2;stroke-linejoin:round;stroke-dasharray:6,6;}
	.st3{fill:none;stroke:#979797;stroke-width:2;stroke-dasharray:6,6;}
	.st4{fill:#656565;}
	.st5{fill:#3F73B9;}
	.st6{fill:#C96C6C;}
	.st7{fill:none;stroke:#656565;}
</style>
<path class="st0" d="M737.6,37h81c13.8,0,25,11.2,25,25v451.8c0,13.8-11.2,25-25,25h-81c-13.8,0-25-11.2-25-25V62
	C712.6,48.2,723.8,37,737.6,37z"/>
<path class="st0" d="M25.4,37h282.8c13.8,0,25,11.2,25,25v451.8c0,13.8-11.2,25-25,25H25.4c-13.8,0-25-11.2-25-25V62
	C0.4,48.2,11.6,37,25.4,37z"/>
<path class="st0" d="M373.6,37h301c13.8,0,25,11.2,25,25v451.8c0,13.8-11.2,25-25,25h-301c-13.8,0-25-11.2-25-25V62
	C348.6,48.2,359.8,37,373.6,37z"/>
<path class="st1" d="M368,269.2h61c8.3,0,15,6.7,15,15v17c0,8.3-6.7,15-15,15h-61c-8.3,0-15-6.7-15-15v-17
	C353,275.9,359.7,269.2,368,269.2z"/>
<path class="st1" d="M368,202.2h61c8.3,0,15,6.7,15,15v17c0,8.3-6.7,15-15,15h-61c-8.3,0-15-6.7-15-15v-17
	C353,208.9,359.7,202.2,368,202.2z"/>
<path class="st1" d="M368,336.2h61c8.3,0,15,6.7,15,15v17c0,8.3-6.7,15-15,15h-61c-8.3,0-15-6.7-15-15v-17
	C353,342.9,359.7,336.2,368,336.2z"/>
<path class="st1" d="M368,403.2h61c8.3,0,15,6.7,15,15v17c0,8.3-6.7,15-15,15h-61c-8.3,0-15-6.7-15-15v-17
	C353,409.9,359.7,403.2,368,403.2z"/>
<path class="st1" d="M619.4,403.2h61c8.3,0,15,6.7,15,15v17c0,8.3-6.7,15-15,15h-61c-8.3,0-15-6.7-15-15v-17
	C604.4,409.9,611.1,403.2,619.4,403.2z"/>
<path class="st1" d="M754.2,470.2h61c8.3,0,15,6.7,15,15v16c0,8.3-6.7,15-15,15h-61c-8.3,0-15-6.7-15-15v-16
	C739.2,476.9,745.9,470.2,754.2,470.2z"/>
<path class="st1" d="M368,135.2h61c8.3,0,15,6.7,15,15v17c0,8.3-6.7,15-15,15h-61c-8.3,0-15-6.7-15-15v-17
	C353,141.9,359.7,135.2,368,135.2z"/>
<path class="st1" d="M493.7,201.9h61c8.3,0,15,6.7,15,15v16c0,8.3-6.7,15-15,15h-61c-8.3,0-15-6.7-15-15v-16
	C478.7,208.6,485.4,201.9,493.7,201.9z"/>
<path class="st1" d="M493.7,135.6h61c8.3,0,15,6.7,15,15v17c0,8.3-6.7,15-15,15h-61c-8.3,0-15-6.7-15-15v-17
	C478.7,142.3,485.4,135.6,493.7,135.6z"/>
<path class="st1" d="M619.4,136h61c8.3,0,15,6.7,15,15v17c0,8.3-6.7,15-15,15h-61c-8.3,0-15-6.7-15-15v-17
	C604.4,142.7,611.1,136,619.4,136z"/>
<path class="st1" d="M619.4,266.4h61c8.3,0,15,6.7,15,15v17c0,8.3-6.7,15-15,15h-61c-8.3,0-15-6.7-15-15v-17
	C604.4,273.1,611.1,266.4,619.4,266.4z"/>
<path class="st1" d="M753.9,266.4h61c8.3,0,15,6.7,15,15v17c0,8.3-6.7,15-15,15h-61c-8.3,0-15-6.7-15-15v-17
	C738.9,273.1,745.6,266.4,753.9,266.4z"/>
<path class="st1" d="M211.7,201.4h62c8.3,0,15,6.7,15,15v17c0,8.3-6.7,15-15,15h-62c-8.3,0-15-6.7-15-15v-17
	C196.7,208.1,203.4,201.4,211.7,201.4z"/>
<path class="st1" d="M211.7,133.8h62c8.3,0,15,6.7,15,15v17c0,8.3-6.7,15-15,15h-62c-8.3,0-15-6.7-15-15v-17
	C196.7,140.6,203.4,133.8,211.7,133.8z"/>
<path class="st1" d="M56,65.3h62c8.3,0,15,6.7,15,15v17c0,8.3-6.7,15-15,15H56c-8.3,0-15-6.7-15-15v-17C41,72,47.7,65.3,56,65.3z"/>
<path class="st2" d="M191.8,50.2h101.1c13.8,0,25,11.2,25,25v168.6c0,13.8-11.2,25-25,25H191.8c-13.8,0-25-11.2-25-25V75.2
	C166.8,61.4,178,50.2,191.8,50.2z"/>
<path class="st3" d="M703.3,395.2H345.1c-5.5,0-10-4.5-10-10v-49.6c0-5.5,4.5-10,10-10h230.4c5.5,0,10-4.5,10-10v-48.4
	c0-5.5,4.5-10,10-10h107.8c5.5,0,10,4.5,10,10v118C713.3,390.7,708.8,395.2,703.3,395.2z"/>
<path class="st4" d="M349.1,162.5l6.6-3.5l-6.6-3.5v3h-28.8h-29.6v1h29.6h28.8V162.5z"/>
<circle class="st5" cx="289.2" cy="159.1" r="3"/>
<path class="st4" d="M349.1,228.4l6.6-3.5l-6.6-3.5v3H321h-30.3v1H321h28.1V228.4z"/>
<circle class="st6" cx="289.2" cy="224.9" r="3"/>
<path class="st4" d="M600,297.3l6.6-3.5l-6.6-3.5v3h-75.9H446v1h78.1H600V297.3z"/>
<circle class="st5" cx="444.7" cy="293.9" r="3"/>
<path class="st4" d="M646.1,262.6l3.5,6.6l3.5-6.6h-3v-38.4v-38.9h-1v38.9v38.4H646.1z"/>
<circle class="st5" cx="649.5" cy="183.8" r="3"/>
<path class="st4" d="M474.2,162.5l6.6-3.5l-6.6-3.5v3h-14.9h-15.4v1h15.4h14.9V162.5z"/>
<circle class="st5" cx="444.7" cy="159.1" r="3"/>
<path class="st4" d="M394.6,198l3.5,6.6l3.5-6.6h-3v-8.2v-9.2h-1v9.2v8.2H394.6z"/>
<circle class="st5" cx="398.1" cy="181.4" r="3"/>
<path class="st4" d="M394.6,266.8l3.5,6.6l3.5-6.6h-3v-8.2v-9.2h-1v9.2v8.2H394.6z"/>
<circle class="st6" cx="398.1" cy="250.1" r="3"/>
<path class="st4" d="M394.6,332.7l3.5,6.6l3.5-6.6h-3v-8.2v-9.2h-1v9.2v8.2H394.6z"/>
<circle class="st6" cx="398.1" cy="316" r="3"/>
<path class="st4" d="M394.6,400l3.5,6.6l3.5-6.6h-3v-8.2v-9.2h-1v9.2v8.2H394.6z"/>
<circle class="st6" cx="398.1" cy="383.3" r="3"/>
<path class="st4" d="M600.1,162.5l6.6-3.5l-6.6-3.5v3h-14.9h-15.4v1h15.4h14.9V162.5z"/>
<circle class="st5" cx="570.6" cy="159.1" r="3"/>
<path class="st4" d="M735,297.3l6.6-3.5l-6.6-3.5v3h-19.2h-19.9v1h19.9H735V297.3z"/>
<circle class="st5" cx="696.7" cy="293.9" r="3"/>
<path class="st3" d="M448.9,428.4h150.8"/>
<path class="st3" d="M448.9,225.7h25.9"/>
<path class="st3" d="M649.5,400.6V359v-41.6"/>
<path class="st7" d="M86.5,134.5L86.5,134.5c0.1,13.6,11.2,24.5,24.8,24.5H195"/>
<path class="st7" d="M86.5,112.3v30.6V201c0,13.8,11.2,25,25,25h83.8"/>
<path class="st4" d="M199.2,159l-5.3,3v-6L199.2,159z"/>
<path class="st4" d="M199.2,226.1l-5.3,3V223L199.2,226.1z"/>
<circle class="st4" cx="86.6" cy="112.3" r="3"/>
<path class="st7" d="M397.4,451.1v10l0.1,7.5c0.1,13.7,11.3,24.8,25,24.8h316.4"/>
<path class="st4" d="M740.8,493.2l-5.3,3v-6.1L740.8,493.2z"/>
<circle class="st6" cx="397.3" cy="449.3" r="3"/>
<path class="st5" d="M279.2,97.3h-74c-4.7,0-8.5-3.8-8.5-8.5v0c0-4.7,3.8-8.5,8.5-8.5h74c4.7,0,8.5,3.8,8.5,8.5v0
	C287.7,93.5,283.9,97.3,279.2,97.3z"/>
<path class="st5" d="M561.3,367.4h-74c-4.7,0-8.5-3.8-8.5-8.5v0c0-4.7,3.8-8.5,8.5-8.5h74c4.7,0,8.5,3.8,8.5,8.5v0
	C569.8,363.6,566,367.4,561.3,367.4z"/>
</svg>
