<?xml version="1.0" encoding="UTF-8" standalone="no"?>
<svg width="18px" height="24px" viewBox="0 0 18 24" version="1.1" xmlns="http://www.w3.org/2000/svg" xmlns:xlink="http://www.w3.org/1999/xlink">
    <!-- Generator: sketchtool 41.2 (35397) - http://www.bohemiancoding.com/sketch -->
    <title>DEBC5213-BB30-464B-998E-7373F5FD3FFA</title>
    <desc>Created with sketchtool.</desc>
    <defs></defs>
    <g id="Icons" stroke="none" stroke-width="1" fill="none" fill-rule="evenodd">
        <g id="TMS-Icons" transform="translate(-89.000000, -93.000000)" fill="#333333">
            <g id="ic:-switch-group" transform="translate(89.000000, 90.000000)">
                <g id="Condense-Header">
                    <g>
                        <g id="Profile-Dropdown-selected-Copy">
                            <g id="ic:-switch-group">
                                <g id="ic_call_made">
                                    <polygon id="Shape" transform="translate(9.000000, 9.000000) rotate(45.000000) translate(-9.000000, -9.000000) " points="7.04347827 3.13043478 7.04347827 4.69565217 12.2008696 4.69565217 3.13043479 13.766087 4.23391305 14.8695652 13.3043478 5.79913043 13.3043478 10.9565217 14.8695652 10.9565217 14.8695652 3.13043478"></polygon>
                                </g>
                                <g id="ic_call_made-copy" transform="translate(9.000000, 21.000000) scale(-1, 1) translate(-9.000000, -21.000000) translate(0.000000, 12.000000)">
                                    <polygon id="Shape" transform="translate(9.000000, 9.000000) rotate(45.000000) translate(-9.000000, -9.000000) " points="7.04347827 3.13043478 7.04347827 4.69565217 12.2008696 4.69565217 3.13043479 13.766087 4.23391305 14.8695652 13.3043478 5.79913043 13.3043478 10.9565217 14.8695652 10.9565217 14.8695652 3.13043478"></polygon>
                                </g>
                            </g>
                        </g>
                    </g>
                </g>
            </g>
        </g>
    </g>
</svg>