<?xml version="1.0" encoding="utf-8"?>
<!-- Generator: Adobe Illustrator 21.0.0, SVG Export Plug-In . SVG Version: 6.00 Build 0)  -->
<svg version="1.1" id="图层_1" xmlns="http://www.w3.org/2000/svg" xmlns:xlink="http://www.w3.org/1999/xlink" x="0px" y="0px"
	 viewBox="0 0 116 52" style="enable-background:new 0 0 116 52;" xml:space="preserve">
<style type="text/css">
	.st0{fill:#D4E1EE;}
	.st1{fill:none;stroke:#495368;stroke-width:2;stroke-linecap:round;stroke-linejoin:round;stroke-miterlimit:10;}
	.st2{fill:#495368;stroke:#495368;stroke-width:0.2192;stroke-linejoin:round;}
</style>
<path class="st0" d="M39.9,43.1h9.4l2.3-2.3h9.7l16-15c0,0,1.4-2-0.3-3c-1.7-1-3,0.3-3,0.3l-8.7,8h-18L39.9,43.1z"/>
<path class="st1" d="M37.9,39.7c0,0,5.2-12,8.4-12c3.3,0,12.2,0,14.8,0s2.7,3.4,0.9,3.4s-7.9,0-7.9,0"/>
<path class="st1" d="M66,27.3c0,0,4.7-4.2,7.3-6.4c2.5-2.1,5.9-1.4,4,1.4C75.4,25,63.1,36.4,61.2,36.4s-11.2,0-11.2,0l-3.1,3.2"/>
<path class="st0" d="M56.4,23.3c3.3,0,6.1-2.6,6.1-5.9s-2.7-5.9-6.1-5.9c-3.3,0-6.1,2.6-6.1,5.9S53,23.3,56.4,23.3z"/>
<path class="st1" d="M55.3,21.8c3.3,0,6.1-2.6,6.1-5.9c0-3.2-2.7-5.9-6.1-5.9c-3.3,0-6.1,2.6-6.1,5.9S51.9,21.8,55.3,21.8z"/>
<path class="st2" d="M55.1,16.2c-0.2-0.1-0.4-0.1-0.7-0.2c-0.2-0.1-0.4-0.2-0.6-0.3s-0.3-0.3-0.4-0.5s-0.2-0.4-0.2-0.6
	c0-0.2,0.1-0.4,0.1-0.6c0.1-0.2,0.2-0.3,0.4-0.5c0.2-0.1,0.3-0.2,0.6-0.3c0.2-0.1,0.4-0.1,0.7-0.1v-0.6h0.5V13
	c0.3,0,0.6,0.1,0.9,0.2c0.3,0.1,0.6,0.2,0.8,0.4l-0.6,0.5c-0.1-0.2-0.3-0.3-0.5-0.3c-0.2-0.1-0.4-0.1-0.6-0.1v1.9
	c0.2,0.1,0.4,0.1,0.6,0.2c0.2,0.1,0.4,0.2,0.6,0.3s0.3,0.3,0.4,0.5s0.2,0.4,0.2,0.7c0,0.2,0,0.5-0.2,0.7c-0.1,0.2-0.2,0.4-0.4,0.5
	s-0.4,0.2-0.6,0.3s-0.5,0.1-0.7,0.1v0.6h-0.5v-0.6c-0.4,0-0.8-0.1-1.1-0.2s-0.6-0.3-0.9-0.6l0.6-0.5c0.1,0.1,0.2,0.2,0.3,0.3
	c0.1,0.1,0.2,0.1,0.3,0.2s0.2,0.1,0.3,0.1s0.2,0,0.3,0v-2C54.7,16.2,55.1,16.2,55.1,16.2z M55.5,18.2c0.1,0,0.3,0,0.4-0.1
	c0.1,0,0.2-0.1,0.3-0.2s0.2-0.2,0.2-0.3c0.1-0.1,0.1-0.3,0.1-0.4c0-0.3-0.1-0.5-0.3-0.6s-0.4-0.3-0.7-0.3V18.2z M55.1,13.7
	c-0.3,0-0.5,0.1-0.7,0.3c-0.2,0.1-0.3,0.4-0.3,0.6c0,0.3,0.1,0.5,0.3,0.6s0.4,0.2,0.7,0.3V13.7z"/>
</svg>
