<?xml version="1.0" encoding="utf-8"?>
<!-- Generator: Adobe Illustrator 21.0.0, SVG Export Plug-In . SVG Version: 6.00 Build 0)  -->
<svg version="1.1" id="图层_1" xmlns="http://www.w3.org/2000/svg" xmlns:xlink="http://www.w3.org/1999/xlink" x="0px" y="0px"
	 viewBox="0 0 116 52" style="enable-background:new 0 0 116 52;" xml:space="preserve">
<style type="text/css">
	.st0{fill:#D4E1EE;}
	.st1{fill:none;stroke:#495368;stroke-width:2;stroke-linecap:round;stroke-linejoin:round;stroke-miterlimit:10;}
	.st2{fill:#FFFFFF;}
	.st3{fill:none;stroke:#495368;stroke-width:2;stroke-miterlimit:10;}
	.st4{fill:none;stroke:#495368;stroke-linecap:round;stroke-linejoin:round;stroke-miterlimit:10;}
</style>
<path class="st0" d="M36.1,21.3v15.2l12.3,5.2l11.3-5.5l0.1-14.9l-11.3-5.1L36.1,21.3z"/>
<path class="st1" d="M34.3,18v14.5L48.4,38l13.2-5.5V18l-13.2-5.5L34.3,18z"/>
<path class="st1" d="M55,15.2l-14.1,5.5v5.5"/>
<path class="st1" d="M48.4,38.1V23.5L61.6,18l-13.2,5.5L34.3,18"/>
<path class="st2" d="M81.1,15.2H60.5V39h20.6V15.2z"/>
<path class="st0" d="M83.2,17.4H62.6v23.9h20.6V17.4z"/>
<path class="st3" d="M75.2,14.9V13h-3.3c0,0,0-1.6-1.7-1.6S68.5,13,68.5,13h-3.3v1.9H60V39h20.3V14.8L75.2,14.9L75.2,14.9z"/>
<path class="st3" d="M65.3,14.3v2.5h10v-2.6"/>
<path class="st4" d="M64.2,23.6h5.9"/>
<path class="st4" d="M64.2,28.1h11.3"/>
<path class="st4" d="M64.2,32.3h11.3"/>
</svg>
