<?xml version="1.0" encoding="utf-8"?>
<!-- Generator: Adobe Illustrator 21.0.0, SVG Export Plug-In . SVG Version: 6.00 Build 0)  -->
<svg version="1.1" id="图层_1" xmlns="http://www.w3.org/2000/svg" xmlns:xlink="http://www.w3.org/1999/xlink" x="0px" y="0px"
	 viewBox="0 0 1457 752" style="enable-background:new 0 0 1457 752;" xml:space="preserve">
<style type="text/css">
	.st0{fill:#3CD5DE;}
	.st1{fill:none;stroke:#3CD5DE;stroke-width:2;}
	.st2{fill:none;stroke:#3CD5DE;stroke-width:2;stroke-dasharray:5,5;}
	.st3{fill:none;stroke:#3CD5DE;stroke-width:2;stroke-dasharray:8,8;}
	.st4{fill:#FFFFFF;}
	.st5{fill:none;stroke:#FFFFFF;stroke-width:2;stroke-linejoin:round;stroke-dasharray:8,8;}
	.st6{fill:none;stroke:#FFFFFF;stroke-width:2;stroke-dasharray:8,8;}
</style>
<g>
	<circle class="st0" cx="1346.9" cy="708.4" r="4"/>
</g>
<g>
	<circle class="st0" cx="617.4" cy="706.9" r="4"/>
</g>
<path class="st1" d="M617.4,708.4v17.4c0,13.8,11.2,25,25,25h679.4c13.8,0,25-11.2,25-25v-17"/>
<path class="st1" d="M406.6,244.6h126"/>
<g>
	<circle class="st0" cx="406.6" cy="244.8" r="4"/>
</g>
<g>
	<circle class="st0" cx="535.6" cy="244.6" r="4"/>
</g>
<path class="st1" d="M1158.1,385.5H1264"/>
<g>
	<circle class="st0" cx="1158.1" cy="385.7" r="4"/>
</g>
<g>
	<circle class="st0" cx="1263.6" cy="385.7" r="4"/>
</g>
<path class="st1" d="M704.5,107H762"/>
<g>
	<circle class="st0" cx="703.5" cy="107.2" r="4"/>
</g>
<g>
	<circle class="st0" cx="762" cy="107" r="4"/>
</g>
<path class="st1" d="M704.5,382h284.3"/>
<g>
	<circle class="st0" cx="703.5" cy="382.2" r="4"/>
</g>
<g>
	<circle class="st0" cx="988.9" cy="382" r="4"/>
</g>
<path class="st2" d="M704.5,245.2H762"/>
<g>
	<circle class="st0" cx="703.5" cy="245.4" r="4"/>
</g>
<g>
	<circle class="st0" cx="762" cy="245.2" r="4"/>
</g>
<path class="st1" d="M932.1,107h57.5"/>
<g>
	<circle class="st0" cx="931.1" cy="107.2" r="4"/>
</g>
<g>
	<circle class="st0" cx="989.6" cy="107" r="4"/>
</g>
<path class="st1" d="M406.6,381.5h126"/>
<g>
	<circle class="st0" cx="406.6" cy="381.7" r="4"/>
</g>
<g>
	<circle class="st0" cx="535.6" cy="381.5" r="4"/>
</g>
<path class="st1" d="M1073.8,160.5v165"/>
<g>
	<circle class="st0" cx="1073.6" cy="159.9" r="4"/>
</g>
<g>
	<circle class="st0" cx="1073.8" cy="328.5" r="4"/>
</g>
<path class="st3" d="M1073.8,433.7v165"/>
<g>
	<circle class="st0" cx="1073.6" cy="433.1" r="4"/>
</g>
<g>
	<circle class="st0" cx="1073.8" cy="601.7" r="4"/>
</g>
<path class="st3" d="M988.1,654.9h-283"/>
<g>
	<circle class="st0" cx="988.1" cy="654.7" r="4"/>
</g>
<g>
	<circle class="st0" cx="704.4" cy="654.9" r="4"/>
</g>
<circle class="st4" cx="0" cy="0" r="0"/>
<path class="st5" d="M212.4,82.1c0-13.8,11.2-25,25-25h172c13.8,0,25,11.2,25,25v345.4c0,13.8-11.2,25-25,25h-172
	c-13.8,0-25-11.2-25-25V82.1z"/>
<path class="st6" d="M1181.8,585.2H505.5c-5.5,0-10-4.5-10-10l0-120.5c0-5.5,4.5-10,10-10H949c5.5,0,10-4.5,10-10V323.2
	c0-5.5,4.5-10,10-10h212.9c5.5,0,10,4.5,10,10v121.6v130.5C1191.8,580.7,1187.4,585.2,1181.8,585.2z"/>
</svg>
