<?xml version="1.0" encoding="UTF-8" standalone="no"?>
<svg width="26px" height="26px" viewBox="0 0 26 26" version="1.1" xmlns="http://www.w3.org/2000/svg" xmlns:xlink="http://www.w3.org/1999/xlink">
    <!-- Generator: sketchtool 42 (36781) - http://www.bohemiancoding.com/sketch -->
    <title>1687A14C-B78D-45CF-84F7-5A1A4B65819B</title>
    <desc>Created with sketchtool.</desc>
    <defs></defs>
    <g id="Help/Support" stroke="none" stroke-width="1" fill="none" fill-rule="evenodd" fill-opacity="0.7">
        <g id="Help/Support-white/light" transform="translate(-665.000000, -193.000000)" fill="#333333">
            <g id="Help-Modal" transform="translate(214.000000, 98.000000)">
                <g id="Group-9" transform="translate(451.000000, 94.000000)">
                    <g id="ic_call" transform="translate(0.000000, 1.000000)">
                        <path d="M5.22888889,11.2522222 C7.30888889,15.34 10.66,18.6766667 14.7477778,20.7711111 L17.9255556,17.5933333 C18.3155556,17.2033333 18.8933333,17.0733333 19.3988889,17.2466667 C21.0166667,17.7811111 22.7644444,18.07 24.5555556,18.07 C25.35,18.07 26,18.72 26,19.5144444 L26,24.5555556 C26,25.35 25.35,26 24.5555556,26 C10.9922222,26 0,15.0077778 0,1.44444444 C0,0.65 0.65,0 1.44444444,0 L6.5,0 C7.29444444,0 7.94444444,0.65 7.94444444,1.44444444 C7.94444444,3.25 8.23333333,4.98333333 8.76777778,6.60111111 C8.92666667,7.10666667 8.81111111,7.67 8.40666667,8.07444444 L5.22888889,11.2522222 L5.22888889,11.2522222 Z" id="Shape"></path>
                    </g>
                </g>
            </g>
        </g>
    </g>
</svg>