<?xml version="1.0" encoding="UTF-8" standalone="no"?>
<svg width="60px" height="66px" viewBox="0 0 60 66" version="1.1" xmlns="http://www.w3.org/2000/svg" xmlns:xlink="http://www.w3.org/1999/xlink">
    <!-- Generator: sketchtool 42 (36781) - http://www.bohemiancoding.com/sketch -->
    <title>6F2FF069-1A91-488B-9EA5-D57C56E0F5EC</title>
    <desc>Created with sketchtool.</desc>
    <defs></defs>
    <g id="Help/Support" stroke="none" stroke-width="1" fill="none" fill-rule="evenodd" fill-opacity="0.7">
        <g id="Help/Support-white/light" transform="translate(-818.000000, -637.000000)" fill="#333333">
            <g id="Help-Modal" transform="translate(214.000000, 98.000000)">
                <g id="ic_account_balance" transform="translate(551.000000, 502.000000)">
                    <g id="Group-12">
                        <path d="M59,65 L59,87 L68,87 L68,65 L59,65 L59,65 Z M78,65 L78,87 L87,87 L87,65 L78,65 L78,65 Z M53,103 L113,103 L113,94 L53,94 L53,103 L53,103 Z M97,65 L97,87 L106,87 L106,65 L97,65 L97,65 Z M83,37 L53,53 L53,59 L113,59 L113,53 L83,37 L83,37 Z" id="Shape"></path>
                    </g>
                </g>
            </g>
        </g>
    </g>
</svg>