<?xml version="1.0" encoding="UTF-8" standalone="no"?>
<svg width="33px" height="26px" viewBox="0 0 33 26" version="1.1" xmlns="http://www.w3.org/2000/svg" xmlns:xlink="http://www.w3.org/1999/xlink">
    <!-- Generator: sketchtool 42 (36781) - http://www.bohemiancoding.com/sketch -->
    <title>F8462F70-AAA7-42E6-9A54-1BE1975B7873</title>
    <desc>Created with sketchtool.</desc>
    <defs></defs>
    <g id="Help/Support" stroke="none" stroke-width="1" fill="none" fill-rule="evenodd" fill-opacity="0.7">
        <g id="Help/Support-white/light" transform="translate(-451.000000, -191.000000)" fill="#333333">
            <g id="Help-Modal" transform="translate(214.000000, 98.000000)">
                <g id="Group-8" transform="translate(237.000000, 93.000000)">
                    <g id="ic_email">
                        <path d="M29.25,0 L3.25,0 C1.4625,0 0.01625,1.4625 0.01625,3.25 L0,22.75 C0,24.5375 1.4625,26 3.25,26 L29.25,26 C31.0375,26 32.5,24.5375 32.5,22.75 L32.5,3.25 C32.5,1.4625 31.0375,0 29.25,0 L29.25,0 Z M29.25,6.5 L16.25,14.625 L3.25,6.5 L3.25,3.25 L16.25,11.375 L29.25,3.25 L29.25,6.5 L29.25,6.5 Z" id="Shape"></path>
                    </g>
                </g>
            </g>
        </g>
    </g>
</svg>