<?xml version="1.0" encoding="UTF-8" standalone="no"?>
<svg width="92px" height="88px" viewBox="0 0 92 88" version="1.1" xmlns="http://www.w3.org/2000/svg" xmlns:xlink="http://www.w3.org/1999/xlink">
    <!-- Generator: sketchtool 42 (36781) - http://www.bohemiancoding.com/sketch -->
    <title>2261108F-C1BC-4DF7-B09B-83E833D90BB3</title>
    <desc>Created with sketchtool.</desc>
    <defs></defs>
    <g id="Help/Support" stroke="none" stroke-width="1" fill="none" fill-rule="evenodd" opacity="0.799999952">
        <g id="Help/Support-white/light" transform="translate(-547.000000, -616.000000)">
            <g id="Help-Modal" transform="translate(214.000000, 98.000000)">
                <g id="Group-11" transform="translate(291.000000, 502.000000)">
                    <g id="ic_Drayage" transform="translate(43.000000, 17.000000)">
                        <rect id="Rectangle-5-Copy" fill="#FFFFFF" x="53.1917808" y="80.9032178" width="23.0136986" height="4.9388875"></rect>
                        <rect id="Rectangle-4" fill="#333333" x="77.6712329" y="10.9324021" width="3.28767123" height="26.4599991" rx="1"></rect>
                        <rect id="Rectangle-4-Copy" fill="#333333" x="83.4246575" y="10.9324021" width="3.28767123" height="26.4599991" rx="1"></rect>
                        <path d="M71.1888138,12.664505 C71.7426709,12.6914818 72.1916608,13.1604588 72.1916608,13.7039992 L72.1916608,34.1056539 C72.1916608,34.6527739 71.7354496,35.1210733 71.201343,35.1463782 C71.201343,35.1463782 58.5842657,35.9266848 55.9330992,33.7430117 C53.2819327,31.5593385 53.4675464,16.959717 55.9330992,14.418931 C58.398652,11.8781451 71.1888138,12.664505 71.1888138,12.664505 Z" id="Path-2" fill="#333333"></path>
                        <path d="M61.6438356,13.9283984 L63.5296606,1.6861398 C63.7581845,0.20262575 64.1996751,0.193103736 64.5141006,1.65715684 L67.0745933,13.5795252" id="Path-3" stroke="#333333" stroke-width="2"></path>
                        <path d="M64.3300781,1.04443359 L89.0567635,23.7277835 C89.4624423,24.0999383 89.7913099,24.8469642 89.7913099,25.3965293 L89.7913099,29.5990283 C89.7913099,30.1484964 89.3505383,30.5939283 88.7829114,30.5939283 L1.0083985,30.5939283 C0.451475387,30.5939283 0.274331065,30.2491291 0.625663245,29.8075492 L4.47680893,24.9671491 C4.8223532,24.5328439 5.55812123,24.1819583 6.09765742,24.1833654 L89.7913099,24.4016293" id="Path-4" stroke="#333333" stroke-width="2"></path>
                        <path d="M25.8356164,24.2386476 L63.8994141,1.30810547" id="Path-5" stroke="#333333" stroke-width="2"></path>
                        <polyline id="Path-6" stroke="#333333" stroke-width="0.5" points="7.16438356 24.1060115 11.5079463 29.9480305 15.3787457 24.1060115"></polyline>
                        <polyline id="Path-6-Copy" stroke="#333333" stroke-width="0.5" points="15.3835616 24.1060115 19.7271244 29.9480305 23.5979238 24.1060115"></polyline>
                        <polyline id="Path-6-Copy-2" stroke="#333333" stroke-width="0.5" points="23.6027397 24.1060115 27.9463024 29.9480305 31.8171019 24.1060115"></polyline>
                        <polyline id="Path-6-Copy-3" stroke="#333333" stroke-width="0.5" points="31.8219178 24.1060115 36.1654805 29.9480305 40.03628 24.1060115"></polyline>
                        <polyline id="Path-6-Copy-4" stroke="#333333" stroke-width="0.5" points="40.0410959 24.1060115 44.3846586 29.9480305 48.255458 24.1060115"></polyline>
                        <polyline id="Path-6-Copy-6" stroke="#333333" stroke-width="0.5" transform="translate(65.560480, 35.216097) rotate(90.000000) translate(-65.560480, -35.216097) " points="61.4532989 32.2950873 65.7968616 38.1371063 69.6676611 32.2950873"></polyline>
                        <polyline id="Path-6-Copy-7" stroke="#333333" stroke-width="0.5" transform="translate(65.560480, 43.447576) rotate(90.000000) translate(-65.560480, -43.447576) " points="61.4532989 40.5265664 65.7968616 46.3685855 69.6676611 40.5265664"></polyline>
                        <polyline id="Path-6-Copy-8" stroke="#333333" stroke-width="0.5" transform="translate(65.560480, 51.267481) rotate(90.000000) translate(-65.560480, -51.267481) " points="61.4532989 48.3464717 65.7968616 54.1884907 69.6676611 48.3464717"></polyline>
                        <polyline id="Path-6-Copy-9" stroke="#333333" stroke-width="0.5" transform="translate(65.560480, 59.087386) rotate(90.000000) translate(-65.560480, -59.087386) " points="61.4532989 56.1663769 65.7968616 62.0083959 69.6676611 56.1663769"></polyline>
                        <polyline id="Path-6-Copy-10" stroke="#333333" stroke-width="0.5" transform="translate(65.149521, 67.318866) rotate(90.000000) translate(-65.149521, -67.318866) " points="61.04234 64.397856 65.3859027 70.2398751 69.2567022 64.397856"></polyline>
                        <polyline id="Path-6-Copy-11" stroke="#333333" stroke-width="0.5" transform="translate(65.560480, 75.550345) rotate(90.000000) translate(-65.560480, -75.550345) " points="61.4532989 72.6293352 65.7968616 78.4713542 69.6676611 72.6293352"></polyline>
                        <polyline id="Path-6-Copy-5" stroke="#333333" stroke-width="0.5" points="48.260274 24.1060115 52.6038367 29.9480305 56.4746361 24.1060115"></polyline>
                        <path d="M61.6332941,34.2880457 L61.6332941,80.6086048 L54.6035778,80.6086048 C54.0508302,80.6086048 53.6027397,81.0502181 53.6027397,81.6072919 L53.6027397,84.7895598 C53.6027397,85.3411195 54.0458401,85.788247 54.6004388,85.788247 L75.8242188,85.788247 C76.3752327,85.788247 76.8219178,85.3466336 76.8219178,84.7895598 L76.8219178,81.6072919 C76.8219178,81.0557322 76.368833,80.6086048 75.824781,80.6086048 L68.8210616,80.6086048 L68.8210616,33.9837865" id="Path-7" stroke="#333333" stroke-width="2"></path>
                        <path d="M9.73688998,31.3382984 L9.9552119,54.3378068" id="Path-8" stroke="#333333"></path>
                        <ellipse id="Oval" stroke="#333333" fill="#3D3D3D" cx="9.48630137" cy="55.2415814" rx="1.5" ry="1.50224495"></ellipse>
                        <path d="M9.20573363,56.7262583 C9.20573363,56.7262583 6.7333583,60.357675 9.50311697,61.7151858 C12.2728756,63.0726965 13.2338533,60.151687 13.2338533,60.151687" id="Path-9" stroke="#333333" stroke-linecap="round"></path>
                        <rect id="Rectangle-5" fill="#3D3D3D" x="53.6027397" y="80.0800698" width="23.0136986" height="4.9388875"></rect>
                    </g>
                </g>
            </g>
        </g>
    </g>
</svg>