<?xml version="1.0" encoding="utf-8"?>
<!-- Generator: Adobe Illustrator 21.0.0, SVG Export Plug-In . SVG Version: 6.00 Build 0)  -->
<svg version="1.1" id="图层_1" xmlns="http://www.w3.org/2000/svg" xmlns:xlink="http://www.w3.org/1999/xlink" x="0px" y="0px"
	 viewBox="0 0 116 52" style="enable-background:new 0 0 116 52;" xml:space="preserve">
<style type="text/css">
	.st0{fill:#D4E1EE;}
	.st1{fill:none;stroke:#495368;stroke-width:2;stroke-linecap:round;stroke-linejoin:round;stroke-miterlimit:10;}
	.st2{fill:none;stroke:#495368;stroke-width:2;stroke-miterlimit:10;}
	.st3{fill:none;stroke:#495368;stroke-linecap:round;stroke-linejoin:round;stroke-miterlimit:10;}
</style>
<path class="st0" d="M63.6,15.5H33.9v18.2h29.7V15.5z"/>
<path class="st0" d="M72.3,19.6v15.3h10.8V22.8l-2.5-3.2H72.3z"/>
<path class="st1" d="M67,11.5H37.3v18.2H67V11.5z"/>
<path class="st2" d="M53.2,41.5c1.3,0,2.4-1,2.4-2.3s-1.1-2.3-2.4-2.3c-1.3,0-2.4,1-2.4,2.3S51.9,41.5,53.2,41.5z"/>
<path class="st2" d="M74.9,41.5c1.3,0,2.4-1,2.4-2.3s-1.1-2.3-2.4-2.3c-1.3,0-2.4,1-2.4,2.3S73.6,41.5,74.9,41.5z"/>
<path class="st1" d="M40.9,33.2h28.9V16.4h6.5l4.3,6.3v10.5H69.8"/>
<path class="st3" d="M72.8,19.2v3.2h3.7l-1.9-3.2H72.8z"/>
</svg>
