<?xml version="1.0" encoding="UTF-8" standalone="no"?>
<svg width="20px" height="10px" viewBox="0 0 20 10" version="1.1" xmlns="http://www.w3.org/2000/svg" xmlns:xlink="http://www.w3.org/1999/xlink">
    <!-- Generator: sketchtool 41.2 (35397) - http://www.bohemiancoding.com/sketch -->
    <title>C8BB93AD-9ED0-4656-B312-E5B08F8AE2C6</title>
    <desc>Created with sketchtool.</desc>
    <defs></defs>
    <g id="Icons" stroke="none" stroke-width="1" fill="none" fill-rule="evenodd">
        <g id="TMS-Icons" transform="translate(-106.000000, -344.000000)" fill="#333333">
            <g id="ic_tracking-search" transform="translate(106.000000, 344.000000)">
                <g id="Condense-Header">
                    <g>
                        <g id="SEARCH---light">
                            <g id="Search-Dropdown">
                                <g id="Group-21">
                                    <path d="M3.548,9 L2.384,9 L2.384,1.92 L0.776,3.264 L0.092,2.46 L2.504,0.504 L3.548,0.504 L3.548,9 Z M12.404,9 L6.86,9 L6.86,7.884 L10.244,4.524 C10.5000013,4.2599987 10.7199991,3.9840014 10.904,3.696 C11.0880009,3.4079986 11.18,3.0840018 11.18,2.724 C11.18,2.4999989 11.1400004,2.2980009 11.06,2.118 C10.9799996,1.9379991 10.8720007,1.7840006 10.736,1.656 C10.5999993,1.5279994 10.4400009,1.4300003 10.256,1.362 C10.0719991,1.2939997 9.876001,1.26 9.668,1.26 C9.2359978,1.26 8.8800014,1.3979986 8.6,1.674 C8.3199986,1.9500014 8.1440004,2.3039978 8.072,2.736 L6.932,2.544 C6.9800002,2.2239984 7.0819992,1.9260014 7.238,1.65 C7.3940008,1.3739986 7.5919988,1.134001 7.832,0.93 C8.0720012,0.725999 8.3499984,0.5680006 8.666,0.456 C8.9820016,0.3439994 9.3199982,0.288 9.68,0.288 C10.0320018,0.288 10.3699984,0.3399995 10.694,0.444 C11.0180016,0.5480005 11.3039988,0.699999 11.552,0.9 C11.8000012,1.100001 11.9979993,1.3519985 12.146,1.656 C12.2940007,1.9600015 12.368,2.307998 12.368,2.7 C12.368,2.9720014 12.3320004,3.2239988 12.26,3.456 C12.1879996,3.6880012 12.0900006,3.907999 11.966,4.116 C11.8419994,4.324001 11.6960008,4.5219991 11.528,4.71 C11.3599992,4.8980009 11.1840009,5.0839991 11,5.268 L8.24,7.956 L12.404,7.956 L12.404,9 Z M15.836,4.08 L16.208,4.08 C16.4480012,4.08 16.6819989,4.0580002 16.91,4.014 C17.1380011,3.9699998 17.3399991,3.8940005 17.516,3.786 C17.6920009,3.6779995 17.8339995,3.5320009 17.942,3.348 C18.0500005,3.1639991 18.104,2.9360014 18.104,2.664 C18.104,2.4479989 18.0640004,2.2540009 17.984,2.082 C17.9039996,1.9099991 17.7940007,1.7640006 17.654,1.644 C17.5139993,1.5239994 17.3540009,1.4300003 17.174,1.362 C16.9939991,1.2939997 16.804001,1.26 16.604,1.26 C16.2439982,1.26 15.9380013,1.3519991 15.686,1.536 C15.4339987,1.7200009 15.2440006,1.9759984 15.116,2.304 L14.06,1.932 C14.268001,1.4199974 14.6019977,1.0180015 15.062,0.726 C15.5220023,0.4339985 16.051997,0.288 16.652,0.288 C17.0040018,0.288 17.3379984,0.3379995 17.654,0.438 C17.9700016,0.5380005 18.2479988,0.683999 18.488,0.876 C18.7280012,1.068001 18.9179993,1.3079986 19.058,1.596 C19.1980007,1.8840014 19.268,2.2159981 19.268,2.592 C19.268,2.8320012 19.2300004,3.055999 19.154,3.264 C19.0779996,3.472001 18.9740007,3.6599992 18.842,3.828 C18.7099993,3.9960008 18.5520009,4.1399994 18.368,4.26 C18.1839991,4.3800006 17.9840011,4.4679997 17.768,4.524 L17.768,4.548 C18.0160012,4.5960002 18.2459989,4.6799994 18.458,4.8 C18.6700011,4.9200006 18.8519992,5.0699991 19.004,5.25 C19.1560008,5.4300009 19.2759996,5.6359988 19.364,5.868 C19.4520004,6.1000012 19.496,6.3519986 19.496,6.624 C19.496,7.0480021 19.4160008,7.4219984 19.256,7.746 C19.0959992,8.0700016 18.8840013,8.3399989 18.62,8.556 C18.3559987,8.7720011 18.0520017,8.9359994 17.708,9.048 C17.3639983,9.1600006 17.0120018,9.216 16.652,9.216 C15.9799966,9.216 15.3880026,9.0640015 14.876,8.76 C14.3639974,8.4559985 13.9920012,7.9840032 13.76,7.344 L14.84,6.984 C14.9680006,7.3520018 15.1859985,7.6519988 15.494,7.884 C15.8020015,8.1160012 16.1799978,8.232 16.628,8.232 C16.8440011,8.232 17.053999,8.1980003 17.258,8.13 C17.462001,8.0619997 17.6439992,7.9600007 17.804,7.824 C17.9640008,7.6879993 18.0919995,7.520001 18.188,7.32 C18.2840005,7.119999 18.332,6.8840014 18.332,6.612 C18.332,6.3159985 18.2680006,6.068001 18.14,5.868 C18.0119994,5.667999 17.846001,5.5060006 17.642,5.382 C17.437999,5.2579994 17.2080013,5.1700003 16.952,5.118 C16.6959987,5.0659997 16.4440012,5.04 16.196,5.04 L15.836,5.04 L15.836,4.08 Z" id="ic_tracking-search"></path>
                                </g>
                            </g>
                        </g>
                    </g>
                </g>
            </g>
        </g>
    </g>
</svg>