<?xml version="1.0" encoding="utf-8"?>
<!-- Generator: Adobe Illustrator 21.0.0, SVG Export Plug-In . SVG Version: 6.00 Build 0)  -->
<svg version="1.1" id="图层_1" xmlns="http://www.w3.org/2000/svg" xmlns:xlink="http://www.w3.org/1999/xlink" x="0px" y="0px"
	 viewBox="0 0 116 52" style="enable-background:new 0 0 116 52;" xml:space="preserve">
<style type="text/css">
	.st0{fill:#D4E1EE;}
	.st1{fill:none;stroke:#4C5263;stroke-width:2;stroke-linecap:round;stroke-linejoin:round;stroke-miterlimit:10;}
	.st2{fill:#4C5263;}
	.st3{fill:#495368;}
</style>
<path class="st0" d="M57.7,13.5l-13.1,10v17.9h27.8V23.5L57.7,13.5z"/>
<path class="st1" d="M68.8,24.4v14.8H42.3V24.4"/>
<path class="st1" d="M36.8,22.8L56,9.7l19.2,13.1"/>
<path class="st0" d="M57.7,33.4h4.6c0.3,0,0.4,0.2,0.4,0.4V38c0,0.3-0.3,0.4-0.4,0.4h-4.6c-0.3,0-0.4-0.2-0.4-0.4v-4.2
	C57.3,33.7,57.5,33.4,57.7,33.4z"/>
<path class="st2" d="M56.9,38v-4.7H59v1.3c0,0.2,0.2,0.4,0.4,0.4h0.4c0.2,0,0.4-0.2,0.4-0.4v-1.3h2.1V38H56.9z M56.8,32.1
	c-0.5,0-1.1,0.4-1.1,1V38c0,0.6,0.5,1,1.1,1h5.4c0.4,0,1.1-0.4,1.1-1v-4.9c0-0.6-0.5-1-1.1-1H56.8z"/>
<path class="st0" d="M49.9,33.4h4.6c0.3,0,0.4,0.2,0.4,0.4V38c0,0.3-0.2,0.4-0.4,0.4h-4.6c-0.3,0-0.4-0.2-0.4-0.4v-4.2
	C49.4,33.7,49.7,33.4,49.9,33.4z"/>
<path class="st2" d="M49.1,38v-4.7h2.1v1.3c0,0.2,0.2,0.4,0.4,0.4h0.4c0.2,0,0.4-0.2,0.4-0.4v-1.3h2.1V38H49.1z M49,32.1
	c-0.5,0-1.1,0.4-1.1,1V38c0,0.6,0.5,1,1.1,1h5.4c0.4,0,1.1-0.4,1.1-1v-4.9c0-0.6-0.5-1-1.1-1H49z"/>
<path class="st0" d="M54,26.3h4.6c0.3,0,0.4,0.2,0.4,0.4V31c0,0.3-0.3,0.4-0.4,0.4H54c-0.3,0-0.4-0.2-0.4-0.4v-4.2
	C53.4,26.5,53.7,26.3,54,26.3z"/>
<path class="st2" d="M53.1,30.9v-4.7h2.1v1.3c0,0.2,0.2,0.4,0.4,0.4h0.4c0.2,0,0.4-0.2,0.4-0.4v-1.3h2.1v4.7H53.1z M53,25.1
	c-0.5,0-1.1,0.4-1.1,1V31c0,0.6,0.5,1,1.1,1h5.4c0.5,0,1.1-0.4,1.1-1v-4.9c0-0.6-0.5-1-1.1-1H53z"/>
<path class="st3" d="M45.3,20h20.5c0.5,0,0.9,0.4,0.9,0.9l0,0c0,0.5-0.4,0.9-0.9,0.9H45.3c-0.5,0-0.9-0.4-0.9-0.9l0,0
	C44.4,20.4,44.8,20,45.3,20z"/>
<path class="st3" d="M53.8,16.3h4c0.2,0,0.4,0.2,0.4,0.4l0,0c0,0.2-0.2,0.4-0.4,0.4h-4c-0.2,0-0.4-0.2-0.4-0.4l0,0
	C53.4,16.5,53.6,16.3,53.8,16.3z"/>
<path class="st3" d="M53.8,17.6h4c0.2,0,0.4,0.2,0.4,0.4l0,0c0,0.2-0.2,0.4-0.4,0.4h-4c-0.2,0-0.4-0.2-0.4-0.4l0,0
	C53.4,17.7,53.6,17.6,53.8,17.6z"/>
<path class="st3" d="M53.8,15.1h4c0.2,0,0.4,0.2,0.4,0.4l0,0c0,0.2-0.2,0.4-0.4,0.4h-4c-0.2,0-0.4-0.2-0.4-0.4l0,0
	C53.4,15.2,53.6,15.1,53.8,15.1z"/>
</svg>
