<?xml version="1.0" encoding="utf-8"?>
<!-- Generator: Adobe Illustrator 21.0.0, SVG Export Plug-In . SVG Version: 6.00 Build 0)  -->
<svg version="1.1" id="图层_1" xmlns="http://www.w3.org/2000/svg" xmlns:xlink="http://www.w3.org/1999/xlink" x="0px" y="0px"
	 viewBox="0 0 116 52" style="enable-background:new 0 0 116 52;" xml:space="preserve">
<style type="text/css">
	.st0{fill:none;stroke:#4C5263;stroke-width:2;stroke-linecap:round;stroke-linejoin:round;stroke-miterlimit:10;}
	.st1{fill:#D4E1EE;}
	.st2{fill:none;stroke:#4C5263;stroke-width:2;stroke-miterlimit:10;}
	.st3{fill:#4C5263;}
</style>
<path class="st0" d="M78.6,11.5h-5.7v22.7H47.3"/>
<path class="st1" d="M43.2,31.6h24.5V18.4H36.8L43.2,31.6z"/>
<path class="st2" d="M60.5,14.8L41.3,15l6,14h25.6V15"/>
<path class="st3" d="M69.3,39.6c0,0.5-0.4,0.9-1,0.9v2c1.6,0,3-1.3,3-2.9H69.3z M68.3,40.5c-0.6,0-1-0.4-1-0.9h-2
	c0,1.6,1.4,2.9,3,2.9V40.5z M67.4,39.6c0-0.5,0.4-0.9,1-0.9v-2c-1.6,0-3,1.3-3,2.9H67.4z M68.3,38.7c0.6,0,1,0.4,1,0.9h2
	c0-1.6-1.4-2.9-3-2.9V38.7z M53.2,39.6c0,0.5-0.4,0.9-1,0.9v2c1.6,0,3-1.3,3-2.9H53.2z M52.2,40.5c-0.6,0-1-0.4-1-0.9h-2
	c0,1.6,1.4,2.9,3,2.9V40.5z M51.3,39.6c0-0.5,0.4-0.9,1-0.9v-2c-1.6,0-3,1.3-3,2.9H51.3z M52.2,38.7c0.6,0,1,0.4,1,0.9h2
	c0-1.6-1.4-2.9-3-2.9V38.7z"/>
</svg>
