<?xml version="1.0" encoding="utf-8"?>
<!-- Generator: Adobe Illustrator 21.0.0, SVG Export Plug-In . SVG Version: 6.00 Build 0)  -->
<svg version="1.1" id="图层_1" xmlns="http://www.w3.org/2000/svg" xmlns:xlink="http://www.w3.org/1999/xlink" x="0px" y="0px"
	 viewBox="0 0 126 67" style="enable-background:new 0 0 126 67;" xml:space="preserve">
<style type="text/css">
	.st0{fill:#FFFFFF;}
</style>
<path class="st0" d="M64.7,1.9c2.8,0,5.1,2.3,5.1,5.1c0.1,3.3-1.8,7-3.6,10.7c-0.5,0.9-0.9,2-1.4,2.9c-0.4-0.9-0.9-2-1.4-2.9
	c-1.9-3.6-3.7-7.3-3.6-10.7C59.7,4.1,61.9,1.9,64.7,1.9z M64.7,0.8c-3.3,0-6.1,2.7-6.1,6.1c-0.1,5.2,4,11.1,6.1,16.2
	c2.1-5.2,6.2-11.1,6.1-16.2C70.8,3.5,68.1,0.8,64.7,0.8z"/>
<path class="st0" d="M64.7,4.9c1.1,0,2,0.9,2,2c0,1-0.9,2-2,2c-1.1,0-2-0.9-2-2C62.7,5.8,63.6,4.9,64.7,4.9z M64.7,3.8
	c-1.7,0-3,1.3-3,3c0,1.7,1.3,3,3,3s3-1.3,3-3C67.7,5.2,66.4,3.8,64.7,3.8z"/>
</svg>
