<?xml version="1.0" encoding="utf-8"?>
<!-- Generator: Adobe Illustrator 21.0.0, SVG Export Plug-In . SVG Version: 6.00 Build 0)  -->
<svg version="1.1" id="图层_1" xmlns="http://www.w3.org/2000/svg" xmlns:xlink="http://www.w3.org/1999/xlink" x="0px" y="0px"
	 viewBox="0 0 126 67" style="enable-background:new 0 0 126 67;" xml:space="preserve">
<style type="text/css">
	.st0{opacity:0.25;fill:#D4E1EE;enable-background:new    ;}
	.st1{fill:#FFFFFF;}
</style>
<path class="st0" d="M42.8,65.3c23.7,0,42.8-8.4,42.8-18.7S66.5,27.8,42.8,27.8C19.2,27.8,0,36.2,0,46.6S19.2,65.3,42.8,65.3z"/>
<path class="st1" d="M10.5,30.2c4.9,0,8.8,3.9,8.8,8.8c0.1,5.5-2.9,11.6-5.9,17.6c-1,2-2,4-2.9,6c-0.9-2-1.9-4-2.9-6
	c-3-5.9-6-12.1-5.9-17.6C1.7,34.1,5.6,30.2,10.5,30.2z M10.5,29.2c-5.4,0-9.8,4.4-9.8,9.8c-0.2,8.4,6.5,17.8,9.8,26.2
	c3.3-8.4,10-17.8,9.8-26.2C20.3,33.6,15.8,29.2,10.5,29.2z"/>
<path class="st1" d="M10.5,35.2c2.2,0,3.9,1.8,3.9,3.9c0,2.2-1.8,3.9-3.9,3.9c-2.2,0-3.9-1.8-3.9-3.9C6.5,36.9,8.3,35.2,10.5,35.2z
	 M10.5,34.1c-2.7,0-5,2.2-5,5c0,2.8,2.2,5,5,5c2.8,0,5-2.2,5-5C15.4,36.3,13.1,34.1,10.5,34.1z"/>
<path class="st1" d="M57.8,23.2l0.2,1c0.5-0.1,0.9-0.6,0.8-1.1c-0.1-0.5-0.6-0.9-1.1-0.8L57.8,23.2l-0.2-1l0,0l0,0l0,0l0,0l0,0
	l-0.1,0l-0.3,0c-0.2,0-0.6,0.1-1,0.2c-0.9,0.1-2.1,0.3-3.7,0.6c-0.5,0.1-0.9,0.6-0.8,1.2s0.6,0.9,1.2,0.8c1.5-0.3,2.8-0.5,3.7-0.6
	c0.4-0.1,0.8-0.1,1-0.2l0.3,0l0.1,0l0,0l0,0l0,0l0,0l0,0L57.8,23.2z M45.5,25.7c0.1,0.5-0.2,1.1-0.7,1.2c-1.1,0.3-2.2,0.6-3.2,0.8
	c-0.7,0.2-1.4,0.3-2,0.5c-0.5,0.1-1.1-0.2-1.2-0.7c-0.1-0.5,0.2-1.1,0.7-1.2c0.7-0.2,1.3-0.3,2-0.5l0,0l0,0c1-0.3,2.1-0.5,3.2-0.8
	C44.9,24.8,45.4,25.1,45.5,25.7z M29.9,29.9c0.2,0.5,0,1.1-0.5,1.3c-1.1,0.5-1.8,1-2.2,1.4c-0.4,0.4-0.6,0.9-0.6,1.5
	c0,0.2,0.1,0.5,0.5,1c0.4,0.4,1.1,0.9,2,1.4c0.5,0.3,0.7,0.9,0.4,1.4c-0.3,0.5-0.9,0.7-1.4,0.4c-1-0.5-1.8-1.1-2.4-1.8
	c-0.6-0.6-1.1-1.4-1.1-2.4c0-1.1,0.4-2,1.1-2.8c0.7-0.8,1.7-1.4,2.9-1.9C29,29.2,29.6,29.4,29.9,29.9z M36.1,40.5
	c0.2-0.5,0.7-0.8,1.3-0.6c1.1,0.4,2.2,0.8,3.4,1.1h0c1.8,0.6,3.6,1.2,5.3,1.8c0.5,0.2,0.8,0.8,0.6,1.3c-0.2,0.5-0.8,0.8-1.3,0.6
	c-1.7-0.6-3.5-1.2-5.3-1.8l0,0l0,0c-1.1-0.4-2.3-0.8-3.4-1.1C36.2,41.6,35.9,41,36.1,40.5z M53.3,47c0.3-0.5,0.9-0.6,1.4-0.3
	c0.9,0.6,1.7,1.2,2.2,1.9c0.6,0.7,0.9,1.5,0.9,2.5l0,0c0,0.7-0.4,1.4-0.8,2c-0.5,0.6-1.1,1.1-1.8,1.6c-0.5,0.3-1.1,0.2-1.4-0.3
	c-0.3-0.5-0.2-1.1,0.3-1.4c0.6-0.4,1.1-0.8,1.4-1.2c0.3-0.4,0.4-0.6,0.4-0.8c0-0.3-0.1-0.7-0.5-1.1c-0.4-0.5-0.9-1-1.7-1.5
	C53.1,48,53,47.4,53.3,47z M48.8,56.7c0.2,0.5-0.1,1.1-0.6,1.3c-2.2,0.8-4.6,1.6-7.2,2.3c-0.5,0.2-1.1-0.2-1.2-0.7
	c-0.2-0.5,0.2-1.1,0.7-1.2c2.5-0.7,4.9-1.5,7-2.3C48,55.9,48.6,56.2,48.8,56.7z M34.5,61c0.1,0.5-0.2,1.1-0.7,1.2
	c-1.2,0.3-2.5,0.6-3.6,0.9c-0.5,0.1-1.1-0.2-1.2-0.8c-0.1-0.5,0.2-1.1,0.8-1.2c1.2-0.3,2.4-0.6,3.6-0.9C33.8,60.1,34.4,60.4,34.5,61
	z M21.4,63.9c0.1,0.5-0.2,1.1-0.8,1.2c-1.6,0.3-2.8,0.5-3.7,0.7c-0.4,0.1-0.8,0.1-1,0.2c-0.1,0-0.2,0-0.3,0l-0.1,0l0,0l0,0l0,0h0h0
	l-0.2-1l0.2,1c-0.5,0.1-1.1-0.3-1.1-0.8c-0.1-0.5,0.3-1.1,0.8-1.1l0,0l0,0h0l0,0l0,0l0,0l0.1,0c0.1,0,0.1,0,0.3,0
	c0.2,0,0.6-0.1,1-0.2c0.9-0.2,2.1-0.4,3.7-0.7C20.7,63.1,21.3,63.4,21.4,63.9z"/>
<path class="st1" d="M60.9,31.9h1.8v8.3h4.2v1.6h-6V31.9z M67.3,38.4c0-0.5,0.1-1,0.3-1.4c0.2-0.4,0.5-0.8,0.8-1.1
	c0.3-0.3,0.7-0.5,1.2-0.7c0.4-0.2,0.9-0.3,1.4-0.3c0.5,0,1,0.1,1.4,0.3c0.4,0.2,0.8,0.4,1.2,0.7c0.3,0.3,0.6,0.7,0.8,1.1
	c0.2,0.4,0.3,0.9,0.3,1.4c0,0.5-0.1,1-0.3,1.5c-0.2,0.4-0.4,0.8-0.8,1.1c-0.3,0.3-0.7,0.6-1.2,0.7C72,41.9,71.5,42,71,42
	c-0.5,0-1-0.1-1.4-0.3c-0.4-0.2-0.8-0.4-1.2-0.7c-0.3-0.3-0.6-0.7-0.8-1.1C67.4,39.5,67.3,39,67.3,38.4z M69,38.4
	c0,0.3,0,0.5,0.1,0.8c0.1,0.3,0.2,0.5,0.4,0.7c0.2,0.2,0.4,0.4,0.6,0.5c0.2,0.1,0.5,0.2,0.9,0.2c0.3,0,0.6-0.1,0.9-0.2
	c0.2-0.1,0.4-0.3,0.6-0.5c0.2-0.2,0.3-0.4,0.3-0.7c0.1-0.3,0.1-0.5,0.1-0.8c0-0.3,0-0.5-0.1-0.8c-0.1-0.3-0.2-0.5-0.3-0.7
	c-0.2-0.2-0.4-0.4-0.6-0.5c-0.2-0.1-0.5-0.2-0.9-0.2c-0.3,0-0.6,0.1-0.9,0.2c-0.2,0.1-0.4,0.3-0.6,0.5c-0.2,0.2-0.3,0.4-0.4,0.7
	C69.1,37.9,69,38.2,69,38.4z M76.3,35.1h1.6v1.1h0c0.1-0.3,0.4-0.6,0.8-0.9c0.4-0.3,0.8-0.4,1.3-0.4c0.4,0,0.8,0.1,1.1,0.2
	c0.3,0.1,0.6,0.4,0.8,0.6c0.2,0.3,0.4,0.5,0.4,0.9c0.1,0.3,0.1,0.7,0.1,1v4.2h-1.7v-3.7c0-0.2,0-0.4,0-0.6c0-0.2-0.1-0.4-0.2-0.6
	c-0.1-0.2-0.2-0.3-0.4-0.4c-0.2-0.1-0.4-0.2-0.6-0.2c-0.3,0-0.5,0.1-0.7,0.2c-0.2,0.1-0.4,0.2-0.5,0.4c-0.1,0.2-0.2,0.4-0.3,0.6
	C78,37.7,78,37.9,78,38.1v3.7h-1.7V35.1z M91.3,35.1v6.1c0,0.6-0.1,1.2-0.2,1.6c-0.1,0.5-0.4,0.9-0.7,1.2c-0.3,0.3-0.7,0.6-1.2,0.8
	c-0.5,0.2-1,0.3-1.7,0.3c-0.3,0-0.6,0-0.9-0.1c-0.3,0-0.6-0.1-0.9-0.2c-0.3-0.1-0.6-0.2-0.8-0.4c-0.3-0.1-0.5-0.3-0.7-0.5l1-1.3
	c0.3,0.3,0.7,0.5,1.1,0.7c0.4,0.2,0.8,0.3,1.2,0.3c0.4,0,0.7-0.1,1-0.2c0.3-0.1,0.5-0.3,0.7-0.5c0.2-0.2,0.3-0.4,0.3-0.7
	c0.1-0.3,0.1-0.6,0.1-0.9v-0.5h0c-0.2,0.3-0.6,0.6-0.9,0.8c-0.4,0.2-0.8,0.3-1.3,0.3c-0.5,0-1-0.1-1.4-0.3c-0.4-0.2-0.8-0.4-1.1-0.8
	c-0.3-0.3-0.5-0.7-0.7-1.1c-0.2-0.4-0.2-0.9-0.2-1.4c0-0.5,0.1-0.9,0.2-1.4c0.2-0.4,0.4-0.8,0.7-1.1c0.3-0.3,0.6-0.6,1-0.8
	c0.4-0.2,0.9-0.3,1.4-0.3c0.5,0,0.9,0.1,1.3,0.3c0.4,0.2,0.7,0.5,1,0.9h0v-1H91.3z M87.7,36.3c-0.3,0-0.6,0.1-0.8,0.2
	c-0.2,0.1-0.4,0.3-0.6,0.5c-0.2,0.2-0.3,0.4-0.4,0.7c-0.1,0.3-0.1,0.5-0.1,0.8c0,0.3,0,0.5,0.1,0.8c0.1,0.3,0.2,0.5,0.4,0.7
	c0.2,0.2,0.4,0.4,0.6,0.5c0.2,0.1,0.5,0.2,0.8,0.2c0.3,0,0.6-0.1,0.8-0.2c0.3-0.1,0.5-0.3,0.6-0.5c0.2-0.2,0.3-0.4,0.4-0.7
	c0.1-0.3,0.1-0.5,0.1-0.8c0-0.3,0-0.6-0.1-0.8c-0.1-0.3-0.2-0.5-0.4-0.7c-0.2-0.2-0.4-0.3-0.6-0.5C88.3,36.3,88,36.3,87.7,36.3z
	 M96.9,31.9h1.8v4h4.6v-4h1.8v9.9h-1.8v-4.4h-4.6v4.4h-1.8V31.9z M111.3,41L111.3,41c-0.2,0.3-0.5,0.5-0.9,0.7
	c-0.4,0.2-0.8,0.3-1.3,0.3c-0.3,0-0.6,0-0.9-0.1c-0.3-0.1-0.6-0.2-0.8-0.3c-0.2-0.2-0.4-0.4-0.6-0.6c-0.2-0.3-0.2-0.6-0.2-1
	c0-0.5,0.1-0.9,0.4-1.2c0.3-0.3,0.7-0.5,1.1-0.7c0.4-0.2,0.9-0.3,1.5-0.3c0.6-0.1,1.1-0.1,1.6-0.1v-0.2c0-0.4-0.2-0.7-0.5-0.9
	c-0.3-0.2-0.7-0.3-1.1-0.3c-0.4,0-0.7,0.1-1,0.2c-0.3,0.1-0.6,0.3-0.8,0.5l-0.9-1c0.4-0.4,0.8-0.6,1.3-0.8c0.5-0.2,1-0.3,1.5-0.3
	c0.6,0,1.1,0.1,1.5,0.3c0.4,0.2,0.7,0.4,0.9,0.7c0.2,0.3,0.4,0.6,0.5,0.9c0.1,0.3,0.1,0.7,0.1,1v4.1h-1.6V41z M111.3,38.8h-0.4
	c-0.3,0-0.6,0-0.9,0c-0.3,0-0.6,0.1-0.8,0.2c-0.3,0.1-0.5,0.2-0.6,0.3c-0.2,0.1-0.3,0.3-0.3,0.6c0,0.2,0,0.3,0.1,0.4
	c0.1,0.1,0.2,0.2,0.3,0.3c0.1,0.1,0.2,0.1,0.4,0.1s0.3,0,0.4,0c0.6,0,1-0.2,1.3-0.5c0.3-0.3,0.4-0.7,0.4-1.3V38.8z M120.9,41.8h-1.6
	v-1.1h0c-0.1,0.3-0.4,0.6-0.8,0.9c-0.4,0.3-0.8,0.4-1.3,0.4c-0.4,0-0.8-0.1-1.1-0.2c-0.3-0.2-0.6-0.4-0.8-0.6
	c-0.2-0.3-0.3-0.5-0.4-0.9c-0.1-0.3-0.1-0.7-0.1-1v-4.2h1.7v3.7c0,0.2,0,0.4,0,0.6c0,0.2,0.1,0.4,0.2,0.6c0.1,0.2,0.2,0.3,0.4,0.4
	c0.2,0.1,0.4,0.2,0.7,0.2c0.3,0,0.5-0.1,0.7-0.2c0.2-0.1,0.4-0.3,0.5-0.4c0.1-0.2,0.2-0.4,0.3-0.6c0.1-0.2,0.1-0.4,0.1-0.7v-3.7h1.7
	V41.8z M123,31.3h1.7v10.6H123V31.3z"/>
</svg>
