<?xml version="1.0" encoding="UTF-8" standalone="no"?>
<svg width="20px" height="20px" viewBox="0 0 20 20" version="1.1" xmlns="http://www.w3.org/2000/svg" xmlns:xlink="http://www.w3.org/1999/xlink">
    <!-- Generator: sketchtool 42 (36781) - http://www.bohemiancoding.com/sketch -->
    <title>7C4F66BC-87D1-4E36-8E86-2A0A1954DC81</title>
    <desc>Created with sketchtool.</desc>
    <defs></defs>
    <g id="Page-1" stroke="none" stroke-width="1" fill="none" fill-rule="evenodd">
        <g id="Dark" transform="translate(-56.000000, -2815.000000)" fill="#FFFFFF">
            <g id="Group-9" transform="translate(36.000000, 2317.000000)">
                <path d="M30,498 C24.48,498 20,502.48 20,508 C20,513.52 24.48,518 30,518 C35.52,518 40,513.52 40,508 C40,502.48 35.52,498 30,498 L30,498 Z M31,515 L29,515 L29,513 L31,513 L31,515 L31,515 Z M33.07,507.25 L32.17,508.17 C31.45,508.9 31,509.5 31,511 L29,511 L29,510.5 C29,509.4 29.45,508.4 30.17,507.67 L31.41,506.41 C31.78,506.05 32,505.55 32,505 C32,503.9 31.1,503 30,503 C28.9,503 28,503.9 28,505 L26,505 C26,502.79 27.79,501 30,501 C32.21,501 34,502.79 34,505 C34,505.88 33.64,506.68 33.07,507.25 L33.07,507.25 Z" id="Shape"></path>
            </g>
        </g>
    </g>
</svg>