<?xml version="1.0" encoding="UTF-8" standalone="no"?>
<svg width="46px" height="26px" viewBox="0 0 46 26" version="1.1" xmlns="http://www.w3.org/2000/svg" xmlns:xlink="http://www.w3.org/1999/xlink">
    <!-- Generator: sketchtool 41.2 (35397) - http://www.bohemiancoding.com/sketch -->
    <title>23AA8B2E-73EE-4774-9756-E7386A7B514E</title>
    <desc>Created with sketchtool.</desc>
    <defs></defs>
    <g id="icons" stroke="none" stroke-width="1" fill="none" fill-rule="evenodd">
        <g id="Icons" transform="translate(-677.000000, -819.000000)" fill="#fff">
            <g id="ic_vpn_key" transform="translate(677.000000, 819.000000)">
                <path d="M24.3541667,8.83333333 C22.6458333,3.97916667 18.0208333,0.5 12.5833333,0.5 C5.6875,0.5 0.0833333333,6.10416667 0.0833333333,13 C0.0833333333,19.8958333 5.6875,25.5 12.5833333,25.5 C18.0208333,25.5 22.6458333,22.0208333 24.3541667,17.1666667 L33.4166667,17.1666667 L33.4166667,25.5 L41.75,25.5 L41.75,17.1666667 L45.9166667,17.1666667 L45.9166667,8.83333333 L24.3541667,8.83333333 L24.3541667,8.83333333 Z M12.5833333,17.1666667 C10.2916667,17.1666667 8.41666667,15.2916667 8.41666667,13 C8.41666667,10.7083333 10.2916667,8.83333333 12.5833333,8.83333333 C14.875,8.83333333 16.75,10.7083333 16.75,13 C16.75,15.2916667 14.875,17.1666667 12.5833333,17.1666667 L12.5833333,17.1666667 Z" id="Shape"></path>
            </g>
        </g>
    </g>
</svg>