<svg width="21" height="9" viewBox="0 0 21 9" xmlns="http://www.w3.org/2000/svg"><title>8148CD26-6501-4742-B8EF-FB2DA616B3CD</title><path d="M.86.92h2.16c.38 0 .727.038 1.04.115.313.077.58.195.8.355.22.16.39.363.51.61s.18.543.18.89c0 .353-.065.657-.195.91s-.31.46-.54.62c-.23.16-.503.278-.82.355a4.349 4.349 0 0 1-1.025.115H1.85V8H.86V.92zm.99 3.13H2.9c.24 0 .462-.022.665-.065.203-.043.378-.11.525-.2a.938.938 0 0 0 .34-.355c.08-.147.12-.327.12-.54a1.05 1.05 0 0 0-.125-.535 1.005 1.005 0 0 0-.34-.35 1.452 1.452 0 0 0-.515-.19 3.608 3.608 0 0 0-.65-.055H1.85v2.29zM8.1 8h-.99V.92h2.27c.34 0 .663.035.97.105a2.4 2.4 0 0 1 .805.335c.23.153.412.355.545.605.133.25.2.555.2.915 0 .52-.16.94-.48 1.26-.32.32-.733.523-1.24.61L12.16 8h-1.2l-1.8-3.15H8.1V8zm0-3.98h1.14c.233 0 .45-.02.65-.06.2-.04.375-.105.525-.195.15-.09.268-.207.355-.35.087-.143.13-.322.13-.535 0-.213-.043-.392-.13-.535A1.005 1.005 0 0 0 10.425 2a1.513 1.513 0 0 0-.505-.185 3.27 3.27 0 0 0-.61-.055H8.1v2.26zm12.59.43a3.88 3.88 0 0 1-.285 1.505c-.19.457-.452.85-.785 1.18-.333.33-.73.587-1.19.77-.46.183-.96.275-1.5.275s-1.038-.092-1.495-.275a3.535 3.535 0 0 1-1.185-.77 3.505 3.505 0 0 1-.78-1.18 3.94 3.94 0 0 1-.28-1.505c0-.553.093-1.058.28-1.515a3.399 3.399 0 0 1 1.965-1.925c.457-.18.955-.27 1.495-.27.54 0 1.04.09 1.5.27.46.18.857.432 1.19.755.333.323.595.713.785 1.17.19.457.285.962.285 1.515zm-1.07 0c0-.387-.063-.752-.19-1.095a2.781 2.781 0 0 0-.54-.905 2.524 2.524 0 0 0-.845-.615 2.665 2.665 0 0 0-1.115-.225 2.64 2.64 0 0 0-1.105.225c-.33.15-.61.355-.84.615-.23.26-.408.562-.535.905-.127.343-.19.708-.19 1.095 0 .393.063.763.19 1.11.127.347.307.648.54.905.233.257.513.458.84.605.327.147.693.22 1.1.22.407 0 .777-.073 1.11-.22.333-.147.617-.348.85-.605.233-.257.413-.558.54-.905a3.21 3.21 0 0 0 .19-1.11z" fill="#333" fill-rule="evenodd" fill-opacity=".7"/></svg>