<?xml version="1.0" encoding="utf-8"?>
<!-- Generator: Adobe Illustrator 21.0.0, SVG Export Plug-In . SVG Version: 6.00 Build 0)  -->
<svg version="1.1" id="图层_1" xmlns="http://www.w3.org/2000/svg" xmlns:xlink="http://www.w3.org/1999/xlink" x="0px" y="0px"
	 viewBox="0 0 116 52" style="enable-background:new 0 0 116 52;" xml:space="preserve">
<style type="text/css">
	.st0{fill:#D4E1EE;}
	.st1{fill:none;stroke:#495368;stroke-width:1.7127;stroke-linecap:round;stroke-linejoin:round;stroke-miterlimit:10;}
	.st2{fill:#495368;}
</style>
<g>
	<path class="st0" d="M65.3,14.8v11.1l-9,3.8l-8.2-4L48,14.8l8.3-3.7L65.3,14.8z"/>
	<path class="st1" d="M66.6,12.4V23l-10.3,4l-9.6-4V12.4l9.6-4L66.6,12.4z"/>
	<path class="st1" d="M51.5,10.4l10.3,4v4"/>
	<path class="st1" d="M56.3,27V16.3l-9.6-4l9.6,4l10.3-4"/>
	<path class="st0" d="M76,29.6v11.6l-9.3,3.9L58.1,41L58,29.6l8.6-3.9L76,29.6z"/>
	<path class="st1" d="M77.4,27.1v11l-10.7,4.2l-10-4.2v-11l10-4.1L77.4,27.1z"/>
	<path class="st1" d="M61.7,25l10.7,4.1v4.1"/>
	<path class="st1" d="M66.7,42.4V31.3l-10-4.1l10,4.1l10.7-4.1"/>
	<path class="st0" d="M55.3,29.6v11.6L46,45.1L37.4,41l-0.1-11.4l8.6-3.9L55.3,29.6z"/>
	<path class="st1" d="M56.7,27.1v11L46,42.3l-10-4.2v-11L46,23L56.7,27.1z"/>
	<path class="st1" d="M40.9,25l10.7,4.1v4.1"/>
	<path class="st1" d="M45.9,42.4V31.3l-10-4.1l10,4.1l10.7-4.1"/>
	<path class="st2" d="M23.4,9.9c0-0.4,0-2.4,0-2.8c0.6,4.3,5.2,8.5,10.9,8.5v-2.4l4.5,4.6l-4.5,4.6V20C28.2,20,23.4,16,23.4,9.9z"/>
</g>
</svg>
