<?xml version="1.0" encoding="utf-8"?>
<!-- Generator: Adobe Illustrator 21.0.0, SVG Export Plug-In . SVG Version: 6.00 Build 0)  -->
<svg version="1.1" id="图层_1" xmlns="http://www.w3.org/2000/svg" xmlns:xlink="http://www.w3.org/1999/xlink" x="0px" y="0px"
	 viewBox="0 0 66 47" style="enable-background:new 0 0 66 47;" xml:space="preserve">
<style type="text/css">
	.st0{fill:#F9F9F9;}
	.st1{fill:#FFFFFF;}
</style>
<path class="st0" d="M57.1,9.1l0.8-0.6l0,0l0,0L57.1,9.1z M62.5,17.1l0.8-0.6l0,0L62.5,17.1z M3.9,1.5v-1V1.5z M50.4,41.3
	c0,2.4,1.9,4.3,4.3,4.3v-2c-1.3,0-2.3-1-2.3-2.3H50.4z M54.7,45.5c2.4,0,4.3-1.9,4.3-4.3h-2c0,1.3-1,2.3-2.3,2.3V45.5z M58.9,41.3
	c0-2.4-1.9-4.3-4.3-4.3v2c1.3,0,2.3,1,2.3,2.3H58.9z M54.7,37c-2.4,0-4.3,1.9-4.3,4.3h2c0-1.3,1-2.3,2.3-2.3V37z M20.2,41.3
	c0,2.4,1.9,4.3,4.3,4.3v-2c-1.3,0-2.3-1-2.3-2.3H20.2z M24.4,45.5c2.4,0,4.3-1.9,4.3-4.3h-2c0,1.3-1,2.3-2.3,2.3V45.5z M28.7,41.3
	c0-2.4-1.9-4.3-4.3-4.3v2c1.3,0,2.3,1,2.3,2.3H28.7z M24.4,37c-2.4,0-4.3,1.9-4.3,4.3h2c0-1.3,1-2.3,2.3-2.3V37z M7.4,33.5H46v-2
	H7.4V33.5z M46,33.5c1.3,0,2.5-1,2.5-2.5h-2c0,0.3-0.2,0.5-0.5,0.5V33.5z M48.6,31V10h-2v21H48.6z M48.6,10c0-0.3,0.2-0.5,0.5-0.5
	v-2c-1.5,0-2.5,1.2-2.5,2.5H48.6z M49.1,9.5h6.7v-2h-6.7V9.5z M55.8,9.5c0.2,0,0.4,0.1,0.5,0.2l1.6-1.2c-0.4-0.6-1.2-1-2.1-1V9.5z
	 M56.3,9.7l5.4,8l1.7-1.1l-5.4-8L56.3,9.7z M61.6,17.7c0.1,0.1,0.1,0.2,0.1,0.3h2c0-0.5-0.2-1-0.4-1.4L61.6,17.7z M61.7,17.9V31h2
	V17.9H61.7z M61.7,31c0,0.3-0.2,0.5-0.5,0.5v2c1.5,0,2.5-1.2,2.5-2.5H61.7z M61.2,31.5H45.6v2h15.6V31.5z M1.4,3v23.1h2V3H1.4z
	 M1.4,26.1c0,1.3,1,2.5,2.5,2.5v-2c-0.3,0-0.5-0.2-0.5-0.5H1.4z M3.9,28.6H42v-2H3.9V28.6z M42,28.6c1.3,0,2.5-1,2.5-2.5h-2
	c0,0.3-0.2,0.5-0.5,0.5V28.6z M44.6,26.1V3h-2v23.1H44.6z M44.6,3c0-1.3-1-2.5-2.5-2.5v2c0.3,0,0.5,0.2,0.5,0.5H44.6z M42,0.5H3.9v2
	H42V0.5z M3.9,0.5C2.5,0.5,1.4,1.7,1.4,3h2c0-0.3,0.3-0.5,0.5-0.5V0.5z"/>
<path class="st1" d="M12.5,9.6h1.8v8.3h4.2v1.6h-6V9.6z M21.1,11.1h-3V9.6h7.8v1.5h-3v8.4h-1.8V11.1z M27.8,9.6h1.8v8.3h4.2v1.6h-6
	V9.6z"/>
</svg>
