<?xml version="1.0" encoding="utf-8"?>
<!-- Generator: Adobe Illustrator 21.0.0, SVG Export Plug-In . SVG Version: 6.00 Build 0)  -->
<svg version="1.1" id="图层_1" xmlns="http://www.w3.org/2000/svg" xmlns:xlink="http://www.w3.org/1999/xlink" x="0px" y="0px"
	 viewBox="0 0 116 52" style="enable-background:new 0 0 116 52;" xml:space="preserve">
<style type="text/css">
	.st0{fill:#D4E1EE;}
	.st1{fill:#4C5263;}
</style>
<path class="st0" d="M61.1,27.1c3.9,0,7-3.1,7-6.8s-3.2-6.8-7-6.8c-3.9,0-7,3.1-7,6.8S57.2,27.1,61.1,27.1z"/>
<path class="st0" d="M48.7,41.5c0,0,2.8-10.7,12.1-10.7c9.3,0,11.2,10.7,11.2,10.7H48.7z"/>
<path class="st1" d="M43.9,38.9c-0.2,0.5,0.1,1.1,0.6,1.3c0.5,0.2,1.1-0.1,1.3-0.6L43.9,38.9z M70.2,39.4c0.1,0.5,0.7,0.9,1.2,0.8
	c0.5-0.1,0.9-0.7,0.8-1.2L70.2,39.4z M64.5,18.8c0,3.5-2.8,6.3-6.3,6.3v2c4.6,0,8.3-3.7,8.3-8.3H64.5z M58.3,25.1
	c-3.5,0-6.3-2.8-6.3-6.3h-2c0,4.6,3.7,8.3,8.3,8.3V25.1z M52,18.8c0-3.5,2.8-6.3,6.3-6.3v-2c-4.6,0-8.3,3.7-8.3,8.3H52z M58.3,12.5
	c3.5,0,6.3,2.8,6.3,6.3h2c0-4.6-3.7-8.3-8.3-8.3V12.5z M44.9,39.2c0.9,0.3,0.9,0.3,0.9,0.3c0,0,0,0,0,0c0,0,0,0,0,0c0,0,0,0,0,0
	c0,0,0,0,0,0c0,0,0,0,0-0.1c0-0.1,0.1-0.1,0.1-0.3c0.1-0.2,0.2-0.6,0.5-1c0.4-0.8,1.1-1.9,2.1-3c2-2.2,5.1-4.4,10-4.4v-2
	c-5.6,0-9.3,2.5-11.5,5c-1.1,1.2-1.9,2.5-2.4,3.4c-0.2,0.5-0.4,0.9-0.5,1.1C44,38.6,44,38.7,44,38.7c0,0,0,0.1,0,0.1c0,0,0,0,0,0
	c0,0,0,0,0,0c0,0,0,0,0,0c0,0,0,0,0,0C43.9,38.9,43.9,38.9,44.9,39.2z M58.5,30.8c4.9,0,7.8,2.2,9.5,4.3c0.8,1.1,1.4,2.2,1.7,3
	c0.2,0.4,0.3,0.7,0.3,1c0,0.1,0.1,0.2,0.1,0.3c0,0,0,0,0,0.1c0,0,0,0,0,0c0,0,0,0,0,0c0,0,0,0,0,0c0,0,0,0,0,0c0,0,0,0,1-0.2
	c1-0.2,1-0.2,1-0.2c0,0,0,0,0,0c0,0,0,0,0,0c0,0,0,0,0,0c0,0,0,0,0,0c0,0,0-0.1,0-0.1c0-0.1-0.1-0.2-0.1-0.3
	c-0.1-0.3-0.2-0.7-0.4-1.2c-0.4-0.9-1-2.2-2-3.5c-2-2.6-5.4-5.1-11-5.1V30.8z"/>
</svg>
