<?xml version="1.0" encoding="utf-8"?>
<!-- Generator: Adobe Illustrator 21.0.0, SVG Export Plug-In . SVG Version: 6.00 Build 0)  -->
<svg version="1.1" id="图层_1" xmlns="http://www.w3.org/2000/svg" xmlns:xlink="http://www.w3.org/1999/xlink" x="0px" y="0px"
	 viewBox="0 0 116 52" style="enable-background:new 0 0 116 52;" xml:space="preserve">
<style type="text/css">
	.st0{fill:#D4E1EE;}
	.st1{fill:none;stroke:#495368;stroke-width:2;stroke-linecap:round;stroke-linejoin:round;stroke-miterlimit:10;}
	.st2{fill:#495368;stroke:#495368;stroke-width:0.5;stroke-linejoin:round;}
</style>
<path class="st0" d="M60.1,41.2c7.6,0,13.8-6,13.8-13.4s-6.2-13.4-13.8-13.4c-7.6,0-13.8,6-13.8,13.4S52.5,41.2,60.1,41.2z"/>
<path class="st1" d="M57.6,37.9c7.6,0,13.8-6,13.8-13.4s-6.2-13.4-13.8-13.4s-13.8,6-13.8,13.4S50,37.9,57.6,37.9z"/>
<path class="st2" d="M57.2,25.1c-0.5-0.1-1-0.3-1.5-0.5c-0.5-0.2-0.9-0.4-1.3-0.7c-0.4-0.3-0.6-0.6-0.9-1c-0.2-0.4-0.3-0.9-0.3-1.4
	c0-0.5,0.1-1,0.3-1.4c0.2-0.4,0.5-0.8,0.9-1.1c0.4-0.3,0.8-0.5,1.3-0.7c0.5-0.2,1-0.3,1.5-0.3v-1.3h1v1.2c0.7,0,1.4,0.1,2.1,0.4
	c0.7,0.2,1.3,0.6,1.8,1l-1.4,1.1c-0.3-0.4-0.7-0.6-1.2-0.8c-0.5-0.2-0.9-0.3-1.4-0.3v4.3c0.5,0.2,1,0.3,1.5,0.5s0.9,0.4,1.3,0.7
	c0.4,0.3,0.7,0.6,1,1.1c0.2,0.4,0.4,0.9,0.4,1.5c0,0.6-0.1,1.1-0.3,1.5c-0.2,0.4-0.5,0.8-0.9,1.1c-0.4,0.3-0.8,0.6-1.3,0.7
	c-0.5,0.2-1,0.2-1.6,0.3v1.3h-1v-1.3c-0.9,0-1.7-0.2-2.5-0.5c-0.8-0.3-1.4-0.7-2-1.3l1.5-1.1c0.2,0.2,0.4,0.4,0.6,0.6
	s0.5,0.3,0.8,0.5c0.3,0.1,0.5,0.2,0.8,0.3c0.3,0.1,0.5,0.1,0.8,0.1V25.1z M58.3,29.7c0.3,0,0.6-0.1,0.8-0.2c0.3-0.1,0.5-0.2,0.7-0.4
	c0.2-0.2,0.4-0.4,0.5-0.7c0.1-0.3,0.2-0.6,0.2-0.9c0-0.6-0.2-1-0.6-1.4c-0.4-0.3-1-0.6-1.6-0.8V29.7z M57.2,19.3
	c-0.6,0-1.1,0.2-1.5,0.6c-0.4,0.3-0.6,0.8-0.6,1.4c0,0.6,0.2,1,0.6,1.3c0.4,0.3,0.9,0.5,1.5,0.7V19.3z"/>
</svg>
