<?xml version="1.0" encoding="utf-8"?>
<!-- Generator: Adobe Illustrator 21.0.0, SVG Export Plug-In . SVG Version: 6.00 Build 0)  -->
<svg version="1.1" id="图层_1" xmlns="http://www.w3.org/2000/svg" xmlns:xlink="http://www.w3.org/1999/xlink" x="0px" y="0px"
	 viewBox="0 0 116 52" style="enable-background:new 0 0 116 52;" xml:space="preserve">
<style type="text/css">
	.st0{fill:#FFFFFF;}
	.st1{fill:#D4E1EE;}
	.st2{fill:none;stroke:#495368;stroke-width:1.75;stroke-linecap:round;stroke-linejoin:round;stroke-miterlimit:10;}
	.st3{fill:none;stroke:#495368;stroke-width:1.4147;stroke-linecap:round;stroke-linejoin:round;stroke-miterlimit:10;}
	.st4{fill:#495368;}
</style>
<path class="st0" d="M93.9,19.1v17.1l-16,6.4l-15-6.4V19.1l15-6.4L93.9,19.1z"/>
<path class="st1" d="M91.8,23v18l-14,5.1L65,40.6l-0.1-17.5l12.9-6L91.8,23z"/>
<path class="st2" d="M93.9,19.1v17.1l-16,6.4l-15-6.4V19.1l15-6.4L93.9,19.1z"/>
<path class="st2" d="M62.7,19.2l-3.9,4.5l15.5,7l3.4-5.2l3.4,5.2l17.7-6.6l-5-5l-16,6.4L62.7,19.2l15.1,6.3v17.1"/>
<path class="st0" d="M45.5,15.5v10.6l-9.4,3.6l-8.7-3.8l-0.1-10.3l8.8-3.5L45.5,15.5z"/>
<path class="st1" d="M44.3,18.1v10.5l-8.2,3.6l-7.5-3.8l-0.1-10.3l7.6-3.5L44.3,18.1z"/>
<path class="st3" d="M45.5,15.8v10l-9.4,3.8l-8.8-3.8v-10l8.8-3.8L45.5,15.8z"/>
<path class="st3" d="M31.7,14l9.4,3.8v3.8"/>
<path class="st3" d="M36.1,29.6v-10 M36.1,19.6l-8.8-3.8 M36.1,19.6l9.4-3.8"/>
<path class="st0" d="M54.6,29.4V40l-9.4,3.6l-8.7-3.8V29.5l8.8-3.5L54.6,29.4z"/>
<path class="st1" d="M53.4,31.9v10.5L45.2,46l-7.6-3.8l-0.1-10.3l7.6-3.5L53.4,31.9z"/>
<path class="st3" d="M54.6,29.7v10l-9.4,3.8l-8.8-3.8v-10l8.8-3.8L54.6,29.7z"/>
<path class="st3" d="M40.8,27.8l9.4,3.8v3.8"/>
<path class="st3" d="M45.2,43.5v-10 M45.2,33.4l-8.8-3.8 M45.2,33.4l9.4-3.8"/>
<path class="st0" d="M18.2,29.3v10.6l9.4,3.6l8.7-3.8l0.1-10.3l-8.8-3.5L18.2,29.3z"/>
<path class="st1" d="M19.4,31.9v10.5l8.2,3.6l7.5-3.8l0.1-10.3l-7.6-3.5L19.4,31.9z"/>
<path class="st3" d="M18.2,29.6v10l9.4,3.8l8.8-3.8v-10l-8.8-3.8L18.2,29.6z"/>
<path class="st3" d="M32,27.8l-9.4,3.8v3.8"/>
<path class="st3" d="M27.6,43.4v-10 M27.6,33.4l8.8-3.8 M27.6,33.4l-9.4-3.8"/>
<path class="st4" d="M70.1,6.1c-0.4,0-4.6,0-5,0c4.3,0.6,10.6,5.2,10.7,10.9h-2.4l4.7,4.5l4.7-4.5h-2.4C80.2,11,76.1,6.1,70.1,6.1z"
	/>
</svg>
