<?xml version="1.0" encoding="utf-8"?>
<!-- Generator: Adobe Illustrator 21.0.0, SVG Export Plug-In . SVG Version: 6.00 Build 0)  -->
<svg version="1.1" id="图层_1" xmlns="http://www.w3.org/2000/svg" xmlns:xlink="http://www.w3.org/1999/xlink" x="0px" y="0px"
	 viewBox="0 0 81 81" style="enable-background:new 0 0 81 81;" xml:space="preserve">
<style type="text/css">
	.st0{opacity:0.5;fill:#D4E1EE;enable-background:new    ;}
	.st1{fill:#FFFFFF;}
	.st2{fill:none;stroke:#FDFEFF;stroke-width:2;stroke-miterlimit:10;}
</style>
<path class="st0" d="M57.8,27.6v32.8c0,0.9-0.7,1.6-1.6,1.6H30.7c-0.9,0-1.6-0.7-1.6-1.6V34.3c0-0.5,0.2-0.9,0.6-1.2l7.9-6.7
	c0.3-0.2,0.7-0.4,1-0.4h17.7C57.1,26,57.8,26.7,57.8,27.6z"/>
<path class="st1" d="M32.7,37.8h4.1c0.3,0,0.6,0.3,0.6,0.6c0,0.3-0.3,0.6-0.6,0.6h-2.7c-0.3,0-0.6,0.3-0.6,0.6v0.8
	c0,0.3,0.3,0.6,0.6,0.6h2.5c0.3,0,0.6,0.3,0.6,0.6c0,0.3-0.3,0.6-0.6,0.6h-2.5c-0.3,0-0.6,0.3-0.6,0.6v1.1c0,0.3,0.3,0.6,0.6,0.6H37
	c0.3,0,0.6,0.3,0.6,0.6v0.1c0,0.3-0.3,0.6-0.6,0.6h-4.3c-0.3,0-0.6-0.3-0.6-0.6v-6.9C32.1,38.1,32.4,37.8,32.7,37.8z"/>
<path class="st1" d="M39,38.4c0-0.3,0.3-0.6,0.6-0.6h2.2c0.5,0,1,0.1,1.6,0.2c0.5,0.1,1,0.4,1.4,0.7s0.8,0.7,1,1.2
	c0.3,0.5,0.4,1.1,0.4,1.9c0,0.7-0.1,1.3-0.4,1.8c-0.3,0.5-0.6,0.9-1,1.2c-0.4,0.3-0.9,0.6-1.4,0.7c-0.5,0.2-1,0.2-1.6,0.2h-2.2
	c-0.3,0-0.6-0.3-0.6-0.6V38.4z M41.6,44.5c0.4,0,0.7,0,1.1-0.1c0.4-0.1,0.7-0.2,1-0.4c0.3-0.2,0.5-0.5,0.7-0.8
	c0.2-0.4,0.3-0.8,0.3-1.3c0-0.6-0.1-1-0.3-1.4c-0.2-0.4-0.4-0.6-0.7-0.8c-0.3-0.2-0.6-0.3-1-0.4c-0.4-0.1-0.7-0.1-1.1-0.1H41
	c-0.3,0-0.6,0.3-0.6,0.6v4.3c0,0.3,0.3,0.6,0.6,0.6h0.6V44.5z"/>
<path class="st1" d="M48.3,37.8h0.2c0.3,0,0.6,0.3,0.6,0.6v6.9c0,0.3-0.3,0.6-0.6,0.6h-0.2c-0.3,0-0.6-0.3-0.6-0.6v-6.9
	C47.7,38.1,47.9,37.8,48.3,37.8z"/>
<path class="st2" d="M54.8,23.9v32.8c0,0.9-0.7,1.6-1.6,1.6H27.7c-0.9,0-1.6-0.7-1.6-1.6v-26c0-0.5,0.2-0.9,0.6-1.2l7.9-6.7
	c0.3-0.2,0.7-0.4,1-0.4h17.7C54,22.3,54.8,23.1,54.8,23.9z"/>
</svg>
