<?xml version="1.0" encoding="UTF-8" standalone="no"?>
<svg width="23px" height="26px" viewBox="0 0 23 26" version="1.1" xmlns="http://www.w3.org/2000/svg" xmlns:xlink="http://www.w3.org/1999/xlink">
    <!-- Generator: sketchtool 42 (36781) - http://www.bohemiancoding.com/sketch -->
    <title>C6BC4602-10E9-4960-BF3F-0153CFDE6C01</title>
    <desc>Created with sketchtool.</desc>
    <defs></defs>
    <g id="New-Colors" stroke="none" stroke-width="1" fill="none" fill-rule="evenodd">
        <g id="WHITE" transform="translate(-1338.000000, -11.000000)" fill="#FFFFFF">
            <g id="Header">
                <g id="Profile" transform="translate(959.000000, 9.000000)">
                    <g id="Group-15" transform="translate(379.000000, 2.000000)">
                        <g id="ic_notifications">
                            <path d="M11.5,26 C12.875,26 14,24.65 14,23 L9,23 C9,24.65 10.125,26 11.5,26 L11.5,26 Z M20.2941176,18.1176471 L20.2941176,11 C20.2941176,7.02705882 17.4123529,3.70117647 13.5294118,2.82117647 L13.5294118,1.94117647 C13.5294118,0.867058824 12.6229412,0 11.5,0 C10.3770588,0 9.47058824,0.867058824 9.47058824,1.94117647 L9.47058824,2.82117647 C5.58764706,3.70117647 2.70588235,7.02705882 2.70588235,11 L2.70588235,18.1176471 L0,20.7058824 L0,22 L23,22 L23,20.7058824 L20.2941176,18.1176471 L20.2941176,18.1176471 Z" id="Shape"></path>
                        </g>
                    </g>
                </g>
            </g>
        </g>
    </g>
</svg>