<?xml version="1.0" encoding="UTF-8" standalone="no"?>
<svg width="28px" height="20px" viewBox="0 0 28 20" version="1.1" xmlns="http://www.w3.org/2000/svg" xmlns:xlink="http://www.w3.org/1999/xlink">
    <!-- Generator: sketchtool 42 (36781) - http://www.bohemiancoding.com/sketch -->
    <title>746290EB-1B48-4104-9C6D-1CC6A4ECA5DD</title>
    <desc>Created with sketchtool.</desc>
    <defs></defs>
    <g id="Page-1" stroke="none" stroke-width="1" fill="none" fill-rule="evenodd">
        <g id="White" transform="translate(-48.000000, -3302.000000)" fill="#333333">
            <g id="Group-9" transform="translate(29.000000, 2393.000000)">
                <path d="M43,914 L39,914 L39,909 L21,909 C20.1454545,909 19,910.125 19,911 L19,925 L21,925 C21.5454545,927.325 23.2509091,929 25,929 C27.4763636,929 29.1818182,927.325 29,925 L37,925 C36.8181818,927.325 38.5236364,929 41,929 C42.7490909,929 44.4545455,927.325 45,925 L47,925 L47,919 L43,914 L43,914 Z M25,927 C23.8933333,927 23,926.106667 23,925 C23,923.893333 23.8933333,923 25,923 C26.1066667,923 27,923.893333 27,925 C27,926.106667 26.1066667,927 25,927 L25,927 Z M42,916 L45,919 L39,919 L39,916 L42,916 L42,916 Z M41,927 C39.8933333,927 39,926.106667 39,925 C39,923.893333 39.8933333,923 41,923 C42.1066667,923 43,923.893333 43,925 C43,926.106667 42.1066667,927 41,927 L41,927 Z" id="Shape"></path>
            </g>
        </g>
    </g>
</svg>