<svg xmlns="http://www.w3.org/2000/svg" width="18" height="11" viewBox="0 0 18 11">
    <path fill="#FFF" fill-rule="evenodd" d="M3.34 8h-.99V1.79H.08V.92h5.53v.87H3.34V8zM5.9 4.28a15.295 15.295 0 0 0-.04-1.02h.89a9.405 9.405 0 0 1 .04.8h.03a1.64 1.64 0 0 1 .585-.675c.257-.17.545-.255.865-.255.147 0 .27.013.37.04l-.04.87a1.769 1.769 0 0 0-.43-.05c-.227 0-.423.042-.59.125a1.205 1.205 0 0 0-.415.335c-.11.14-.192.302-.245.485-.053.183-.08.375-.08.575V8H5.9V4.28zM10.77 8h-.94V3.26h.94V8zm.16-6.45a.559.559 0 0 1-.185.43.635.635 0 0 1-.445.17.607.607 0 0 1-.44-.175.57.57 0 0 1-.18-.425.607.607 0 0 1 .62-.61c.173 0 .322.058.445.175a.574.574 0 0 1 .185.435zm2.72 8.85h-.94V3.26h.92V4h.03c.153-.253.378-.462.675-.625a2.112 2.112 0 0 1 1.035-.245c.353 0 .675.063.965.19.29.127.54.303.75.53.21.227.372.492.485.795.113.303.17.628.17.975s-.057.673-.17.98a2.416 2.416 0 0 1-.48.8 2.217 2.217 0 0 1-.75.535c-.293.13-.623.195-.99.195-.34 0-.66-.073-.96-.22a1.737 1.737 0 0 1-.71-.62h-.03v3.11zm3.12-4.78c0-.22-.033-.433-.1-.64a1.633 1.633 0 0 0-.3-.55 1.436 1.436 0 0 0-.495-.38 1.581 1.581 0 0 0-.685-.14 1.508 1.508 0 0 0-1.16.52c-.14.16-.248.343-.325.55a1.854 1.854 0 0 0-.115.65c0 .227.038.443.115.65.077.207.185.388.325.545.14.157.308.282.505.375.197.093.415.14.655.14.26 0 .488-.048.685-.145.197-.097.362-.225.495-.385s.233-.343.3-.55c.067-.207.1-.42.1-.64z"/>
</svg>
