<svg xmlns="http://www.w3.org/2000/svg" width="22" height="16" viewBox="0 0 22 16">
    <path fill="#FFF" fill-rule="evenodd" d="M18.66 3.929h-2.946V0H1.964A1.97 1.97 0 0 0 0 1.964v10.804h1.964a2.942 2.942 0 0 0 2.947 2.946 2.942 2.942 0 0 0 2.946-2.946h5.893a2.942 2.942 0 0 0 2.946 2.946 2.942 2.942 0 0 0 2.947-2.946h1.964v-4.91l-2.946-3.93zM4.91 14.24a1.471 1.471 0 0 1-1.473-1.473c0-.815.659-1.473 1.474-1.473s1.473.658 1.473 1.473c0 .815-.658 1.473-1.473 1.473zm13.26-8.84l1.925 2.456h-4.38V5.402h2.455zm-1.474 8.84a1.471 1.471 0 0 1-1.473-1.473c0-.815.658-1.473 1.473-1.473.816 0 1.474.658 1.474 1.473 0 .815-.658 1.473-1.474 1.473z"/>
</svg>
