<svg width="28" height="9" viewBox="0 0 28 9" xmlns="http://www.w3.org/2000/svg"><title>C3A45D4A-F63D-4CAA-B8D6-F705B66FD2BE</title><path d="M6.93 6.9c-.28.38-.643.688-1.09.925-.447.237-.983.355-1.61.355-.54 0-1.038-.092-1.495-.275a3.481 3.481 0 0 1-1.18-.77 3.543 3.543 0 0 1-.775-1.18A3.94 3.94 0 0 1 .5 4.45c0-.553.095-1.058.285-1.515.19-.457.453-.847.79-1.17A3.595 3.595 0 0 1 2.77 1.01c.46-.18.96-.27 1.5-.27.24 0 .483.023.73.07.247.047.483.117.71.21.227.093.433.208.62.345.187.137.347.295.48.475l-.78.6a1.949 1.949 0 0 0-.735-.595A2.28 2.28 0 0 0 4.27 1.61c-.413 0-.785.075-1.115.225-.33.15-.612.355-.845.615-.233.26-.413.562-.54.905-.127.343-.19.708-.19 1.095 0 .4.062.773.185 1.12.123.347.3.648.53.905.23.257.51.458.84.605.33.147.698.22 1.105.22.4 0 .763-.08 1.09-.24.327-.16.597-.393.81-.7l.79.54zm6.3-.32h.02V.92h.99V8h-1.25L9.25 2.22h-.02V8h-.99V.92h1.29l3.7 5.66zM18.74 8h-.99V1.79h-2.27V.92h5.53v.87h-2.27V8zm4.5 0h-.99V.92h2.27c.34 0 .663.035.97.105a2.4 2.4 0 0 1 .805.335c.23.153.412.355.545.605.133.25.2.555.2.915 0 .52-.16.94-.48 1.26-.32.32-.733.523-1.24.61L27.3 8h-1.2l-1.8-3.15h-1.06V8zm0-3.98h1.14c.233 0 .45-.02.65-.06.2-.04.375-.105.525-.195.15-.09.268-.207.355-.35.087-.143.13-.322.13-.535 0-.213-.043-.392-.13-.535A1.005 1.005 0 0 0 25.565 2a1.513 1.513 0 0 0-.505-.185 3.27 3.27 0 0 0-.61-.055h-1.21v2.26z" fill="#333" fill-rule="evenodd" fill-opacity=".7"/></svg>