<svg xmlns="http://www.w3.org/2000/svg" width="18" height="18" viewBox="0 0 18 18">
    <g fill="none" fill-rule="nonzero">
        <path fill="#F9E67F" d="M4.506 18h13.006c.259 0 .469-.21.469-.47V3.574a.47.47 0 0 0-.47-.47H.47a.47.47 0 0 0-.469.47V13.1L4.506 18z"/>
        <path fill="#5E4735" d="M.586 0h16.808c.324 0 .587.263.587.586v2.828H0V.586C0 .263.263 0 .586 0z"/>
        <path fill="#D9C869" d="M0 13.097L4.435 18l.25-4.594a.293.293 0 0 0-.293-.31H0z"/>
        <g fill="#C6413B" transform="translate(8.208 6.919)">
            <path d="M-.156.002V4.1a.88.88 0 0 0 1.759 0V.002a.88.88 0 1 0-1.76 0z"/>
            <ellipse cx=".784" cy="6.633" rx="1" ry="1"/>
        </g>
    </g>
</svg>
