<svg xmlns="http://www.w3.org/2000/svg" width="18" height="16" viewBox="0 0 18 16">
    <g fill="#FFF" fill-rule="nonzero">
        <path d="M8.988 8.79a.775.775 0 0 0 .658-.264l2.426-2.729A.776.776 0 0 0 12 4.695a.795.795 0 0 0-1.114.07L9.842 5.94V1.057a.785.785 0 0 0-.854-.779.785.785 0 0 0-.855.779v4.882L7.09 4.765a.795.795 0 0 0-1.114-.07.776.776 0 0 0-.071 1.102L8.33 8.526a.775.775 0 0 0 .658.263z"/>
        <path d="M4.322 4.898c.386.05.685.378.685.774v7.654h8.287V5.672v-.038a.774.774 0 0 1 .221-.55.795.795 0 0 1 1.116-.022l3.086 2.937c.314.299.324.793.022 1.104a.795.795 0 0 1-1.116.022l-1.75-1.666v6.648a.785.785 0 0 1-.79.782H4.217a.785.785 0 0 1-.79-.782V7.285l-1.932 1.84a.795.795 0 0 1-1.117-.022A.776.776 0 0 1 .4 8l3.086-2.937a.796.796 0 0 1 .836-.164z"/>
    </g>
</svg>
