<?xml version="1.0" encoding="UTF-8" standalone="no"?>
<svg width="20px" height="20px" viewBox="0 0 20 20" version="1.1" xmlns="http://www.w3.org/2000/svg" xmlns:xlink="http://www.w3.org/1999/xlink">
    <!-- Generator: Sketch 40 (33762) - http://www.bohemiancoding.com/sketch -->
    <title>Shape</title>
    <desc>Created with Sketch.</desc>
    <defs></defs>
    <g id="Janell's-Originals" stroke="none" stroke-width="1" fill="none" fill-rule="evenodd">
        <g id="LT-Ultra-Plus-Strawberry" transform="translate(-368.000000, -55.000000)" fill="#FFFFFF">
            <g id="Error-expanded" transform="translate(352.000000, 48.000000)">
                <g id="ic_error-copy" transform="translate(14.000000, 7.000000)">
                    <path d="M12,0 C6.48,0 2,4.48 2,10 C2,15.52 6.48,20 12,20 C17.52,20 22,15.52 22,10 C22,4.48 17.52,0 12,0 L12,0 Z M13,15 L11,15 L11,13 L13,13 L13,15 L13,15 Z M13,11 L11,11 L11,5 L13,5 L13,11 L13,11 Z" id="Shape"></path>
                </g>
            </g>
        </g>
    </g>
</svg>