<?xml version="1.0" encoding="utf-8"?>
<!-- Generator: Adobe Illustrator 21.0.0, SVG Export Plug-In . SVG Version: 6.00 Build 0)  -->
<svg version="1.1" id="图层_1" xmlns="http://www.w3.org/2000/svg" xmlns:xlink="http://www.w3.org/1999/xlink" x="0px" y="0px"
	 viewBox="0 0 63 52" style="enable-background:new 0 0 63 52;" xml:space="preserve">
<style type="text/css">
	.st0{fill:#DDDDDD;}
	.st1{fill:#EDEDED;}
	.st2{fill:none;stroke:#DDDDDD;stroke-miterlimit:10;}
</style>
<path class="st0" d="M36.8,51.6h-4.2c-1.1,0-2.1-0.9-2.1-2.1v-1c0-1.1,0.9-2.1,2.1-2.1h4.2c1.1,0,2.1,0.9,2.1,2.1v1
	C38.9,50.7,37.9,51.6,36.8,51.6z"/>
<path class="st0" d="M62.6,30c0-4.8-3.6-8.7-8.2-9.5C54,11.4,50.3,0.1,47.9,0.1c-2.6,0-3.4,0.1-2.3,3.7c0.9,3,3.7,11.1,4.7,17
	c-4,1.1-7.1,4.8-7.1,9.3c0,4.8,3.6,8.8,8.2,9.5v6.9c0,0.7-0.6,1.3-1.3,1.3H38.6c-0.7,0-1.3,0.6-1.3,1.3s0.6,1.3,1.3,1.3h14.6
	c0.7,0,1.3-0.6,1.3-1.3v-9.4c0,0,0,0,0-0.1C59.2,38.8,62.6,34.9,62.6,30z"/>
<path class="st1" d="M28.6,11.6H6c-1.6,0-2.9,1.1-2.9,2.6v8.2C3.2,23.7,4.4,25,6,25h16.9l5.4,2.9V25h0.3c1.6,0,2.9-1.1,2.9-2.6v-8.2
	C31.5,12.8,30.3,11.6,28.6,11.6z"/>
<path class="st2" d="M26.1,10.1H3.5c-1.6,0-2.9,1.1-2.9,2.6v8.2c0,1.4,1.3,2.6,2.9,2.6h16.9l5.4,2.9v-2.9h0.3c1.6,0,2.9-1.1,2.9-2.6
	v-8.2C29,11.2,27.7,10.1,26.1,10.1z"/>
<path class="st0" d="M10.3,19.7c0.6,0,1.1-0.5,1.1-1.1c0-0.6-0.5-1.1-1.1-1.1c-0.6,0-1.1,0.5-1.1,1.1C9.1,19.2,9.6,19.7,10.3,19.7z"
	/>
<path class="st0" d="M14.8,19.7c0.6,0,1.1-0.5,1.1-1.1c0-0.6-0.5-1.1-1.1-1.1s-1.1,0.5-1.1,1.1C13.6,19.2,14.1,19.7,14.8,19.7z"/>
<path class="st0" d="M19.3,19.7c0.6,0,1.1-0.5,1.1-1.1c0-0.6-0.5-1.1-1.1-1.1s-1.1,0.5-1.1,1.1C18.2,19.2,18.7,19.7,19.3,19.7z"/>
</svg>
