<?xml version="1.0" encoding="utf-8"?>
<!-- Generator: Adobe Illustrator 21.0.0, SVG Export Plug-In . SVG Version: 6.00 Build 0)  -->
<svg version="1.1" id="图层_1" xmlns="http://www.w3.org/2000/svg" xmlns:xlink="http://www.w3.org/1999/xlink" x="0px" y="0px"
	 viewBox="0 0 1435 822" style="enable-background:new 0 0 1435 822;" xml:space="preserve">
<style type="text/css">
	.st0{fill:none;stroke:#3CD5DE;stroke-width:2;}
	.st1{fill:#3CD5DE;}
</style>
<path class="st0" d="M1105.4,701.3h146"/>
<g>
	<circle class="st1" cx="1105.4" cy="701.3" r="5"/>
</g>
<g>
	<circle class="st1" cx="1251.4" cy="701.3" r="5"/>
</g>
<path class="st0" d="M795.5,701.3h146"/>
<g>
	<circle class="st1" cx="795.5" cy="701.3" r="5"/>
</g>
<g>
	<circle class="st1" cx="941.5" cy="701.3" r="5"/>
</g>
<path class="st0" d="M485.9,87.4h453.8"/>
<g>
	<circle class="st1" cx="485.3" cy="87.4" r="5"/>
</g>
<g>
	<circle class="st1" cx="941.7" cy="87.4" r="5"/>
</g>
<path class="st0" d="M330.5,394.6h146"/>
<g>
	<circle class="st1" cx="330.5" cy="394.6" r="5"/>
</g>
<g>
	<circle class="st1" cx="476.5" cy="394.6" r="5"/>
</g>
<g>
	<circle class="st1" cx="321.8" cy="87.4" r="5"/>
</g>
<g>
	<circle class="st1" cx="249.2" cy="312.7" r="5"/>
</g>
<path class="st0" d="M249.2,312.8v-190c0-19.3,15.7-35,35-35h37.7"/>
<g>
	<circle class="st1" cx="166.7" cy="394.8" r="5"/>
</g>
<g>
	<circle class="st1" cx="94.1" cy="620" r="5"/>
</g>
<path class="st0" d="M94.1,620.3v-190c0-19.3,15.7-35,35-35h37.7"/>
<g>
	<circle class="st1" cx="1106.7" cy="87.4" r="5"/>
</g>
<g>
	<circle class="st1" cx="1179.3" cy="312.7" r="5"/>
</g>
<path class="st0" d="M1179.3,312.8v-190c0-19.3-15.7-35-35-35h-37.7"/>
<g>
	<circle class="st1" cx="1262.2" cy="394.5" r="5"/>
</g>
<g>
	<circle class="st1" cx="1334.8" cy="619.9" r="5"/>
</g>
<path class="st0" d="M1334.8,620V430c0-19.3-15.7-35-35-35h-37.7"/>
<g>
	<circle class="st1" cx="952" cy="394.5" r="5"/>
</g>
<g>
	<circle class="st1" cx="1027.6" cy="619.9" r="5"/>
</g>
<path class="st0" d="M1027.6,620V430c0-19.3-15.7-35-35-35h-37.7"/>
<g>
	<circle class="st1" cx="713.3" cy="619.9" r="5"/>
</g>
<g>
	<circle class="st1" cx="787.9" cy="394.5" r="5"/>
</g>
<path class="st0" d="M713.3,620V430c0-19.3,15.7-35,35-35H786"/>
<g>
	<circle class="st1" cx="557" cy="463.7" r="5"/>
</g>
<g>
	<circle class="st1" cx="631.6" cy="701.3" r="5"/>
</g>
<path class="st0" d="M556.9,464.3v201.6c0,19.3,15.7,35,35,35h37.7"/>
<g>
	<circle class="st1" cx="712.4" cy="770.4" r="5"/>
</g>
<g>
	<circle class="st1" cx="94.1" cy="770.4" r="5"/>
</g>
<path class="st0" d="M93.8,770.1v25.3c0,13.8,11.2,25,25,25h568.4c13.8,0,25-11.2,25-25v-25.3"/>
<path class="st0" d="M403.4,620V429.6c0-19.3,15.7-35,35-35h37.1"/>
<g>
	<circle class="st1" cx="403.6" cy="620" r="5"/>
</g>
<path class="st0" d="M561.4,312.5V122.1c0-19.3-15.7-35-35-35h-37.1"/>
<g>
	<circle class="st1" cx="561.2" cy="312.5" r="5"/>
</g>
</svg>
