<svg width="47" height="52" viewBox="0 0 47 52" fill="none" xmlns="http://www.w3.org/2000/svg">
<path d="M27.8944 27.7192C34.1786 27.7192 39.2729 22.6249 39.2729 16.3407C39.2729 10.0565 34.1786 4.96216 27.8944 4.96216C21.6102 4.96216 16.5158 10.0565 16.5158 16.3407C16.5158 22.6249 21.6102 27.7192 27.8944 27.7192Z" fill="#D4E1EE"/>
<path d="M7.87231 51.7892C7.87231 51.7892 12.3581 33.9556 27.3471 33.9556C42.3361 33.9556 45.3996 51.7892 45.3996 51.7892H7.87231Z" fill="#D4E1EE"/>
<path d="M0.688212 47.6417C0.512467 48.1652 0.794439 48.7322 1.31802 48.9079C1.84159 49.0836 2.4085 48.8017 2.58425 48.2781L0.688212 47.6417ZM44.4239 48.1783C44.5446 48.7172 45.0792 49.0564 45.6182 48.9357C46.1571 48.8151 46.4963 48.2805 46.3757 47.7415L44.4239 48.1783ZM35.1 13.9337C35.1 20.0886 30.1105 25.0781 23.9556 25.0781V27.0781C31.215 27.0781 37.1 21.1932 37.1 13.9337H35.1ZM23.9556 25.0781C17.8007 25.0781 12.8112 20.0886 12.8112 13.9337H10.8112C10.8112 21.1932 16.6961 27.0781 23.9556 27.0781V25.0781ZM12.8112 13.9337C12.8112 7.77885 17.8007 2.78931 23.9556 2.78931V0.789307C16.6961 0.789307 10.8112 6.6743 10.8112 13.9337H12.8112ZM23.9556 2.78931C30.1104 2.78931 35.1 7.77886 35.1 13.9337H37.1C37.1 6.67429 31.215 0.789307 23.9556 0.789307V2.78931ZM1.63623 47.9599C2.58425 48.2781 2.58411 48.2785 2.584 48.2789C2.58398 48.2789 2.58389 48.2792 2.58386 48.2793C2.58381 48.2794 2.58384 48.2793 2.58395 48.279C2.58417 48.2784 2.5847 48.2768 2.58556 48.2743C2.58727 48.2693 2.59028 48.2607 2.59459 48.2485C2.60322 48.2241 2.6171 48.1855 2.63644 48.1336C2.67512 48.0299 2.73559 47.8733 2.81951 47.6714C2.98742 47.2673 3.24879 46.6829 3.61676 45.9781C4.35366 44.5668 5.51237 42.6843 7.19532 40.8041C10.548 37.0586 15.9815 33.3144 24.3933 33.3144V31.3144C15.2997 31.3144 9.35465 35.393 5.70511 39.4702C3.88698 41.5014 2.6387 43.5302 1.84388 45.0524C1.44599 45.8145 1.16031 46.4523 0.972645 46.9039C0.878778 47.1297 0.809324 47.3093 0.762526 47.4347C0.739124 47.4975 0.721377 47.5467 0.709067 47.5815C0.702912 47.5989 0.698114 47.6127 0.694648 47.6228C0.692915 47.6278 0.691514 47.6319 0.690443 47.6351C0.689907 47.6366 0.689453 47.638 0.689082 47.6391C0.688896 47.6396 0.688678 47.6403 0.688586 47.6406C0.688389 47.6411 0.688212 47.6417 1.63623 47.9599ZM24.3933 33.3144C32.7943 33.3144 37.7708 37.0473 40.6738 40.7538C42.1358 42.6204 43.0781 44.4908 43.6541 45.8948C43.9416 46.5957 44.1364 47.1768 44.2583 47.5782C44.3193 47.7788 44.3619 47.9342 44.3886 48.0368C44.402 48.0881 44.4115 48.1261 44.4172 48.15C44.4201 48.162 44.4221 48.1704 44.4232 48.1751C44.4238 48.1775 44.4241 48.179 44.4242 48.1795C44.4243 48.1798 44.4243 48.1798 44.4242 48.1796C44.4242 48.1795 44.4241 48.1791 44.4241 48.1791C44.424 48.1787 44.4239 48.1783 45.3998 47.9599C46.3757 47.7415 46.3755 47.7409 46.3754 47.7403C46.3753 47.74 46.3752 47.7393 46.3751 47.7388C46.3748 47.7376 46.3745 47.7362 46.3741 47.7346C46.3734 47.7313 46.3724 47.7271 46.3712 47.7219C46.3688 47.7116 46.3655 47.6976 46.3612 47.68C46.3527 47.6446 46.3403 47.5949 46.3238 47.5316C46.2907 47.405 46.241 47.2242 46.172 46.997C46.0341 46.5428 45.8186 45.9016 45.5044 45.1357C44.8769 43.6062 43.8498 41.5653 42.2484 39.5205C39.0244 35.4043 33.4977 31.3144 24.3933 31.3144V33.3144Z" fill="#4C5263"/>
</svg>
