<?xml version="1.0" encoding="utf-8"?>
<!-- Generator: Adobe Illustrator 21.0.0, SVG Export Plug-In . SVG Version: 6.00 Build 0)  -->
<svg version="1.1" id="图层_1" xmlns="http://www.w3.org/2000/svg" xmlns:xlink="http://www.w3.org/1999/xlink" x="0px" y="0px"
	 viewBox="0 0 49 63" style="enable-background:new 0 0 49 63;" xml:space="preserve">
<style type="text/css">
	.st0{fill:#EDEDED;}
	.st1{fill:none;stroke:#DDDDDD;stroke-width:2;}
	.st2{fill:#E5E5E5;stroke:#DDDDDD;stroke-width:2;}
</style>
<path class="st0" d="M18,0.7l9,21c7.7-0.7,15.5,3.7,18.5,10.9c2.6,6.2,0.3,13.3-3.7,18.4l-5.7-15.8l-10.2-0.4l-9.1,9.4l6.7,15.4
	C17.1,59,13.7,53.5,11,47.4c-3-7.2-0.7-15.3,5.1-20.4L4.1,6"/>
<path class="st1" d="M17.5,0.9l9,20.6c8.6-0.7,15.9,3.4,19.3,11.4c2.9,6.9,0.4,14.8-4.1,20.5l-6.4-17.7l-11.4-0.4l-7.5,8.5L23.9,61
	c-7.1-0.7-13.6-4.9-16.6-11.7c-3.4-8-0.8-17,5.7-22.8L1.3,7"/>
<path class="st2" d="M31,52.7l-7-0.9l-2.7-6.6l4.3-5.6l7,0.9l2.7,6.6L31,52.7z"/>
</svg>
