<?xml version="1.0" encoding="utf-8"?>
<!-- Generator: Adobe Illustrator 21.0.0, SVG Export Plug-In . SVG Version: 6.00 Build 0)  -->
<svg version="1.1" id="图层_1" xmlns="http://www.w3.org/2000/svg" xmlns:xlink="http://www.w3.org/1999/xlink" x="0px" y="0px"
	 viewBox="0 0 76 62" style="enable-background:new 0 0 76 62;" xml:space="preserve">
<style type="text/css">
	.st0{opacity:0.75;fill:#E5E5E5;enable-background:new    ;}
	.st1{fill:#AAAAAA;}
	.st2{fill:#E5E5E5;}
	.st3{fill:none;stroke:#B2B2B2;stroke-miterlimit:10;}
	.st4{fill:none;stroke:#A0A0A0;}
</style>
<path class="st0" d="M69.7,46.5c-2.8-3.4-27.3-7.7-27.3-7.7l-4.8,3.9l-4.8-3.9c0,0-24.7,4.3-27.3,7.7c-2.8,3.4-2.2,12.6-2.2,12.6
	h34.3h34.3C71.9,59.1,72.5,49.7,69.7,46.5z"/>
<path class="st1" d="M43.1,38.4c18.8,3.3,27.5,6.3,28.5,7.5c1.9,2.2,2.2,7.2,2,10H37.6H1.5c-0.1-2.8,0.2-7.8,2-10
	c1.1-1.2,9.6-4.3,28.5-7.5l4.8,3.7l0.7,0.6l0.7-0.6L43.1,38.4z M42.8,37.1l-5.2,4.1l-5.2-4.1c0,0-26.7,4.5-29.7,7.9
	c-3,3.5-2.3,11.9-2.3,11.9h37.2h37.2c0,0,0.6-8.4-2.3-11.9C69.5,41.5,42.8,37.1,42.8,37.1z"/>
<path class="st1" d="M22.8,38.8h-4c-0.5,0-1,0.5-1,1v9h5.9v-9C23.7,39.2,23.2,38.8,22.8,38.8z"/>
<path class="st1" d="M57.6,48.8v-9c0-0.5-0.5-1-1-1h-4c-0.5,0-1,0.5-1,1v9H23.6h-5.9h-4.5v8.3h48.6v-8.3H57.6z"/>
<path class="st2" d="M22.8,48.3h-4v0.8h4V48.3z"/>
<path class="st2" d="M56.6,48.3h-4v0.8h4V48.3z"/>
<path class="st0" d="M52.7,17.2c0-1.1,0.7-2.3-0.2-2.3L51,14.6C50.3,9.1,47.6,5.6,42.7,4c-0.8-1.6-2.2-2-4.3-2c-2,0-3.4,0.5-4.2,2
	c-4.9,1.7-8.7,6.1-9.5,11.6H24c-1,0-1.8,0.8-1.8,1.9"/>
<path class="st3" d="M48.4,17.4c0.7,1.4,1.1,3.1,1.1,4.8c0,6.6-5.3,11.9-11.9,11.9c-6.6,0-11.9-5.3-11.9-11.9c0-1.7,0.4-3.3,1-4.7"
	/>
<path class="st1" d="M37.6,1.3c2.2,0,2.9,0.5,3.4,1.4l0.2,0.5l0.5,0.1C46.4,4.9,49.9,9,50.6,14l0.1,1.1h1.7c0.4,0,0.7,0.4,0.7,0.7
	v0.5c0,0.4-0.4,0.7-0.7,0.7H22.8c-0.4,0-0.7-0.4-0.7-0.7v-0.5c0-0.4,0.4-0.7,0.7-0.7h1.7l0.1-1.1c0.7-4.9,4.2-9,9-10.6l0.5-0.1
	l0.2-0.5C34.8,1.9,35.4,1.3,37.6,1.3z M37.6,0.1c-2.2,0-3.5,0.5-4.3,2c-5.2,1.7-9,6.1-9.9,11.6h-0.6c-1.1,0-1.9,0.8-1.9,1.9v0.5
	c0,1.1,0.8,1.9,1.9,1.9h29.6c1.1,0,1.9-0.8,1.9-1.9v-0.5c0-1.1-0.8-1.9-1.9-1.9h-0.6C50.9,8.3,47.1,3.8,42,2.2
	C41.2,0.6,39.9,0.1,37.6,0.1z"/>
<path class="st1" d="M25.7,14.6c8.5,1.9,16.6,1.9,24,0H25.7z"/>
<path class="st1" d="M30.7,6.7h2.9c0.2,0,0.5,0.2,0.5,0.5c0,0.2-0.2,0.5-0.5,0.5h-1.8c-0.2,0-0.5,0.2-0.5,0.5v0.7
	c0,0.2,0.2,0.5,0.5,0.5h1.7c0.2,0,0.5,0.2,0.5,0.5c0,0.2-0.2,0.5-0.5,0.5h-1.7c-0.2,0-0.5,0.2-0.5,0.5v1.6c0,0.2-0.2,0.5-0.5,0.5
	h-0.1c-0.2,0-0.5-0.2-0.5-0.5V7.5C30.3,7,30.5,6.7,30.7,6.7z"/>
<path class="st1" d="M35.4,6.7h1c0.1,0,0.2,0.1,0.4,0.2l1.4,3.9L39.6,7c0-0.1,0.1-0.2,0.4-0.2h1.1c0.2,0,0.4,0.1,0.4,0.4v5.1
	c0,0.2-0.1,0.4-0.4,0.4h-0.4c-0.2,0-0.4-0.1-0.4-0.4V7.8l-1.7,4.5c0,0.1-0.1,0.2-0.4,0.2h-0.2c-0.1,0-0.2-0.1-0.4-0.2L36,7.8v4.3
	c0,0.2-0.1,0.4-0.4,0.4h-0.2c-0.2,0-0.4-0.1-0.4-0.4V7.1C35.2,6.8,35.3,6.7,35.4,6.7z"/>
<path class="st1" d="M45.6,7.9c-0.1,0.1-0.3,0.1-0.4,0c-0.1,0-0.1-0.1-0.2-0.1c-0.2-0.1-0.4-0.1-0.6-0.1c-0.1,0-0.2,0-0.4,0
	c-0.1,0-0.2,0.1-0.3,0.1c-0.1,0-0.2,0.1-0.2,0.2c0,0.1-0.1,0.2-0.1,0.4s0,0.2,0.1,0.3c0,0.1,0.1,0.2,0.2,0.2c0.1,0,0.2,0.1,0.4,0.2
	c0.1,0,0.3,0.1,0.4,0.1c0.2,0,0.4,0.1,0.5,0.2c0.2,0.1,0.4,0.2,0.5,0.3c0.2,0.1,0.3,0.3,0.4,0.4c0.1,0.2,0.1,0.4,0.1,0.7
	c0,0.3,0,0.6-0.2,0.8c-0.1,0.2-0.3,0.4-0.4,0.5c-0.2,0.1-0.4,0.3-0.6,0.3c-0.3,0.1-0.5,0.1-0.7,0.1c-0.4,0-0.7-0.1-1.1-0.2
	c-0.2-0.1-0.4-0.2-0.6-0.4c-0.1-0.1-0.1-0.4,0-0.5l0.2-0.2c0.1-0.1,0.3-0.1,0.4,0c0.1,0.1,0.2,0.2,0.4,0.2c0.2,0.1,0.4,0.2,0.7,0.2
	c0.1,0,0.2,0,0.4,0c0.1,0,0.2-0.1,0.3-0.1c0.1-0.1,0.2-0.1,0.2-0.3c0-0.1,0.1-0.2,0.1-0.4c0-0.1,0-0.3-0.1-0.4
	c-0.1-0.1-0.2-0.2-0.3-0.3c-0.1-0.1-0.3-0.1-0.4-0.2c-0.2,0-0.3-0.1-0.5-0.2c-0.2,0-0.4-0.1-0.5-0.2c-0.2-0.1-0.3-0.2-0.4-0.3
	c-0.1-0.1-0.2-0.3-0.3-0.4c-0.1-0.2-0.1-0.4-0.1-0.7c0-0.3,0-0.5,0.2-0.7c0.1-0.2,0.3-0.4,0.4-0.5c0.2-0.1,0.4-0.2,0.7-0.3
	c0.2,0,0.5-0.1,0.7-0.1s0.6,0,0.8,0.1c0.2,0,0.3,0.1,0.4,0.2c0.2,0.1,0.2,0.4,0,0.5L45.6,7.9z"/>
<path class="st0" d="M44.8,55.8l7.4-13.2c-3-3.1-3.7-7.2-1.6-11c1.7-3.3,5.6-4.8,9.2-4.8l-4.8,8l3.4,4.5l5.6,0.2l4.3-8.2
	c2,3,2.4,6.8,0.7,10c-2,3.8-6.3,5.6-10.5,4.9l-3.8,9.6"/>
<path class="st4" d="M44.8,55.8l7.4-13.2c-3-3.1-3.7-7.2-1.6-11c1.7-3.3,5.6-4.8,9.2-4.8l-4.8,8l3.4,4.5l5.6,0.2l4.3-8.2
	c2,3,2.4,6.8,0.7,10c-2,3.8-6.3,5.6-10.5,4.9l-3.8,9.6"/>
</svg>
