<svg width="76" height="62" viewBox="0 0 76 62" fill="none" xmlns="http://www.w3.org/2000/svg">
<path opacity="0.75" d="M69.7222 46.4641C66.9528 43.0927 42.3896 38.7581 42.3896 38.7581L37.5733 42.6111L32.757 38.7581C32.757 38.7581 8.0734 43.0927 5.42442 46.4641C2.65504 49.8355 3.25706 59.1069 3.25706 59.1069H37.5733H71.8895C71.8895 59.1069 72.4916 49.7151 69.7222 46.4641Z" fill="#D4E1EE"/>
<path d="M43.124 38.3968C61.9076 41.6478 70.577 44.6579 71.6607 45.862C73.5872 48.0294 73.828 53.0866 73.7076 55.8559H37.5852H1.46288C1.34247 53.0866 1.70371 48.0294 3.50983 45.862C4.5935 44.6579 13.1424 41.5274 32.0465 38.3968L36.8628 42.1294L37.5852 42.7315L38.3077 42.1294L43.124 38.3968ZM42.7628 37.0723L37.5852 41.1662L32.4077 37.0723C32.4077 37.0723 5.67715 41.5274 2.66696 45.0192C-0.343239 48.5111 0.379216 56.9396 0.379216 56.9396H37.5852H74.7913C74.7913 56.9396 75.3933 48.5111 72.5035 45.0192C69.4933 41.5274 42.7628 37.0723 42.7628 37.0723Z" fill="#4C5263"/>
<path d="M22.763 38.7581H18.7895C18.3079 38.7581 17.8263 39.2397 17.8263 39.7213V48.7519H23.7263V39.7213C23.7263 39.2397 23.2447 38.7581 22.763 38.7581Z" fill="#4C5263"/>
<path d="M57.5609 48.7519V39.7213C57.5609 39.2397 57.0793 38.7581 56.5977 38.7581H52.6242C52.1426 38.7581 51.661 39.2397 51.661 39.7213V48.7519H23.6059H17.7059H13.2509V57.0601H61.8956V48.7519H57.5609Z" fill="#4C5263"/>
<path d="M22.7632 48.27H18.7897V49.1129H22.7632V48.27Z" fill="#E5E5E5"/>
<path d="M56.5975 48.27H52.624V49.1129H56.5975V48.27Z" fill="#E5E5E5"/>
<path opacity="0.75" d="M52.6748 17.2054C52.6748 16.1217 53.3973 14.9177 52.4341 14.9177L50.9891 14.5564C50.2667 9.13805 47.6177 5.64623 42.681 3.96052C41.8382 2.39522 40.5137 1.91357 38.3463 1.91357C36.2994 1.91357 34.9749 2.39522 34.132 3.96052C29.1953 5.64623 25.4627 10.1014 24.6198 15.5197H24.0178C23.0545 15.5197 22.2117 16.3625 22.2117 17.4462" fill="#D4E1EE"/>
<path d="M48.41 17.446C49.1325 18.8909 49.4937 20.5766 49.4937 22.2624C49.4937 28.8848 44.1958 34.1828 37.5733 34.1828C30.9509 34.1828 25.653 28.8848 25.653 22.2624C25.653 20.5766 26.0142 19.0113 26.6162 17.5664" stroke="#4C5263" stroke-miterlimit="10"/>
<path d="M37.5731 1.31101C39.7405 1.31101 40.4629 1.79266 40.9446 2.75592L41.1853 3.23758L41.667 3.35796C46.3629 4.92326 49.8547 9.01712 50.5772 13.9538L50.6976 15.0375H52.3833C52.7445 15.0375 53.1057 15.3987 53.1057 15.76V16.2416C53.1057 16.6028 52.7445 16.964 52.3833 16.964H22.763C22.4017 16.964 22.0405 16.6028 22.0405 16.2416V15.76C22.0405 15.3987 22.4017 15.0375 22.763 15.0375H24.4487L24.5691 13.9538C25.2915 9.01712 28.7834 4.92326 33.5997 3.35796L34.0813 3.23758L34.3221 2.75592C34.8038 1.91307 35.4058 1.31101 37.5731 1.31101ZM37.5731 0.106934C35.4058 0.106934 34.0813 0.58858 33.2384 2.15388C28.0609 3.83959 24.2079 8.29473 23.365 13.7131H22.763C21.6793 13.7131 20.8364 14.5559 20.8364 15.6396V16.1212C20.8364 17.2049 21.6793 18.0477 22.763 18.0477H52.3833C53.467 18.0477 54.3098 17.2049 54.3098 16.1212V15.6396C54.3098 14.5559 53.467 13.7131 52.3833 13.7131H51.7813C50.9384 8.29473 47.0853 3.83959 42.0282 2.15388C41.1854 0.58858 39.8609 0.106934 37.5731 0.106934Z" fill="#4C5263"/>
<path d="M25.6528 14.5559C34.2017 16.4824 42.269 16.4824 49.6139 14.5559H25.6528Z" fill="#4C5263"/>
<path d="M30.7099 6.7295H33.5997C33.8405 6.7295 34.0813 6.97035 34.0813 7.21116C34.0813 7.45198 33.8405 7.69282 33.5997 7.69282H31.7936C31.5528 7.69282 31.312 7.93359 31.312 8.17441V8.8969C31.312 9.13772 31.5528 9.37849 31.7936 9.37849H33.4793C33.7201 9.37849 33.9609 9.61933 33.9609 9.86015C33.9609 10.101 33.7201 10.3417 33.4793 10.3417H31.7936C31.5528 10.3417 31.312 10.5826 31.312 10.8234V12.3887C31.312 12.6295 31.0711 12.8703 30.8303 12.8703H30.7099C30.4691 12.8703 30.2283 12.6295 30.2283 12.3887V7.45199C30.3487 6.97036 30.4691 6.7295 30.7099 6.7295Z" fill="#4C5263"/>
<path d="M35.4058 6.72949H36.3691C36.4895 6.72949 36.6099 6.84991 36.7303 6.97032L38.1752 10.8234L39.6201 6.97032C39.6201 6.84991 39.7405 6.72949 39.9813 6.72949H41.065C41.3058 6.72949 41.4262 6.84996 41.4262 7.09077V12.1478C41.4262 12.3887 41.3058 12.5091 41.065 12.5091H40.7038C40.463 12.5091 40.3426 12.3887 40.3426 12.1478V7.81319L38.6568 12.2683C38.6568 12.3887 38.5364 12.5091 38.2956 12.5091H38.0548C37.9344 12.5091 37.814 12.3887 37.6936 12.2683L36.0079 7.81319V12.1478C36.0079 12.3887 35.8875 12.5091 35.6466 12.5091H35.4058C35.165 12.5091 35.0446 12.3887 35.0446 12.1478V7.09077C35.165 6.84996 35.2854 6.72949 35.4058 6.72949Z" fill="#4C5263"/>
<path d="M45.5969 7.86791C45.4656 7.99926 45.2904 7.99925 45.1591 7.91168C45.0715 7.8679 45.0277 7.82412 44.9401 7.78033C44.765 7.69276 44.5461 7.64898 44.3709 7.64898C44.2396 7.64898 44.152 7.64897 44.0207 7.69275C43.8893 7.73654 43.8017 7.78035 43.7142 7.82413C43.6266 7.86792 43.539 7.95549 43.4952 8.04306C43.4514 8.13063 43.4076 8.26198 43.4076 8.39334C43.4076 8.5247 43.4514 8.61227 43.4952 8.69984C43.539 8.78741 43.6266 8.87499 43.7142 8.91877C43.8017 8.96256 43.9331 9.05011 44.0644 9.0939C44.1958 9.13768 44.3271 9.18146 44.5023 9.22525C44.6774 9.26903 44.8526 9.35662 45.0277 9.4004C45.2029 9.48797 45.378 9.57555 45.5532 9.70691C45.7283 9.83826 45.8597 9.96962 45.9472 10.1448C46.0348 10.3199 46.0786 10.5388 46.0786 10.8015C46.0786 11.108 46.0348 11.3708 45.9034 11.5897C45.8159 11.8086 45.6407 11.9838 45.4656 12.1151C45.2904 12.2465 45.0715 12.3778 44.8526 12.4216C44.5899 12.5092 44.3709 12.5092 44.1082 12.5092C43.7579 12.5092 43.4077 12.4216 43.0574 12.2902C42.8384 12.2027 42.6633 12.1151 42.4882 11.94C42.3568 11.8086 42.3568 11.5897 42.4882 11.4583L42.7071 11.2832C42.8384 11.1518 43.0136 11.1518 43.1449 11.2832C43.2325 11.3707 43.3639 11.4583 43.4952 11.5021C43.7142 11.5897 43.9331 11.6773 44.152 11.6773C44.2834 11.6773 44.3709 11.6772 44.5023 11.6335C44.6336 11.5897 44.7212 11.5459 44.8088 11.5021C44.8964 11.4145 44.9839 11.3708 45.0277 11.2394C45.0715 11.1518 45.1153 11.0205 45.1153 10.8453C45.1153 10.714 45.0715 10.5826 45.0277 10.495C44.9401 10.4075 44.8526 10.3199 44.765 10.2323C44.6337 10.1448 44.5023 10.101 44.3709 10.0572C44.1958 10.0134 44.0644 9.9696 43.8893 9.88203C43.7142 9.83825 43.539 9.75069 43.4076 9.70691C43.2325 9.61934 43.1011 9.53176 42.9698 9.4004C42.8384 9.26905 42.7509 9.13769 42.6633 8.96255C42.5757 8.7874 42.5319 8.56848 42.5319 8.30576C42.5319 8.04305 42.5757 7.78035 42.7071 7.6052C42.8384 7.38628 42.9698 7.2549 43.1449 7.12355C43.3201 6.99219 43.539 6.90461 43.8017 6.81704C44.0207 6.77326 44.2834 6.72949 44.5461 6.72949C44.8088 6.72949 45.1153 6.77327 45.378 6.86084C45.5531 6.90463 45.6845 6.9922 45.8159 7.07977C45.991 7.16734 45.991 7.43005 45.8597 7.5614L45.5969 7.86791Z" fill="#4C5263"/>
<path d="M44.8127 55.8192L52.241 42.5973C49.2644 39.5191 48.5759 35.4412 50.6077 31.6284C52.348 28.3724 56.1934 26.8488 59.7696 26.822L54.9688 34.7917L58.3655 39.2998L63.9814 39.529L68.2477 31.2982C70.2176 34.2586 70.6337 38.0669 68.9363 41.3269C66.9046 45.1398 62.637 46.9633 58.416 46.2571L54.6627 55.8949" fill="#DFE8F2"/>
<path d="M44.8127 55.8192L52.241 42.5973C49.2644 39.5191 48.5759 35.4412 50.6077 31.6284C52.348 28.3724 56.1934 26.8488 59.7696 26.822L54.9688 34.7917L58.3655 39.2998L63.9814 39.529L68.2477 31.2982C70.2176 34.2586 70.6337 38.0669 68.9363 41.3269C66.9046 45.1398 62.637 46.9633 58.416 46.2571L54.6627 55.8949" stroke="#4C5263"/>
</svg>
