<?xml version="1.0" encoding="utf-8"?>
<!-- Generator: Adobe Illustrator 21.0.0, SVG Export Plug-In . SVG Version: 6.00 Build 0)  -->
<svg version="1.1" id="图层_1" xmlns="http://www.w3.org/2000/svg" xmlns:xlink="http://www.w3.org/1999/xlink" x="0px" y="0px"
	 viewBox="0 0 76 55" style="enable-background:new 0 0 76 55;" xml:space="preserve">
<style type="text/css">
    .st0{fill:#EDEDED;}
	.st1{fill:#DDDDDD;}
</style>
<path class="st0" d="M38.6,38.9H5.7c-1.2,0-2.1-0.9-2.1-2.1V22.6c0-1.2,0.9-2.1,2.1-2.1h33c1.2,0,2.1,0.9,2.1,2.1v14.2
	C40.7,37.9,39.8,38.9,38.6,38.9z"/>
<path class="st0" d="M54,47.5v-3.7l6-17.3h11.3v21"/>
<path class="st1" d="M69.5,48.2c-1.7,0-3.1,1.4-3.1,3.1c0,1.7,1.4,3.1,3.1,3.1c1.7,0,3.1-1.4,3.1-3.1C72.6,49.6,71.2,48.2,69.5,48.2
	z M68.4,51.3c0-0.6,0.5-1.1,1.1-1.1c0.6,0,1.1,0.5,1.1,1.1c0,0.6-0.5,1.1-1.1,1.1C68.9,52.4,68.4,51.9,68.4,51.3z"/>
<path class="st1" d="M57.5,48.2c-1.7,0-3.1,1.4-3.1,3.1c0,1.7,1.4,3.1,3.1,3.1c1.7,0,3.1-1.4,3.1-3.1C60.6,49.6,59.2,48.2,57.5,48.2
	z M56.3,51.3c0-0.6,0.5-1.1,1.1-1.1s1.1,0.5,1.1,1.1s-0.5,1.1-1.1,1.1S56.3,51.9,56.3,51.3z"/>
<path class="st1" d="M74.8,46.7c0.6,0,1-0.4,1-1s-0.4-1-1-1V46.7z M52.3,45.7h-1l1,1V45.7z M52.3,42l-0.9-0.3L51.3,42H52.3z
	 M58.3,24.8v-1l-0.9,0.7L58.3,24.8z M69.5,24.8h1l-1-1V24.8z M68.5,45.7c0,0.6,0.4,1,1,1s1-0.4,1-1H68.5z M38.2,34.3l1,0.1l0-0.1
	H38.2z M50.2,33.2c-0.2,0.5,0.1,1.1,0.6,1.3c0.5,0.2,1.1-0.1,1.3-0.6L50.2,33.2z M55.3,24.5c0.2-0.5-0.1-1.1-0.6-1.3
	c-0.5-0.2-1.1,0.1-1.3,0.6L55.3,24.5z M18.6,12.5c0,0.6,0.4,1,1,1s1-0.4,1-1H18.6z M19.6,1.6l0.5-0.8c-0.3-0.2-0.7-0.2-1,0
	c-0.3,0.2-0.5,0.5-0.5,0.9H19.6z M53.5,24.9c0.5,0.3,1.1,0.2,1.4-0.3c0.3-0.5,0.2-1.1-0.3-1.4L53.5,24.9z M74.8,44.7H52.3v2h22.5
	V44.7z M53.3,45.7V42h-2v3.7H53.3z M53.2,42.3l6-17.2l-1.9-0.7l-6,17.2L53.2,42.3z M58.3,25.8h11.2v-2H58.3V25.8z M68.5,24.8v20.9h2
	V24.8H68.5z M36,35.4H3.2v2H36V35.4z M3.2,35.4C2.5,35.4,2,35,2,34.3H0c0,1.8,1.4,3.1,3.1,3.1V35.4z M2,34.3V20.2H0v14.2H2z M2,20.2
	C2,19.5,2.5,19,3.2,19v-2C1.4,17,0,18.4,0,20.2H2z M3.2,19h33v-2h-33V19z M36.1,19c0.7,0,1.1,0.5,1.1,1.1h2c0-1.8-1.4-3.1-3.1-3.1
	V19z M37.2,20.2v14.2h2V20.2H37.2z M37.3,34.2c-0.1,0.7-0.6,1.2-1.2,1.2v2c1.8,0,3.1-1.4,3.2-3L37.3,34.2z M52.1,33.8l3.1-9.3
	l-1.9-0.6l-3.1,9.3L52.1,33.8z M20.6,12.5V1.6h-2v10.8H20.6z M19.1,2.5l34.4,22.5l1.1-1.7L20.2,0.8L19.1,2.5z"/>
<path class="st1" d="M9.2,22.9c0-0.3,0.2-0.5,0.5-0.5c0.3,0,0.5,0.2,0.5,0.5v8.6c0,0.3-0.2,0.5-0.5,0.5c-0.3,0-0.5-0.2-0.5-0.5V22.9
	z"/>
<path class="st1" d="M15.8,22.9c0-0.3,0.2-0.5,0.5-0.5c0.3,0,0.5,0.2,0.5,0.5v8.6c0,0.3-0.2,0.5-0.5,0.5c-0.3,0-0.5-0.2-0.5-0.5
	V22.9z"/>
<path class="st1" d="M22.4,22.9c0-0.3,0.2-0.5,0.5-0.5c0.3,0,0.5,0.2,0.5,0.5v8.6c0,0.3-0.2,0.5-0.5,0.5c-0.3,0-0.5-0.2-0.5-0.5
	V22.9z"/>
<path class="st1" d="M29,22.9c0-0.3,0.2-0.5,0.5-0.5s0.5,0.2,0.5,0.5v8.6c0,0.3-0.2,0.5-0.5,0.5S29,31.8,29,31.5V22.9z"/>
<path class="st1" d="M23,15.6h-6.7c-0.4,0-0.8-0.4-0.8-0.8c0-0.4,0.4-0.8,0.8-0.8H23c0.4,0,0.8,0.4,0.8,0.8
	C23.8,15.3,23.4,15.6,23,15.6z"/>
</svg>
