<svg width="76" height="55" viewBox="0 0 76 55" fill="none" xmlns="http://www.w3.org/2000/svg">
<path d="M38.5505 38.8622H5.68147C4.46784 38.8622 3.55762 37.952 3.55762 36.7384V22.5794C3.55762 21.3658 4.46784 20.4556 5.68147 20.4556H38.6516C39.8652 20.4556 40.7754 21.3658 40.7754 22.5794V36.7384C40.6743 37.8509 39.7641 38.8622 38.5505 38.8622Z" fill="#D4E1EE"/>
<path d="M54.0243 47.4587V43.7167L59.9913 26.4225H71.3184V47.4587" fill="#D4E1EE"/>
<path fill-rule="evenodd" clip-rule="evenodd" d="M69.4977 48.1782C67.7725 48.1782 66.3739 49.5768 66.3739 51.3021C66.3739 53.0273 67.7725 54.4259 69.4977 54.4259C71.223 54.4259 72.6216 53.0273 72.6216 51.3021C72.6216 49.5768 71.223 48.1782 69.4977 48.1782ZM68.3739 51.3021C68.3739 50.6814 68.8771 50.1782 69.4977 50.1782C70.1184 50.1782 70.6216 50.6814 70.6216 51.3021C70.6216 51.9227 70.1184 52.4259 69.4977 52.4259C68.8771 52.4259 68.3739 51.9228 68.3739 51.3021Z" fill="#4C5263"/>
<path fill-rule="evenodd" clip-rule="evenodd" d="M57.4627 48.1784C55.7375 48.1784 54.3389 49.577 54.3389 51.3022C54.3389 53.0275 55.7375 54.4261 57.4627 54.4261C59.188 54.4261 60.5866 53.0275 60.5866 51.3022C60.5866 49.577 59.188 48.1784 57.4627 48.1784ZM56.3389 51.3022C56.3389 50.6815 56.842 50.1784 57.4627 50.1784C58.0834 50.1784 58.5866 50.6815 58.5866 51.3022C58.5866 51.9229 58.0834 52.4261 57.4627 52.4261C56.842 52.4261 56.3389 51.9229 56.3389 51.3022Z" fill="#4C5263"/>
<path d="M74.7569 46.7394C75.3092 46.7394 75.7569 46.2917 75.7569 45.7394C75.7569 45.1871 75.3092 44.7394 74.7569 44.7394V46.7394ZM52.3048 45.7394H51.3048L52.3048 46.7394V45.7394ZM52.3048 41.9974L51.3601 41.6695L51.3048 41.9974H52.3048ZM58.2718 24.8044V23.8044L57.3271 24.4765L58.2718 24.8044ZM69.4978 24.8044H70.4978L69.4978 23.8044V24.8044ZM68.4978 45.7394C68.4978 46.2917 68.9455 46.7394 69.4978 46.7394C70.0501 46.7394 70.4978 46.2917 70.4978 45.7394H68.4978ZM38.2471 34.3112L39.2437 34.3942L39.2471 34.3112H38.2471ZM50.2449 33.1829C50.0686 33.7063 50.3499 34.2736 50.8733 34.4499C51.3966 34.6263 51.9639 34.345 52.1402 33.8216L50.2449 33.1829ZM55.2754 24.5171C55.4518 23.9938 55.1705 23.4265 54.6471 23.2502C54.1237 23.0738 53.5565 23.3551 53.3801 23.8785L55.2754 24.5171ZM18.6383 12.466C18.6383 13.0183 19.086 13.466 19.6383 13.466C20.1906 13.466 20.6383 13.0183 20.6383 12.466H18.6383ZM19.6383 1.64453L20.185 0.807215C19.8777 0.606525 19.4851 0.590368 19.1622 0.765123C18.8394 0.939878 18.6383 1.27745 18.6383 1.64453H19.6383ZM53.4776 24.9339C53.9401 25.2359 54.5597 25.1057 54.8617 24.6433C55.1636 24.1809 55.0335 23.5612 54.5711 23.2593L53.4776 24.9339ZM74.7569 44.7394H52.3048V46.7394H74.7569V44.7394ZM53.3048 45.7394V41.9974H51.3048V45.7394H53.3048ZM53.2495 42.3253L59.2165 25.1323L57.3271 24.4765L51.3601 41.6695L53.2495 42.3253ZM58.2718 25.8044H69.4978V23.8044H58.2718V25.8044ZM68.4978 24.8044V45.7394H70.4978V24.8044H68.4978ZM36.0221 35.435H3.15315V37.435H36.0221V35.435ZM3.15315 35.435C2.4918 35.435 2.0293 34.9725 2.0293 34.3112H0.0292969C0.0292969 36.0771 1.38724 37.435 3.15315 37.435V35.435ZM2.0293 34.3112V20.1522H0.0292969V34.3112H2.0293ZM2.0293 20.1522C2.0293 19.4909 2.4918 19.0284 3.15315 19.0284V17.0284C1.38724 17.0284 0.0292969 18.3863 0.0292969 20.1522H2.0293ZM3.15315 19.0284H36.1233V17.0284H3.15315V19.0284ZM36.1233 19.0284C36.7846 19.0284 37.2471 19.4909 37.2471 20.1522H39.2471C39.2471 18.3863 37.8892 17.0284 36.1233 17.0284V19.0284ZM37.2471 20.1522V34.3112H39.2471V20.1522H37.2471ZM37.2506 34.2281C37.1888 34.9695 36.6707 35.435 36.0221 35.435V37.435C37.8009 37.435 39.1032 36.08 39.2437 34.3942L37.2506 34.2281ZM52.1402 33.8216L55.2754 24.5171L53.3801 23.8785L50.2449 33.1829L52.1402 33.8216ZM20.6383 12.466V1.64453H18.6383V12.466H20.6383ZM19.0916 2.48185L53.4776 24.9339L54.5711 23.2593L20.185 0.807215L19.0916 2.48185Z" fill="#4C5263"/>
<path d="M9.23828 22.9415C9.23828 22.6509 9.47387 22.4153 9.76447 22.4153C10.0551 22.4153 10.2907 22.6509 10.2907 22.9415V31.5225C10.2907 31.8131 10.0551 32.0487 9.76447 32.0487C9.47387 32.0487 9.23828 31.8131 9.23828 31.5225V22.9415Z" fill="#4C5263"/>
<path d="M15.8207 22.9414C15.8207 22.6507 16.0563 22.4152 16.3469 22.4152C16.6375 22.4152 16.8731 22.6507 16.8731 22.9414V31.5223C16.8731 31.8129 16.6375 32.0485 16.3469 32.0485C16.0563 32.0485 15.8207 31.8129 15.8207 31.5223V22.9414Z" fill="#4C5263"/>
<path d="M22.403 22.9414C22.403 22.6507 22.6385 22.4152 22.9292 22.4152C23.2198 22.4152 23.4553 22.6507 23.4553 22.9414V31.5223C23.4553 31.8129 23.2198 32.0485 22.9292 32.0485C22.6385 32.0485 22.403 31.8129 22.403 31.5223V22.9414Z" fill="#4C5263"/>
<path d="M28.9854 22.9414C28.9854 22.6507 29.221 22.4152 29.5116 22.4152C29.8022 22.4152 30.0378 22.6507 30.0378 22.9414V31.5223C30.0378 31.8129 29.8022 32.0485 29.5116 32.0485C29.221 32.0485 28.9854 31.8129 28.9854 31.5223V22.9414Z" fill="#4C5263"/>
<path d="M22.9755 15.6013H16.3005C15.896 15.6013 15.4915 15.1968 15.4915 14.7922C15.4915 14.3877 15.896 13.9832 16.3005 13.9832H22.9755C23.38 13.9832 23.7846 14.3877 23.7846 14.7922C23.7846 15.2979 23.38 15.6013 22.9755 15.6013Z" fill="#4C5263"/>
</svg>
