<?xml version="1.0" encoding="utf-8"?>
<!-- Generator: Adobe Illustrator 21.0.0, SVG Export Plug-In . SVG Version: 6.00 Build 0)  -->
<svg version="1.1" id="图层_1" xmlns="http://www.w3.org/2000/svg" xmlns:xlink="http://www.w3.org/1999/xlink" x="0px" y="0px"
	 viewBox="0 0 67 44" style="enable-background:new 0 0 67 44;" xml:space="preserve">
<style type="text/css">
	.st0{fill:#EDEDED;}
	.st1{fill:#DDDDDD;}
	.st2{fill:none;stroke:#DDDDDD;stroke-width:2;stroke-linecap:round;stroke-linejoin:round;stroke-miterlimit:10;}
	.st3{fill:#EDEDED;}
</style>
<path class="st0" d="M52.8,21.9H37.5c-1,0-1.8-0.8-1.8-1.8v-6.4c0-1,0.8-1.8,1.8-1.8h15.3c1,0,1.8,0.8,1.8,1.8v6.4
	C54.6,21.1,53.8,21.9,52.8,21.9z"/>
<path class="st1" d="M45.2,5.8h-0.4v0.4h0.4V5.8z M45.2,7.4l0.2-0.3L45.2,7L45,7.1L45.2,7.4z M36.5,23.8h-0.4v0.4h0.4V23.8z
	 M53.4,23.8v0.4h0.4v-0.4H53.4z M38.3,15.6v6.2h0.8v-6.2H38.3z M42.7,15.6v6.2h0.8v-6.2H42.7z M47,15.6v6.2h0.8v-6.2H47z M51.2,15.6
	v6.2H52v-6.2H51.2z M40.4,16.7v3.4h0.8v-3.4H40.4z M44.8,16.7v3.4h0.8v-3.4H44.8z M49.1,16.7v3.4h0.8v-3.4H49.1z M44.8,4.7v1.1h0.8
	V4.7H44.8z M45.2,6.3c0.6,0,1.1,0.5,1.1,1.1h0.8c0-1.1-0.9-1.9-1.9-1.9V6.3z M46.3,7.4c0,0.6-0.5,1.1-1.1,1.1v0.8
	c1.1,0,1.9-0.9,1.9-1.9H46.3z M45.2,8.5c-0.6,0-1.1-0.5-1.1-1.1h-0.8c0,1.1,0.9,1.9,1.9,1.9V8.5z M46.4,4.5H44v0.8h2.4V4.5z M44,4.5
	C44,4.5,44,4.5,44,4.5C44,4.5,44.1,4.5,44,4.5C44.1,4.5,44.1,4.5,44,4.5C44.1,4.5,44.1,4.5,44,4.5C44.1,4.5,44.1,4.5,44,4.5
	C44.1,4.5,44.1,4.6,44,4.5l-0.7,0.1c0,0.2,0.1,0.4,0.2,0.5c0.1,0.1,0.3,0.2,0.5,0.2V4.5z M44.1,4.6V4.4h-0.8v0.2H44.1z M44.1,4.4
	C44.1,4.4,44.1,4.5,44.1,4.4C44.1,4.5,44.1,4.5,44.1,4.4C44.1,4.5,44.1,4.5,44.1,4.4C44.1,4.5,44.1,4.5,44.1,4.4
	C44.1,4.5,44,4.5,44.1,4.4C44,4.5,44,4.5,44.1,4.4L44,3.7c-0.2,0-0.4,0.1-0.5,0.2c-0.1,0.1-0.2,0.3-0.2,0.5H44.1z M44,4.5h2.4V3.7
	H44V4.5z M46.4,4.5C46.3,4.5,46.3,4.5,46.4,4.5C46.3,4.5,46.3,4.5,46.4,4.5C46.3,4.5,46.3,4.5,46.4,4.5C46.3,4.5,46.3,4.5,46.4,4.5
	C46.3,4.5,46.3,4.5,46.4,4.5C46.3,4.5,46.3,4.4,46.4,4.5l0.7-0.1c0-0.2-0.1-0.4-0.2-0.5c-0.1-0.1-0.3-0.2-0.5-0.2V4.5z M46.3,4.4
	v0.2h0.8V4.4H46.3z M46.3,4.6C46.3,4.6,46.3,4.5,46.3,4.6C46.3,4.5,46.3,4.5,46.3,4.6C46.3,4.5,46.3,4.5,46.3,4.6
	C46.3,4.5,46.3,4.5,46.3,4.6C46.3,4.5,46.3,4.5,46.3,4.6C46.3,4.5,46.3,4.5,46.3,4.6l0.1,0.7c0.2,0,0.4-0.1,0.5-0.2
	C47,5,47.1,4.8,47.1,4.6H46.3z M53.8,12.4l-8.4-5.3L45,7.8l8.4,5.3L53.8,12.4z M45,7.1l-8.4,5.3l0.4,0.7l8.4-5.3L45,7.1z M36.1,15.5
	v8.3h0.8v-8.3H36.1z M36.5,24.2h16.9v-0.8H36.5V24.2z M53.8,23.8v-8.3H53v8.3H53.8z"/>
<path class="st0" d="M57,29l-29.7-0.1c-0.2,0-0.3-0.2-0.3-0.3l0.1-2.9c0-0.2-0.2-0.3-0.3-0.3H6.4c-0.3,0-0.5,0.4-0.3,0.6l9.2,10.5
	l2.6,3c0.1,0.1,0.2,0.1,0.3,0.1h36.2c0.1,0,0.2-0.1,0.3-0.2l2.7-3c0.1-0.1,0.1-0.2,0.1-0.3v-6.8C57.3,29.2,57.2,29,57,29z"/>
<path class="st2" d="M59,26.9l-29.7-0.1c-0.2,0-0.3-0.2-0.3-0.3l0.1-2.9c0-0.2-0.2-0.3-0.3-0.3H8.4c-0.3,0-0.5,0.4-0.3,0.6l9.2,10.5
	l2.6,3c0.1,0.1,0.2,0.1,0.3,0.1h36.2c0.1,0,0.2-0.1,0.3-0.2l2.7-3c0.1-0.1,0.1-0.2,0.1-0.3v-6.8C59.4,27.1,59.2,26.9,59,26.9z"/>
<path class="st1" d="M17.4,34.3l2.6,3c0.1,0.1,0.2,0.1,0.3,0.1h36.2c0.1,0,0.2-0.1,0.3-0.2l2.7-3"/>
<path class="st1" d="M20.9,17.8v-2.6c0-0.3-0.2-0.6-0.3-0.6h-4.1c-0.2,0-0.3,0.3-0.3,0.6v2.6H20.9z"/>
<path class="st1" d="M23.1,23.4H14c-0.5,0-0.8-0.3-0.8-0.8v-4.5c0-0.5,0.3-0.8,0.8-0.8h9.1c0.5,0,0.8,0.3,0.8,0.8v4.5
	C24,23.1,23.5,23.4,23.1,23.4z"/>
<path class="st3" d="M21.9,18.4h-6.7v1.9h6.7V18.4z"/>
</svg>
