<?xml version="1.0" encoding="utf-8"?>
<!-- Generator: Adobe Illustrator 21.0.0, SVG Export Plug-In . SVG Version: 6.00 Build 0)  -->
<svg version="1.1" id="图层_1" xmlns="http://www.w3.org/2000/svg" xmlns:xlink="http://www.w3.org/1999/xlink" x="0px" y="0px"
	 viewBox="0 0 77 52" style="enable-background:new 0 0 77 52;" xml:space="preserve">
<style type="text/css">
	.st0{opacity:0.75;fill:#E0E0E0;enable-background:new    ;}
	.st1{fill:#BABABA;}
	.st2{fill:#EDEDED;}
	.st3{fill:#A0A0A0;}
	.st4{fill:#EAEAEA;}
	.st5{fill:#939393;}
</style>
<path class="st0" d="M75.6,19H28.9v32.1h43.5V22.9h3.2V19z"/>
<path class="st1" d="M37.3,9.6V2.9c0-1.5,1.2-2.5,2.5-2.5h10.4c1.5,0,2.5,1.2,2.5,2.5v6.7c0,1.5-1.2,2.5-2.5,2.5H39.8
	C38.4,12.2,37.3,11,37.3,9.6z"/>
<path class="st1" d="M45.8,12.1l2.1,1.7c0.2,0.2,0.1,0.5-0.2,0.5h-5.6c-0.3,0-0.4-0.3-0.2-0.5l2-1.7c0,0,0.1-0.1,0.2-0.1h1.5
	C45.7,12.1,45.8,12.1,45.8,12.1z"/>
<path class="st2" d="M49.4,10.6h-8.7c-1.2,0-2.1-1-2.1-2.1V3.8c0-1.2,1-2.1,2.1-2.1h8.7c1.2,0,2.1,1,2.1,2.1v4.7
	C51.5,9.6,50.6,10.6,49.4,10.6z"/>
<path class="st1" d="M24.5,21.5v-1l-1,1H24.5z M68,21.5h1l-1-1V21.5z M68,46.8v1l1-1H68z M24.5,46.8h-1l1,1V46.8z M21.7,16.6v-1
	l-1,1H21.7z M70.7,16.6h1l-1-1V16.6z M70.7,21.5v1l1-1H70.7z M21.7,21.5h-1l1,1V21.5z M24.5,22.5H68v-2H24.5V22.5z M67,21.5v25.2h2
	V21.5H67z M68,45.8H24.5v2H68V45.8z M25.5,46.8V21.5h-2v25.2L25.5,46.8L25.5,46.8z M21.7,17.6h49v-2h-49
	C21.7,15.6,21.7,17.6,21.7,17.6z M69.7,16.6v4.9h2v-4.9H69.7z M70.7,20.5h-49v2h49V20.5z M22.7,21.5v-4.9h-2v4.9H22.7z"/>
<path class="st1" d="M61.9,6.6c-0.6-2-2.7-3.2-4.8-2.6c-2,0.6-3.2,2.7-2.6,4.8c0.5,1.7,2.2,2.9,4,2.7l0.2,0.7l-1,0.3
	c-0.3,0.1-0.4,0.4-0.3,0.6c0.1,0.3,0.4,0.4,0.6,0.3l3.6-1.1c0.3-0.1,0.4-0.4,0.3-0.6c-0.1-0.2-0.4-0.4-0.6-0.3l-1,0.3L60.2,11
	C61.6,10.2,62.5,8.3,61.9,6.6z"/>
<path class="st2" d="M58.2,9.7c1.1,0,2-0.9,2-2s-0.9-2-2-2s-2,0.9-2,2S57.1,9.7,58.2,9.7z"/>
<path class="st0" d="M58.2,8.5c0.5,0,0.9-0.4,0.9-0.9s-0.4-0.9-0.9-0.9s-0.9,0.4-0.9,0.9C57.4,8.1,57.7,8.5,58.2,8.5z"/>
<path class="st1" d="M72.8,12.7c-0.4-0.1-0.7-0.3-0.9-0.7c-0.1-0.2-0.2-0.4-0.3-0.6l-0.1-0.1c-0.1-0.2-0.2-0.4-0.3-0.6
	c-0.3-0.5-0.7-1-1.3-1.2c-0.7-0.3-1.5-0.3-2.6,0c-2.1,0.5-3.2,1.1-3.7,2c-0.2,0.4-0.3,0.9-0.3,1.3c0,0.2,0,0.4,0,0.5l0,0v0.1
	c0,0.2,0,0.4,0,0.6c0,0.2-0.1,0.5-0.4,0.8c-0.2,0.3-0.6,0.5-1,0.8c-0.4,0.2-0.7,0.4-1,0.5c-0.1,0.1-0.3,0.1-0.3,0.1l0,0l0,0l0,0l0,0
	l0,0l0,0c-0.3,0.1-0.4,0.4-0.3,0.6c0.1,0.3,0.4,0.4,0.6,0.3l-0.2-0.5c0.2,0.5,0.2,0.5,0.2,0.5l0,0l0,0l0,0l0,0l0,0H61
	c0.1,0,0.2-0.1,0.4-0.2c0.3-0.1,0.7-0.3,1.1-0.6c0.4-0.3,0.8-0.6,1.2-1c0.1-0.1,0.2-0.3,0.3-0.5c0.2-0.3,0.3-0.6,0.3-1
	c0-0.2,0-0.4,0-0.6v-0.1l0,0c0-0.2,0-0.3,0-0.5c0-0.3,0-0.6,0.1-0.8c0.2-0.4,0.9-0.9,3-1.5c1-0.3,1.6-0.2,2-0.1
	c0.4,0.1,0.6,0.4,0.8,0.8c0.1,0.2,0.2,0.3,0.3,0.5l0.1,0.1c0.1,0.2,0.2,0.3,0.3,0.5c0,0.1,0.1,0.1,0.1,0.2c0.2,0.4,0.6,0.7,1,0.9
	L71.5,14v0.5l1.1,1.1c0.5,0.5,1.2,0.7,1.8,0.4l0.6,0.6c0.1,0.1,0.3,0.1,0.4,0s0.1-0.3,0-0.4l-0.5-0.4c0.1-0.1,0.1-0.1,0.2-0.2l0,0
	l0.1-0.1l0,0l0.5,0.4c0.1,0.1,0.3,0.1,0.4,0c0.1-0.1,0.1-0.3,0-0.4L75.6,15c0.4-0.6,0.2-1.5-0.3-2l-1.1-1.1h-0.5L72.8,12.7
	L72.8,12.7z M73.1,15.1l-0.8-0.8l1.5-1.5l0.8,0.8c0.5,0.5,0.4,1.1,0,1.4l0,0l-0.1,0.1l0,0C74.1,15.5,73.5,15.5,73.1,15.1L73.1,15.1z
	"/>
<path class="st3" d="M31.5,32.6c0-0.2,0.1-0.3,0.3-0.3h3.3c0.5,0,1,0.1,1.5,0.2c0.5,0.1,0.9,0.3,1.3,0.5c0.4,0.2,0.7,0.6,0.9,0.9
	c0.2,0.4,0.3,0.9,0.3,1.4c0,0.8-0.2,1.4-0.7,1.8C38,37.5,37.6,37.8,37,38c-0.2,0.1-0.3,0.3-0.2,0.4l2.3,3.8c0.1,0.2,0,0.5-0.3,0.5
	h-1.6c-0.1,0-0.2-0.1-0.3-0.2l-2.2-4.1c-0.1-0.1-0.2-0.2-0.3-0.2h-0.9c-0.2,0-0.3,0.1-0.3,0.3v3.8c0,0.2-0.1,0.3-0.3,0.3h-1.3
	c-0.2,0-0.3-0.1-0.3-0.3L31.5,32.6L31.5,32.6z M34.8,36.7c0.3,0,0.5,0,0.8-0.1c0.3,0,0.5-0.1,0.7-0.2c0.2-0.1,0.4-0.3,0.5-0.5
	s0.2-0.5,0.2-0.8s-0.1-0.5-0.2-0.7c-0.1-0.2-0.3-0.3-0.5-0.4c-0.2-0.1-0.4-0.2-0.7-0.2s-0.5-0.1-0.7-0.1h-1.4
	c-0.2,0-0.3,0.1-0.3,0.3v2.3c0,0.2,0.1,0.3,0.3,0.3h1.3V36.7z"/>
<path class="st3" d="M41.8,32.3h1.8c0.3,0,0.5,0.2,0.6,0.4l2.5,6.9l2.5-6.9c0.1-0.3,0.3-0.4,0.6-0.4h1.8c0.4,0,0.6,0.3,0.6,0.6V42
	c0,0.3-0.3,0.6-0.6,0.6H51c-0.4,0-0.6-0.3-0.6-0.6v-7.7l-3.1,7.9c-0.1,0.2-0.3,0.4-0.6,0.4h-0.4c-0.3,0-0.5-0.2-0.6-0.4L43,34.3V42
	c0,0.3-0.3,0.6-0.6,0.6h-0.5c-0.4,0-0.6-0.3-0.6-0.6v-9.1C41.1,32.6,41.4,32.3,41.8,32.3z"/>
<path class="st3" d="M60.3,34.1c-0.2,0.2-0.6,0.3-0.8,0.1C59.4,34.1,59.2,34,59,34c-0.4-0.2-0.7-0.3-1.1-0.3c-0.2,0-0.4,0-0.7,0.1
	c-0.2,0.1-0.4,0.1-0.6,0.3c-0.2,0.1-0.3,0.3-0.4,0.4c-0.1,0.2-0.2,0.4-0.2,0.7c0,0.2,0.1,0.4,0.1,0.6c0.1,0.2,0.2,0.3,0.4,0.4
	s0.4,0.2,0.6,0.3c0.2,0.1,0.5,0.2,0.8,0.3s0.7,0.2,1.1,0.4c0.4,0.1,0.7,0.3,1,0.5s0.6,0.5,0.7,0.9c0.2,0.3,0.3,0.8,0.3,1.3
	c0,0.6-0.1,1-0.3,1.5c-0.2,0.4-0.5,0.8-0.8,1c-0.3,0.3-0.8,0.5-1.2,0.6c-0.5,0.1-1,0.2-1.5,0.2c-0.7,0-1.4-0.1-1.9-0.4
	c-0.4-0.2-0.8-0.4-1.1-0.6s-0.3-0.7,0-0.9l0.4-0.4c0.2-0.2,0.6-0.2,0.9,0c0.2,0.2,0.4,0.3,0.6,0.4c0.4,0.2,0.9,0.3,1.3,0.3
	c0.2,0,0.4,0,0.7-0.1c0.2-0.1,0.4-0.1,0.6-0.3c0.2-0.1,0.3-0.3,0.4-0.5c0.1-0.2,0.2-0.4,0.2-0.7s-0.1-0.5-0.2-0.7
	c-0.1-0.2-0.3-0.3-0.5-0.5c-0.2-0.1-0.5-0.2-0.8-0.3s-0.6-0.2-0.9-0.3c-0.3-0.1-0.6-0.2-1-0.4c-0.3-0.1-0.6-0.3-0.9-0.5
	s-0.5-0.5-0.6-0.8c-0.2-0.3-0.2-0.7-0.2-1.2s0.1-1,0.3-1.4s0.5-0.7,0.9-1s0.8-0.4,1.2-0.6c0.5-0.1,0.9-0.2,1.4-0.2s1.1,0.1,1.6,0.3
	c0.3,0.1,0.6,0.2,0.9,0.4c0.3,0.2,0.4,0.7,0.1,0.9L60.3,34.1z"/>
<path class="st4" d="M17.9,27.9c-0.1,0-0.1,0-0.2,0c-3.8,0-7.5-0.1-11.3-0.1c-0.4,0-0.8-0.1-1.1-0.3c-0.6-0.4-1-1-1.2-1.7
	c-0.1-0.5,0.1-1,0.3-1.5c1.1-1.8,2.1-3.7,3.2-5.5c0.1-0.1,0.1-0.1,0.2-0.1c0.3,0.2,0.6,0.3,0.9,0.5c0.3,0.2,0.6,0.4,1,0.5
	c0.3,0.1,0.5,0,0.4-0.3c0-0.2-0.1-0.4-0.2-0.5c-0.4-0.9-0.8-1.8-1.2-2.7c-0.2-0.5-0.4-0.9-0.6-1.4c-0.1-0.1-0.2-0.2-0.3-0.2
	c-0.1,0-0.3,0-0.4,0.1c-1,0.1-2,0.3-3,0.4c-0.5,0.1-0.9,0.1-1.4,0.2c-0.3,0.1-0.4,0.2-0.1,0.4c0.2,0.2,0.4,0.3,0.6,0.4
	c0.4,0.3,0.8,0.5,1.2,0.7c0.1,0.1,0.1,0.1,0.1,0.3c-0.4,0.7-0.8,1.4-1.3,2.1c-0.8,1.5-1.6,2.9-2.4,4.4C1,23.8,1,23.9,0.9,24.1
	c-0.1,0.7-0.1,1.5,0,2.1c0.3,2.1,1.9,4.1,4,4.7C5.7,31,6.5,31,7.4,31c3.4,0,6.9,0,10.3,0.1c0.1,0,0.1,0,0.2,0
	C17.9,30.1,17.9,29,17.9,27.9z M22.7,31.1c0.1,0,0.2,0,0.2,0c1.2,0,2.2,0,3.4,0c1.2,0,2.3,0,3.4,0c0.8,0,1.6-0.1,2.2-0.6
	c1.8-1.2,2.9-2.8,2.9-5c0-1-0.2-1.7-0.7-2.6c-1.5-2.4-2.8-4.9-4.2-7.5c-0.4-0.8-0.9-1.6-1.4-2.2c-0.1-0.2-0.2-0.2-0.4-0.1
	c-0.1,0-0.1,0-0.2,0.1c-0.8,0.5-1.5,0.9-2.2,1.4c-0.2,0.1-0.2,0.2-0.1,0.4c1.1,1.7,2,3.5,3,5.3c0.9,1.6,1.6,3,2.5,4.6
	c0.2,0.3,0.2,0.6,0.2,1c-0.1,0.7-0.4,1.3-0.9,1.7c-0.3,0.2-0.6,0.4-0.9,0.5c-0.4,0-0.9,0.1-1.3,0.1c-1.8,0-3.8,0-5.6,0
	c-0.1,0-0.1,0-0.2,0c0-0.1,0-0.1,0-0.2c0-0.6,0-1.1,0-1.6c0-0.2,0-0.3-0.1-0.5c-0.1-0.3-0.2-0.3-0.4-0.1c-0.1,0.1-0.2,0.2-0.3,0.3
	c-1,1.1-1.8,2.3-2.6,3.5c-0.1,0.2-0.1,0.3,0,0.5c0.5,0.7,1,1.4,1.4,1.9c0.4,0.5,0.8,1,1.2,1.5c0.1,0.1,0.3,0.3,0.4,0.4
	c0.2,0.1,0.3,0.1,0.3-0.1c0-0.1,0-0.1,0-0.2c0-0.4,0-0.8,0-1.2C22.7,31.8,22.7,31.5,22.7,31.1z"/>
<path class="st5" d="M22.7,31.1c0,0.4,0,0.8,0,1.1c0,0.4,0,0.8,0,1.2c0,0.1,0,0.1,0,0.2c-0.1,0.2-0.2,0.2-0.3,0.1
	c-0.2-0.1-0.3-0.2-0.4-0.4c-0.4-0.5-0.8-1-1.2-1.5c-0.5-0.7-1-1.3-1.4-1.9c-0.1-0.2-0.1-0.3,0-0.5c0.8-1.3,1.6-2.4,2.6-3.5
	c0.1-0.1,0.2-0.2,0.3-0.3c0.2-0.2,0.3-0.1,0.4,0.1c0,0.2,0,0.3,0.1,0.5c0,0.6,0,1.1,0,1.6c0,0.1,0,0.1,0,0.2c0.1,0,0.1,0,0.2,0
	c1.8,0,3.8,0,5.6,0c0.4,0,0.9,0,1.3-0.1c0.4,0,0.7-0.2,0.9-0.5c0.5-0.5,0.8-1.1,0.9-1.7c0-0.4,0-0.7-0.2-1c-0.9-1.6-1.6-3-2.5-4.6
	c-1-1.7-2-3.6-3-5.3c-0.1-0.2-0.1-0.3,0.1-0.4c0.8-0.5,1.6-0.9,2.2-1.4c0,0,0.1,0,0.2-0.1c0.2-0.1,0.3-0.1,0.4,0.1
	c0.5,0.8,0.9,1.5,1.4,2.2c1.4,2.5,2.8,4.9,4.2,7.5c0.5,0.8,0.7,1.6,0.7,2.6c0,2.2-1.1,3.9-2.9,5C31.5,30.8,30.8,31,30,31
	c-1.2,0-2.3,0-3.4,0c-1.2,0-2.2,0-3.4,0C22.9,31.1,22.8,31.1,22.7,31.1z"/>
<path class="st5" d="M17.9,27.9c0,1.1,0,2.2,0,3.3c-0.1,0-0.1,0-0.2,0c-3.4,0-6.9,0-10.3-0.1c-0.8,0-1.6,0-2.4-0.2
	c-2-0.6-3.8-2.5-4-4.7c-0.1-0.7-0.1-1.5,0-2.1c0-0.2,0.1-0.4,0.2-0.5c0.8-1.5,1.6-2.9,2.4-4.4c0.4-0.7,0.8-1.5,1.3-2.1
	C5,17.1,5,17,4.8,16.9c-0.4-0.2-0.8-0.5-1.2-0.7c-0.2-0.1-0.4-0.3-0.6-0.4c-0.2-0.2-0.2-0.4,0.1-0.4c0.5-0.1,0.9-0.2,1.4-0.2
	c1-0.1,2-0.3,3-0.4c0.1,0,0.3,0,0.4-0.1c0.2,0,0.3,0,0.3,0.2c0.2,0.5,0.4,0.9,0.6,1.4c0.4,0.9,0.8,1.8,1.2,2.7
	c0.1,0.2,0.1,0.4,0.2,0.5c0.1,0.3-0.1,0.4-0.4,0.3c-0.3-0.2-0.6-0.3-1-0.5c-0.3-0.2-0.6-0.3-0.9-0.5c-0.1-0.1-0.1,0-0.2,0.1
	c-1.1,1.8-2.1,3.7-3.2,5.5c-0.3,0.5-0.4,0.9-0.3,1.5c0.1,0.8,0.5,1.4,1.2,1.7c0.3,0.2,0.7,0.3,1.1,0.3c3.8,0,7.5,0,11.3,0.1
	C17.8,27.9,17.8,27.9,17.9,27.9z"/>
<path class="st5" d="M18.1,0.1c0.4,0,0.8,0.1,1.2,0.1c0.8,0.2,1.6,0.4,2.2,0.9C22,1.5,22.4,2,22.7,2.5c0.7,1.2,1.4,2.3,2,3.5
	c0.5,0.8,0.9,1.6,1.4,2.4c0.1,0.1,0.2,0.2,0.2,0.4C26.6,8.5,27,8.2,27.4,8c0.2-0.1,0.5-0.3,0.7-0.4c0.1,0,0.2,0,0.3,0
	c0.1,0.1,0.1,0.2,0,0.3c-0.4,1-0.8,1.9-1.2,2.8c-0.2,0.5-0.5,1-0.7,1.6c-0.1,0.2-0.3,0.3-0.5,0.3c-0.6-0.1-1.2-0.1-1.8-0.2
	c-1-0.1-1.8-0.3-2.8-0.5c0,0,0,0-0.1,0S21,11.8,21,11.7s0.1-0.2,0.2-0.3c0.6-0.3,1.1-0.6,1.6-1c0.1,0,0.1-0.1,0.2-0.1v-0.1
	c-1-1.7-1.9-3.5-2.9-5.2c-0.2-0.3-0.3-0.5-0.5-0.8c-0.3-0.4-0.7-0.7-1.2-0.8S17.5,3.3,17,3.5c-0.4,0.1-0.7,0.3-0.9,0.6
	c-0.6,1-1.3,1.9-1.8,2.9c-1.4,2.2-2.7,4.6-4.1,6.8c0,0.1-0.1,0.2-0.2,0.3c0,0-0.1,0-0.3-0.1c-0.7-0.4-1.4-0.9-2-1.3
	c-0.5-0.3-0.4-0.3-0.2-0.7c0.9-1.6,1.8-3.1,2.8-4.7c1.1-1.7,2.2-3.5,3.3-5.2C14,1.4,14.7,1,15.3,0.6C16,0.2,16.8,0.1,17.4,0
	c0.1,0,0.1,0,0.2,0C17.9,0.1,18,0.1,18.1,0.1z"/>
</svg>
