<?xml version="1.0" encoding="utf-8"?>
<!-- Generator: Adobe Illustrator 21.0.0, SVG Export Plug-In . SVG Version: 6.00 Build 0)  -->
<svg version="1.1" id="图层_1" xmlns="http://www.w3.org/2000/svg" xmlns:xlink="http://www.w3.org/1999/xlink" x="0px" y="0px"
	viewBox="0 0 61 54" style="enable-background:new 0 0 61 54;" xml:space="preserve">
<style type="text/css">
	.st0{fill:#EDEDED;}
	.st1{fill:#DDDDDD;}
</style>
<path class="st0" d="M39.4,3.1h-14c-0.8,0-1.5,0.7-1.5,1.5v14c0,0.8,0.7,1.5,1.5,1.5h14c0.8,0,1.5-0.7,1.5-1.5v-14
	C40.8,3.8,40.1,3.1,39.4,3.1z M14,25.3h14c0.8,0,1.5,0.7,1.5,1.5v14c0,0.8-0.7,1.5-1.5,1.5H14c-0.8,0-1.5-0.7-1.5-1.5v-14
	C12.6,25.9,13.3,25.3,14,25.3z M36.3,25.3h14c0.8,0,1.5,0.7,1.5,1.5v14c0,0.8-0.7,1.5-1.5,1.5h-14c-0.8,0-1.5-0.7-1.5-1.5v-14
	C34.8,25.9,35.5,25.3,36.3,25.3z"/>
<path class="st1" d="M32.9,24.4c0-0.2,0.2-0.5,0.5-0.5H40c0,0.1,0,0.1,0,0.2v5.1c0,0.6,0.5,1.1,1.1,1.1h1.2c0.6,0,1.1-0.5,1.1-1.1
	v-5.1c0-0.1,0-0.1,0-0.2h6.6c0.2,0,0.5,0.2,0.5,0.5v16.5c0,0.2-0.1,0.3-0.1,0.3c-0.1,0.1-0.2,0.1-0.3,0.1H33.3
	c-0.2,0-0.5-0.2-0.5-0.5V24.4z M33.3,21.9c-1.3,0-2.5,1.1-2.5,2.5v16.5c0,1.3,1.1,2.5,2.5,2.5h16.5c1.3,0,2.5-1,2.5-2.5V24.4
	c0-1.3-1.1-2.5-2.5-2.5H33.3z"/>
<path class="st1" d="M11.1,24.3c0-0.2,0.2-0.5,0.5-0.5h6.6c0,0.1,0,0.2,0,0.3v5.1c0,0.6,0.5,1.1,1.1,1.1h1.2c0.7,0,1.2-0.5,1.1-1.1
	v-5.1c0-0.1,0-0.2,0-0.3H28c0.2,0,0.5,0.2,0.5,0.5v16.5c0,0.1-0.1,0.3-0.1,0.3c-0.1,0.1-0.2,0.1-0.3,0.1H11.5
	c-0.2,0-0.5-0.2-0.5-0.5V24.3z M11.5,21.8c-1.3,0-2.5,1.1-2.5,2.5v16.5c0,1.3,1.1,2.5,2.5,2.5H28c1.5,0,2.5-1.2,2.5-2.5V24.3
	c0-1.3-1.1-2.5-2.5-2.5H11.5z"/>
<path class="st1" d="M22,2.6c0-0.2,0.2-0.5,0.5-0.5h6.6c0,0.1,0,0.1,0,0.2v5.1c0,0.6,0.5,1.1,1.1,1.1h1.2c0.6,0,1.1-0.5,1.1-1.1V2.4
	c0-0.1,0-0.1,0-0.2H39c0.2,0,0.5,0.2,0.5,0.5v16.5c0,0.2-0.2,0.5-0.5,0.5H22.5c-0.2,0-0.5-0.2-0.5-0.5V2.6z M22.5,0.2
	c-1.3,0-2.5,1.1-2.5,2.5v16.5c0,1.3,1.1,2.5,2.5,2.5H39c1.3,0,2.5-1.1,2.5-2.5V2.6c0-1.3-1.1-2.5-2.5-2.5H22.5z"/>
<path class="st1" d="M14.1,49.5H0.8V54h13.3V49.5z"/>
<path class="st1" d="M29.8,49.6H16.5V54h13.3V49.6z"/>
<path class="st1" d="M45.4,49.6H32.1V54h13.3V49.6z"/>
<path class="st1" d="M60.9,49.6H47.6V54h13.3V49.6z"/>
<path class="st1" d="M60.9,44.5H0.8v3.7h60.1V44.5z"/>
</svg>
