<svg width="101" height="35" viewBox="0 0 101 35" fill="none" xmlns="http://www.w3.org/2000/svg">
<path fill-rule="evenodd" clip-rule="evenodd" d="M48.3681 13.6218L41.5753 17.5034L41.6113 14.6218H35.3647C34.8125 14.6218 34.3647 14.1741 34.3647 13.6218C34.3647 13.0695 34.8125 12.6218 35.3647 12.6218H41.6363L41.6723 9.74023L48.3681 13.6218Z" fill="#4C5263"/>
<path d="M98.6349 27.0134H57.1989C56.1314 27.0134 55.2581 26.14 55.2581 25.0726V5.47058C55.2581 4.40314 56.1314 3.52979 57.1989 3.52979H98.6349C99.7023 3.52979 100.576 4.40314 100.576 5.47058V25.0726C100.673 26.14 99.7994 27.0134 98.6349 27.0134Z" fill="#D4E1EE"/>
<path d="M98.1496 23.52H51.9587V26.5282H98.1496V23.52Z" fill="#4C5263"/>
<path d="M57.281 24.7815C57.281 25.0576 57.5049 25.2815 57.781 25.2815C58.0571 25.2815 58.281 25.0576 58.281 24.7815H57.281ZM58.281 20.3176C58.281 20.0415 58.0571 19.8176 57.781 19.8176C57.5049 19.8176 57.281 20.0415 57.281 20.3176H58.281ZM63.1034 24.8786C63.1034 25.1547 63.3272 25.3786 63.6034 25.3786C63.8795 25.3786 64.1034 25.1547 64.1034 24.8786H63.1034ZM64.1034 20.4148C64.1034 20.1386 63.8795 19.9148 63.6034 19.9148C63.3272 19.9148 63.1034 20.1386 63.1034 20.4148H64.1034ZM68.8286 24.9756C68.8286 25.2518 69.0525 25.4756 69.3286 25.4756C69.6048 25.4756 69.8286 25.2518 69.8286 24.9756H68.8286ZM69.8286 20.4148C69.8286 20.1386 69.6048 19.9148 69.3286 19.9148C69.0525 19.9148 68.8286 20.1386 68.8286 20.4148H69.8286ZM74.554 25.0725C74.554 25.3487 74.7779 25.5725 75.054 25.5725C75.3301 25.5725 75.554 25.3487 75.554 25.0725H74.554ZM75.554 20.5117C75.554 20.2355 75.3301 20.0117 75.054 20.0117C74.7779 20.0117 74.554 20.2355 74.554 20.5117H75.554ZM80.3764 25.0726C80.3764 25.3487 80.6002 25.5726 80.8764 25.5726C81.1525 25.5726 81.3764 25.3487 81.3764 25.0726H80.3764ZM81.3764 20.6088C81.3764 20.3327 81.1525 20.1088 80.8764 20.1088C80.6002 20.1088 80.3764 20.3327 80.3764 20.6088H81.3764ZM86.1018 25.1695C86.1018 25.4457 86.3256 25.6695 86.6018 25.6695C86.8779 25.6695 87.1018 25.4457 87.1018 25.1695H86.1018ZM87.1018 20.7057C87.1018 20.4295 86.8779 20.2057 86.6018 20.2057C86.3256 20.2057 86.1018 20.4295 86.1018 20.7057H87.1018ZM91.8271 25.1696C91.8271 25.4457 92.051 25.6696 92.3271 25.6696C92.6033 25.6696 92.8271 25.4457 92.8271 25.1696H91.8271ZM92.8271 20.7057C92.8271 20.4296 92.6033 20.2057 92.3271 20.2057C92.051 20.2057 91.8271 20.4296 91.8271 20.7057H92.8271ZM58.281 24.7815V20.3176H57.281V24.7815H58.281ZM64.1034 24.8786V20.4148H63.1034V24.8786H64.1034ZM69.8286 24.9756V20.4148H68.8286V24.9756H69.8286ZM75.554 25.0725V20.5117H74.554V25.0725H75.554ZM81.3764 25.0726V20.6088H80.3764V25.0726H81.3764ZM87.1018 25.1695V20.7057H86.1018V25.1695H87.1018ZM92.8271 25.1696V20.7057H91.8271V25.1696H92.8271Z" fill="#4C5263"/>
<path d="M51.9587 33.806V2.36517C51.9587 1.78293 52.3468 1.39478 52.832 1.39478H97.3733C97.8585 1.39478 98.2466 1.78293 98.2466 2.36517V33.806" stroke="#4C5263" stroke-width="2" stroke-miterlimit="10" stroke-linecap="round" stroke-linejoin="round"/>
<path d="M67.6494 31.0891C67.6494 31.9302 66.9675 32.6121 66.1264 32.6121V34.6121C68.0721 34.6121 69.6494 33.0348 69.6494 31.0891H67.6494ZM66.1264 32.6121C65.2852 32.6121 64.6034 31.9302 64.6034 31.0891H62.6034C62.6034 33.0348 64.1806 34.6121 66.1264 34.6121V32.6121ZM64.6034 31.0891C64.6034 30.2479 65.2852 29.566 66.1264 29.566V27.566C64.1806 27.566 62.6034 29.1433 62.6034 31.0891H64.6034ZM66.1264 29.566C66.9675 29.566 67.6494 30.2479 67.6494 31.0891H69.6494C69.6494 29.1433 68.0721 27.566 66.1264 27.566V29.566ZM59.3039 31.089C59.3039 31.9301 58.6221 32.612 57.7809 32.612V34.612C59.7267 34.612 61.3039 33.0347 61.3039 31.089H59.3039ZM57.7809 32.612C56.9397 32.612 56.2578 31.9301 56.2578 31.089H54.2578C54.2578 33.0347 55.8353 34.612 57.7809 34.612V32.612ZM56.2578 31.089C56.2578 30.2479 56.9397 29.5659 57.7809 29.5659V27.5659C55.8353 27.5659 54.2578 29.1432 54.2578 31.089H56.2578ZM57.7809 29.5659C58.6221 29.5659 59.3039 30.2478 59.3039 31.089H61.3039C61.3039 29.1433 59.7267 27.5659 57.7809 27.5659V29.5659Z" fill="#4C5263"/>
<path d="M32.4537 23.52H3.4389C2.85666 23.52 2.46851 23.0348 2.46851 22.5496V9.15814C2.46851 8.67294 2.85666 8.18774 3.4389 8.18774H32.4537C33.0359 8.18774 33.4241 8.67294 33.4241 9.15814V22.5496C33.4241 23.1319 33.0359 23.52 32.4537 23.52Z" fill="#D4E1EE"/>
<path d="M30.5128 21.6763H1.49799C0.915747 21.6763 0.527588 21.1911 0.527588 20.7059V7.31439C0.527588 6.82919 0.915747 6.34399 1.49799 6.34399H30.5128C30.998 6.34399 31.4832 6.82919 31.4832 7.31439V20.7059C31.4832 21.1911 31.095 21.6763 30.5128 21.6763Z" stroke="#4C5263" stroke-miterlimit="10"/>
<path d="M26.146 8.86719V19.0564" stroke="#4C5263" stroke-miterlimit="10" stroke-linecap="round" stroke-linejoin="round"/>
<path d="M5.96191 8.86719V19.0564" stroke="#4C5263" stroke-miterlimit="10" stroke-linecap="round" stroke-linejoin="round"/>
<path d="M11.0078 8.86719V19.0564" stroke="#4C5263" stroke-miterlimit="10" stroke-linecap="round" stroke-linejoin="round"/>
<path d="M16.054 8.86719V19.0564" stroke="#4C5263" stroke-miterlimit="10" stroke-linecap="round" stroke-linejoin="round"/>
<path d="M21.1001 8.86719V19.0564" stroke="#4C5263" stroke-miterlimit="10" stroke-linecap="round" stroke-linejoin="round"/>
</svg>
