<?xml version="1.0" encoding="utf-8"?>
<!-- Generator: Adobe Illustrator 21.0.0, SVG Export Plug-In . SVG Version: 6.00 Build 0)  -->
<svg version="1.1" id="图层_1" xmlns="http://www.w3.org/2000/svg" xmlns:xlink="http://www.w3.org/1999/xlink" x="0px" y="0px"
	 viewBox="0 0 99 65.5" style="enable-background:new 0 0 99 65.5;" xml:space="preserve">
<style type="text/css">
	.st0{fill:none;stroke:#DDDDDD;stroke-width:2;stroke-linecap:round;stroke-linejoin:round;stroke-miterlimit:10;}
	.st1{fill:none;stroke:#DDDDDD;stroke-width:2;stroke-miterlimit:10;}
	.st2{fill:#EDEDED;}
	.st3{fill:#DDDDDD;}
</style>
<path class="st0" d="M98,14.5v29.1"/>
<path class="st0" d="M98,1.9v29.1H68.1"/>
<path class="st1" d="M27.6,43.6c1.1,0,2-0.9,2-2s-0.9-2-2-2s-2,0.9-2,2S26.5,43.6,27.6,43.6z"/>
<path class="st1" d="M9.7,43.6c1.1,0,2-0.9,2-2s-0.9-2-2-2c-1.1,0-2,0.9-2,2S8.6,43.6,9.7,43.6z"/>
<path class="st2" d="M43.6,38.3v-1.8l-7.1-19.9c-0.5-1.2-2.6-2.1-3.9-2.1h-6.3c-1.7,0-3.2,1.4-3.2,3.1v20.8"/>
<path class="st0" d="M19.7,36.6V14.9c0-1.8,1.5-3.3,3.3-3.3h6.6c1.4,0,3.6,1,4.1,2.3l7.4,20.8v2H1.4"/>
<path class="st3" d="M93.1,17.6c-0.3,0.3-0.7,0.3-1,0.1c-0.2-0.1-0.3-0.2-0.5-0.3c-0.4-0.2-0.9-0.3-1.3-0.3c-0.3,0-0.5,0-0.8,0.1
	c-0.3,0.1-0.5,0.2-0.7,0.3c-0.2,0.1-0.4,0.3-0.5,0.5c-0.1,0.2-0.2,0.5-0.2,0.8c0,0.3,0.1,0.5,0.2,0.7c0.1,0.2,0.3,0.4,0.5,0.5
	c0.2,0.1,0.5,0.3,0.8,0.4c0.3,0.1,0.6,0.2,1,0.3c0.4,0.1,0.8,0.3,1.2,0.4c0.4,0.2,0.8,0.4,1.2,0.7c0.4,0.3,0.7,0.6,0.9,1
	c0.2,0.4,0.3,0.9,0.3,1.5c0,0.7-0.1,1.3-0.4,1.8c-0.2,0.5-0.6,0.9-1,1.2c-0.4,0.3-0.9,0.6-1.4,0.7c-0.6,0.2-1.1,0.2-1.7,0.2
	c-0.8,0-1.6-0.2-2.4-0.5c-0.5-0.2-0.9-0.4-1.3-0.8c-0.3-0.3-0.3-0.8,0-1.1l0.5-0.4c0.3-0.3,0.7-0.3,1,0c0.2,0.2,0.5,0.4,0.8,0.5
	c0.5,0.2,1,0.4,1.5,0.4c0.3,0,0.5,0,0.8-0.1c0.3-0.1,0.5-0.2,0.7-0.3c0.2-0.2,0.4-0.3,0.5-0.6c0.1-0.2,0.2-0.5,0.2-0.9
	c0-0.3-0.1-0.6-0.2-0.8c-0.2-0.2-0.4-0.4-0.6-0.6c-0.3-0.2-0.6-0.3-0.9-0.4c-0.4-0.1-0.7-0.2-1.1-0.4c-0.4-0.1-0.8-0.3-1.1-0.4
	c-0.4-0.2-0.7-0.4-1-0.7c-0.3-0.3-0.5-0.6-0.7-1c-0.2-0.4-0.3-0.9-0.3-1.5c0-0.6,0.1-1.2,0.4-1.6c0.3-0.5,0.6-0.8,1-1.1
	c0.4-0.3,0.9-0.5,1.5-0.7c0.5-0.1,1.1-0.2,1.7-0.2s1.3,0.1,1.9,0.3c0.4,0.1,0.7,0.3,1,0.5c0.4,0.2,0.4,0.8,0.1,1.1L93.1,17.6z"/>
<path class="st3" d="M70.7,15.5h2.2c0.3,0,0.6,0.2,0.7,0.5l3.1,8.4h0.1l3-8.4c0.1-0.3,0.4-0.5,0.7-0.5h2.2c0.4,0,0.7,0.3,0.7,0.7v11
	c0,0.4-0.3,0.7-0.7,0.7H82c-0.4,0-0.7-0.3-0.7-0.7v-9.3l-3.6,9.6C77.6,27.8,77.3,28,77,28h-0.5c-0.3,0-0.6-0.2-0.7-0.5l-3.6-9.6v9.3
	c0,0.4-0.3,0.7-0.7,0.7h-0.6c-0.4,0-0.7-0.3-0.7-0.7v-11C70,15.9,70.3,15.5,70.7,15.5z"/>
<path class="st0" d="M44.6,1.9v29.1h16.1"/>
<path class="st3" d="M48.3,15.5h0.9c0.3,0,0.6,0.2,0.7,0.6l2.3,8.6l2.6-8.7c0.1-0.3,0.4-0.5,0.7-0.5h1.2c0.3,0,0.6,0.2,0.7,0.5
	l2.5,8.7l2.3-8.6c0.1-0.3,0.4-0.6,0.7-0.6h0.8c0.5,0,0.9,0.5,0.7,1l-3.2,11c-0.1,0.3-0.4,0.5-0.7,0.5h-1c-0.3,0-0.6-0.2-0.7-0.5
	l-2.8-8.9l-2.8,8.9c-0.1,0.3-0.4,0.5-0.7,0.5h-1c-0.3,0-0.6-0.2-0.7-0.5l-3.2-11C47.4,16,47.8,15.5,48.3,15.5z"/>
</svg>
