<svg width="100" height="58" viewBox="0 0 100 58" fill="none" xmlns="http://www.w3.org/2000/svg">
<path d="M1.19189 47.9371C0.63961 47.9371 0.191895 48.3848 0.191895 48.9371C0.191895 49.4894 0.63961 49.9371 1.19189 49.9371V47.9371ZM70.4783 49.9371C71.0306 49.9371 71.4783 49.4894 71.4783 48.9371C71.4783 48.3848 71.0306 47.9371 70.4783 47.9371V49.9371ZM11.0899 37.7479C10.5376 37.7479 10.0899 38.1956 10.0899 38.7479C10.0899 39.3002 10.5376 39.7479 11.0899 39.7479V37.7479ZM82.4141 39.7479C82.9664 39.7479 83.4141 39.3002 83.4141 38.7479C83.4141 38.1956 82.9664 37.7479 82.4141 37.7479V39.7479ZM23.1229 27.5587C22.5706 27.5587 22.1229 28.0065 22.1229 28.5587C22.1229 29.111 22.5706 29.5587 23.1229 29.5587V27.5587ZM94.4471 29.5587C94.9993 29.5587 95.4471 29.111 95.4471 28.5587C95.4471 28.0065 94.9993 27.5587 94.4471 27.5587V29.5587ZM99.359 25.9289C99.7824 25.5742 99.838 24.9435 99.4834 24.5202C99.1287 24.0968 98.498 24.0411 98.0746 24.3958L99.359 25.9289ZM61.5877 54.9633C61.1644 55.318 61.1087 55.9487 61.4634 56.3721C61.818 56.7954 62.4487 56.8511 62.8721 56.4964L61.5877 54.9633ZM1.19189 49.9371H70.4783V47.9371H1.19189V49.9371ZM11.0899 39.7479H82.4141V37.7479H11.0899V39.7479ZM23.1229 29.5587H94.4471V27.5587H23.1229V29.5587ZM98.0746 24.3958L61.5877 54.9633L62.8721 56.4964L99.359 25.9289L98.0746 24.3958Z" fill="#4C5263"/>
<path d="M73.8747 35.0604C75.2681 35.0604 76.3977 33.9308 76.3977 32.5374C76.3977 31.1439 75.2681 30.0143 73.8747 30.0143C72.4812 30.0143 71.3517 31.1439 71.3517 32.5374C71.3517 33.9308 72.4812 35.0604 73.8747 35.0604Z" fill="white"/>
<path d="M50.294 35.0604C51.6874 35.0604 52.817 33.9308 52.817 32.5374C52.817 31.1439 51.6874 30.0143 50.294 30.0143C48.9005 30.0143 47.771 31.1439 47.771 32.5374C47.771 33.9308 48.9005 35.0604 50.294 35.0604Z" fill="white"/>
<path d="M36.9996 25.8415H67.1789C67.8582 25.8415 68.3433 25.3563 68.3433 24.6771V8.1803C68.3433 7.50103 68.8286 7.01582 69.5079 7.01582H74.748C75.1362 7.01582 75.5244 7.2099 75.7184 7.50101L79.8911 13.7116C79.9881 13.9057 80.0852 14.0998 80.0852 14.3909V24.58C80.0852 25.2593 79.6 25.7445 78.9207 25.7445H68.3433" fill="white"/>
<path d="M33.021 2.64905V20.6985C33.021 21.3778 33.5061 21.863 34.1854 21.863H63.9766C64.6559 21.863 65.1411 21.3778 65.1411 20.6985V2.64905C65.1411 1.96977 64.6559 1.48462 63.9766 1.48462H34.1854C33.6032 1.48462 33.021 2.06681 33.021 2.64905Z" fill="white"/>
<path d="M75.7184 7.50101L75.3024 7.77837L75.3034 7.77986L75.7184 7.50101ZM79.8911 13.7116L80.3383 13.488L80.324 13.4593L80.3061 13.4327L79.8911 13.7116ZM75.8977 32.5374C75.8977 33.6547 74.992 34.5604 73.8747 34.5604V35.5604C75.5442 35.5604 76.8977 34.2069 76.8977 32.5374H75.8977ZM73.8747 34.5604C72.7574 34.5604 71.8517 33.6547 71.8517 32.5374H70.8517C70.8517 34.2069 72.2051 35.5604 73.8747 35.5604V34.5604ZM71.8517 32.5374C71.8517 31.4201 72.7574 30.5143 73.8747 30.5143V29.5143C72.2051 29.5143 70.8517 30.8678 70.8517 32.5374H71.8517ZM73.8747 30.5143C74.9919 30.5143 75.8977 31.4201 75.8977 32.5374H76.8977C76.8977 30.8678 75.5443 29.5143 73.8747 29.5143V30.5143ZM52.317 32.5374C52.317 33.6547 51.4113 34.5604 50.294 34.5604V35.5604C51.9635 35.5604 53.317 34.2069 53.317 32.5374H52.317ZM50.294 34.5604C49.1767 34.5604 48.271 33.6547 48.271 32.5374H47.271C47.271 34.2069 48.6244 35.5604 50.294 35.5604V34.5604ZM48.271 32.5374C48.271 31.4201 49.1767 30.5143 50.294 30.5143V29.5143C48.6244 29.5143 47.271 30.8678 47.271 32.5374H48.271ZM50.294 30.5143C51.4112 30.5143 52.317 31.4201 52.317 32.5374H53.317C53.317 30.8678 51.9636 29.5143 50.294 29.5143V30.5143ZM36.9996 26.3415H67.1789V25.3415H36.9996V26.3415ZM67.1789 26.3415C68.1344 26.3415 68.8433 25.6324 68.8433 24.6771H67.8433C67.8433 25.0802 67.582 25.3415 67.1789 25.3415V26.3415ZM68.8433 24.6771V8.1803H67.8433V24.6771H68.8433ZM68.8433 8.1803C68.8433 7.7772 69.1047 7.51582 69.5079 7.51582V6.51582C68.5525 6.51582 67.8433 7.22485 67.8433 8.1803H68.8433ZM69.5079 7.51582H74.748V6.51582H69.5079V7.51582ZM74.748 7.51582C74.9906 7.51582 75.2124 7.64335 75.3024 7.77836L76.1345 7.22366C75.8363 6.77644 75.2819 6.51582 74.748 6.51582V7.51582ZM75.3034 7.77986L79.4761 13.9904L80.3061 13.4327L76.1335 7.22217L75.3034 7.77986ZM79.4439 13.9352C79.539 14.1255 79.5852 14.2272 79.5852 14.3909H80.5852C80.5852 13.9723 80.4372 13.6859 80.3383 13.488L79.4439 13.9352ZM79.5852 14.3909V24.58H80.5852V14.3909H79.5852ZM79.5852 24.58C79.5852 24.9831 79.3239 25.2445 78.9207 25.2445V26.2445C79.8761 26.2445 80.5852 25.5355 80.5852 24.58H79.5852ZM78.9207 25.2445H68.3433V26.2445H78.9207V25.2445ZM32.521 2.64905V20.6985H33.521V2.64905H32.521ZM32.521 20.6985C32.521 21.6539 33.23 22.363 34.1854 22.363V21.363C33.7823 21.363 33.521 21.1016 33.521 20.6985H32.521ZM34.1854 22.363H63.9766V21.363H34.1854V22.363ZM63.9766 22.363C64.932 22.363 65.6411 21.6539 65.6411 20.6985H64.6411C64.6411 21.1016 64.3797 21.363 63.9766 21.363V22.363ZM65.6411 20.6985V2.64905H64.6411V20.6985H65.6411ZM65.6411 2.64905C65.6411 1.69356 64.9319 0.984619 63.9766 0.984619V1.98462C64.3798 1.98462 64.6411 2.24598 64.6411 2.64905H65.6411ZM63.9766 0.984619H34.1854V1.98462H63.9766V0.984619ZM34.1854 0.984619C33.7317 0.984619 33.3198 1.20643 33.0313 1.49494C32.7428 1.78345 32.521 2.19532 32.521 2.64905H33.521C33.521 2.52054 33.5903 2.35019 33.7384 2.20205C33.8866 2.0539 34.0569 1.98462 34.1854 1.98462V0.984619Z" fill="#4C5263"/>
<path d="M32.5358 57.5737C46.5773 57.5737 57.9602 56.5745 57.9602 55.3418C57.9602 54.1092 46.5773 53.1099 32.5358 53.1099C18.4943 53.1099 7.11133 54.1092 7.11133 55.3418C7.11133 56.5745 18.4943 57.5737 32.5358 57.5737Z" fill="#D4E1EE"/>
<path d="M49.8087 55.9239C51.2022 55.9239 52.3317 54.7943 52.3317 53.4009C52.3317 52.0075 51.2022 50.8778 49.8087 50.8778C48.4153 50.8778 47.2857 52.0075 47.2857 53.4009C47.2857 54.7943 48.4153 55.9239 49.8087 55.9239Z" fill="white"/>
<path d="M26.2281 55.9239C27.6216 55.9239 28.7511 54.7943 28.7511 53.4009C28.7511 52.0075 27.6216 50.8778 26.2281 50.8778C24.8347 50.8778 23.705 52.0075 23.705 53.4009C23.705 54.7943 24.8347 55.9239 26.2281 55.9239Z" fill="white"/>
<path d="M12.9336 46.7051H43.113C43.7922 46.7051 44.2775 46.2199 44.2775 45.5406V29.0438C44.2775 28.3645 44.7627 27.8793 45.4419 27.8793H50.6821C51.0703 27.8793 51.4584 28.0734 51.6525 28.3645L55.8253 34.5751C55.9223 34.7692 56.0193 34.9633 56.0193 35.2544V45.4436C56.0193 46.1228 55.5341 46.608 54.8549 46.608H44.2775" fill="white"/>
<path d="M8.76099 24.9681V43.0176C8.76099 43.6968 9.24614 44.1821 9.92542 44.1821H39.7166C40.3958 44.1821 40.8811 43.6968 40.8811 43.0176V24.9681C40.8811 24.2889 40.3958 23.8037 39.7166 23.8037H9.92542C9.34318 23.8037 8.76099 24.3859 8.76099 24.9681Z" fill="white"/>
<path d="M51.6525 28.3645L51.2365 28.6419L51.2375 28.6434L51.6525 28.3645ZM55.8253 34.5751L56.2725 34.3515L56.2581 34.3228L56.2403 34.2963L55.8253 34.5751ZM51.8317 53.4009C51.8317 54.5182 50.926 55.4239 49.8087 55.4239V56.4239C51.4783 56.4239 52.8317 55.0705 52.8317 53.4009H51.8317ZM49.8087 55.4239C48.6914 55.4239 47.7857 54.5182 47.7857 53.4009H46.7857C46.7857 55.0705 48.1391 56.4239 49.8087 56.4239V55.4239ZM47.7857 53.4009C47.7857 52.2836 48.6914 51.3778 49.8087 51.3778V50.3778C48.1391 50.3778 46.7857 51.7313 46.7857 53.4009H47.7857ZM49.8087 51.3778C50.926 51.3778 51.8317 52.2836 51.8317 53.4009H52.8317C52.8317 51.7313 51.4783 50.3778 49.8087 50.3778V51.3778ZM28.2511 53.4009C28.2511 54.5182 27.3454 55.4239 26.2281 55.4239V56.4239C27.8977 56.4239 29.2511 55.0705 29.2511 53.4009H28.2511ZM26.2281 55.4239C25.1108 55.4239 24.205 54.5181 24.205 53.4009H23.205C23.205 55.0705 24.5586 56.4239 26.2281 56.4239V55.4239ZM24.205 53.4009C24.205 52.2836 25.1108 51.3778 26.2281 51.3778V50.3778C24.5586 50.3778 23.205 51.7313 23.205 53.4009H24.205ZM26.2281 51.3778C27.3454 51.3778 28.2511 52.2836 28.2511 53.4009H29.2511C29.2511 51.7313 27.8977 50.3778 26.2281 50.3778V51.3778ZM12.9336 47.2051H43.113V46.2051H12.9336V47.2051ZM43.113 47.2051C44.0683 47.2051 44.7775 46.496 44.7775 45.5406H43.7775C43.7775 45.9437 43.5161 46.2051 43.113 46.2051V47.2051ZM44.7775 45.5406V29.0438H43.7775V45.5406H44.7775ZM44.7775 29.0438C44.7775 28.6407 45.0388 28.3793 45.4419 28.3793V27.3793C44.4865 27.3793 43.7775 28.0884 43.7775 29.0438H44.7775ZM45.4419 28.3793H50.6821V27.3793H45.4419V28.3793ZM50.6821 28.3793C50.9246 28.3793 51.1465 28.5069 51.2365 28.6419L52.0685 28.0872C51.7704 27.64 51.2159 27.3793 50.6821 27.3793V28.3793ZM51.2375 28.6434L55.4102 34.8539L56.2403 34.2963L52.0675 28.0857L51.2375 28.6434ZM55.378 34.7987C55.4731 34.9888 55.5193 35.0906 55.5193 35.2544H56.5193C56.5193 34.8359 56.3715 34.5496 56.2725 34.3515L55.378 34.7987ZM55.5193 35.2544V45.4436H56.5193V35.2544H55.5193ZM55.5193 45.4436C55.5193 45.8467 55.258 46.108 54.8549 46.108V47.108C55.8103 47.108 56.5193 46.3989 56.5193 45.4436H55.5193ZM54.8549 46.108H44.2775V47.108H54.8549V46.108ZM8.26099 24.9681V43.0176H9.26099V24.9681H8.26099ZM8.26099 43.0176C8.26099 43.9729 8.96996 44.6821 9.92542 44.6821V43.6821C9.52231 43.6821 9.26099 43.4207 9.26099 43.0176H8.26099ZM9.92542 44.6821H39.7166V43.6821H9.92542V44.6821ZM39.7166 44.6821C40.672 44.6821 41.3811 43.973 41.3811 43.0176H40.3811C40.3811 43.4207 40.1197 43.6821 39.7166 43.6821V44.6821ZM41.3811 43.0176V24.9681H40.3811V43.0176H41.3811ZM41.3811 24.9681C41.3811 24.0127 40.6719 23.3037 39.7166 23.3037V24.3037C40.1198 24.3037 40.3811 24.5651 40.3811 24.9681H41.3811ZM39.7166 23.3037H9.92542V24.3037H39.7166V23.3037ZM9.92542 23.3037C9.47169 23.3037 9.05982 23.5255 8.77131 23.814C8.4828 24.1025 8.26099 24.5144 8.26099 24.9681H9.26099C9.26099 24.8396 9.33027 24.6693 9.47842 24.5211C9.62656 24.373 9.7969 24.3037 9.92542 24.3037V23.3037Z" fill="#4C5263"/>
<path d="M14.3553 38.5267V35.2093C14.3553 35.0987 14.3552 35.0987 14.2446 34.9881L10.8166 29.5697H12.2542C12.3648 29.5697 12.4753 29.6802 12.5859 29.7908L14.7975 33.3294C14.9081 33.5506 15.3505 33.5506 15.4611 33.3294L17.6727 29.7908C17.7833 29.6802 17.8938 29.5697 18.0044 29.5697H19.3314L15.9033 34.9881C15.9033 35.0987 15.7927 35.0987 15.7927 35.2093V38.5267H14.3553Z" fill="#4C5263"/>
<path d="M19.2207 29.4598H17.8938C17.7832 29.4598 17.6726 29.5704 17.562 29.681L15.3504 33.2196C15.2398 33.3302 15.1293 33.4408 15.0187 33.4408C14.9082 33.4408 14.7975 33.3302 14.6869 33.2196L12.4753 29.681C12.3647 29.5704 12.2542 29.4598 12.1437 29.4598H10.7061L14.134 34.8783C14.134 34.9889 14.2446 34.9889 14.2446 35.0995V38.4169H15.5716V35.0995C15.5716 34.9889 15.5716 34.9889 15.6822 34.8783L19.2207 29.4598Z" fill="#4C5263"/>
<path d="M20.769 29.5695H22.3172C22.5383 29.5695 22.7595 29.68 22.8701 29.9012L25.0817 35.8725L27.2933 29.9012C27.4039 29.68 27.5145 29.5695 27.8462 29.5695H29.3944C29.7261 29.5695 29.9473 29.7906 29.9473 30.1224V37.9736C29.9473 38.3053 29.7261 38.5265 29.3944 38.5265H28.8415C28.5097 38.5265 28.2885 38.3053 28.2885 37.9736V31.3387L25.7451 38.1948C25.6346 38.4159 25.524 38.5265 25.1922 38.5265H24.8606C24.6394 38.5265 24.4182 38.4159 24.3077 38.1948L21.7642 31.3387V37.9736C21.7642 38.3053 21.5431 38.5265 21.2113 38.5265H20.769C20.4372 38.5265 20.2161 38.3053 20.2161 37.9736V30.1224C20.2161 29.7906 20.4372 29.5695 20.769 29.5695Z" fill="#4C5263"/>
<path d="M36.6926 31.0071C36.4714 31.2283 36.2503 31.2283 36.0291 31.1177C35.9186 31.0071 35.8079 31.0071 35.6973 30.8965C35.3656 30.7859 35.0339 30.6754 34.8128 30.6754C34.5916 30.6754 34.481 30.6754 34.2599 30.786C34.0387 30.786 33.9281 30.8965 33.707 31.0071C33.4858 31.1177 33.4857 31.2283 33.3752 31.3389C33.2646 31.4494 33.2646 31.6706 33.2646 31.8918C33.2646 32.1129 33.2646 32.2235 33.3752 32.4447C33.4857 32.5552 33.5964 32.6658 33.707 32.7764C33.8175 32.887 34.0387 32.9976 34.2599 32.9976C34.481 33.1082 34.7022 33.1082 34.9233 33.2187C35.2551 33.3293 35.4762 33.4399 35.8079 33.5505C36.1396 33.6611 36.3609 33.7717 36.6926 33.9928C36.9138 34.214 37.1349 34.4351 37.3561 34.7668C37.4666 35.0986 37.5773 35.4303 37.5773 35.8726C37.5773 36.315 37.4666 36.7573 37.3561 37.0891C37.1349 37.4208 36.9138 37.7526 36.6926 37.9737C36.3609 38.1949 36.0291 38.416 35.6973 38.5266C35.255 38.6372 34.9233 38.7478 34.481 38.7478C33.9281 38.7478 33.3752 38.6372 32.8223 38.4161C32.4905 38.3055 32.1588 38.0843 31.827 37.8632C31.6058 37.642 31.6058 37.3102 31.827 37.0891L32.1588 36.7573C32.38 36.5362 32.7117 36.5362 32.9328 36.7573C33.0434 36.8679 33.2646 36.9785 33.4857 37.0891C33.8175 37.3102 34.2598 37.3103 34.5915 37.3103C34.8127 37.3103 34.9233 37.3102 35.1444 37.1996C35.3656 37.1996 35.4762 37.089 35.6973 36.9785C35.8079 36.8679 36.0291 36.7573 36.0291 36.5362C36.1397 36.4256 36.1397 36.2044 36.1397 35.8726C36.1397 35.6515 36.1397 35.4303 36.0291 35.3197C35.9186 35.2092 35.8079 34.988 35.5868 34.8775C35.3656 34.7669 35.1445 34.6563 34.9233 34.5457C34.7022 34.4352 34.3703 34.3246 34.1492 34.3246C33.928 34.214 33.5963 34.1034 33.3752 33.9928C33.154 33.8822 32.8223 33.7716 32.6012 33.5505C32.38 33.3293 32.1588 33.1082 32.0483 32.887C31.9377 32.5553 31.827 32.2235 31.827 31.7812C31.827 31.3389 31.9376 30.8965 32.1588 30.5648C32.38 30.233 32.6011 30.0119 32.9328 29.7907C33.2646 29.5695 33.5963 29.459 33.9281 29.3484C34.3704 29.2378 34.7021 29.2378 35.1444 29.2378C35.5868 29.2378 36.0292 29.3484 36.4715 29.459C36.6927 29.5695 37.0243 29.6801 37.2455 29.7907C37.4667 30.0119 37.5772 30.3436 37.3561 30.5648L36.6926 31.0071Z" fill="#4C5263"/>
</svg>
