<?xml version="1.0" encoding="utf-8"?>
<!-- Generator: Adobe Illustrator 21.0.0, SVG Export Plug-In . SVG Version: 6.00 Build 0)  -->
<svg version="1.1" id="图层_1" xmlns="http://www.w3.org/2000/svg" xmlns:xlink="http://www.w3.org/1999/xlink" x="0px" y="0px"
	 viewBox="0 0 100 58" style="enable-background:new 0 0 100 58;" xml:space="preserve">
<style type="text/css">
	.st0{fill:#AAAAAA;}
	.st1{fill:#FFFFFF;}
	.st2{fill:#E8E8E8;}
	.st3{fill:#4C5263;}
	.st4{fill:#919191;}
</style>
<path class="st0" d="M1.2,47.9c-0.6,0-1,0.4-1,1s0.4,1,1,1V47.9z M70.5,49.9c0.6,0,1-0.4,1-1s-0.4-1-1-1V49.9z M11.1,37.7
	c-0.6,0-1,0.4-1,1c0,0.6,0.4,1,1,1V37.7z M82.4,39.7c0.6,0,1-0.4,1-1c0-0.6-0.4-1-1-1V39.7z M23.1,27.6c-0.6,0-1,0.4-1,1
	c0,0.6,0.4,1,1,1V27.6z M94.4,29.6c0.6,0,1-0.4,1-1c0-0.6-0.4-1-1-1V29.6z M99.4,25.9c0.4-0.4,0.5-1,0.1-1.4c-0.4-0.4-1-0.5-1.4-0.1
	L99.4,25.9z M61.6,55c-0.4,0.4-0.5,1-0.1,1.4c0.4,0.4,1,0.5,1.4,0.1L61.6,55z M1.2,49.9h69.3v-2H1.2V49.9z M11.1,39.7h71.3v-2H11.1
	V39.7z M23.1,29.6h71.3v-2H23.1V29.6z M98.1,24.4L61.6,55l1.3,1.5l36.5-30.6L98.1,24.4z"/>
<path class="st1" d="M73.9,35.1c1.4,0,2.5-1.1,2.5-2.5c0-1.4-1.1-2.5-2.5-2.5c-1.4,0-2.5,1.1-2.5,2.5C71.4,33.9,72.5,35.1,73.9,35.1
	z"/>
<path class="st1" d="M50.3,35.1c1.4,0,2.5-1.1,2.5-2.5c0-1.4-1.1-2.5-2.5-2.5c-1.4,0-2.5,1.1-2.5,2.5C47.8,33.9,48.9,35.1,50.3,35.1
	z"/>
<path class="st1" d="M37,25.8h30.2c0.7,0,1.2-0.5,1.2-1.2V8.2c0-0.7,0.5-1.2,1.2-1.2h5.2c0.4,0,0.8,0.2,1,0.5l4.2,6.2
	c0.1,0.2,0.2,0.4,0.2,0.7v10.2c0,0.7-0.5,1.2-1.2,1.2H68.3"/>
<path class="st1" d="M33,2.6v18c0,0.7,0.5,1.2,1.2,1.2H64c0.7,0,1.2-0.5,1.2-1.2v-18c0-0.7-0.5-1.2-1.2-1.2H34.2
	C33.6,1.5,33,2.1,33,2.6z"/>
<path class="st0" d="M75.7,7.5l-0.4,0.3l0,0L75.7,7.5z M79.9,13.7l0.4-0.2l0,0l0,0L79.9,13.7z M75.9,32.5c0,1.1-0.9,2-2,2v1
	c1.7,0,3-1.4,3-3H75.9z M73.9,34.6c-1.1,0-2-0.9-2-2h-1c0,1.7,1.4,3,3,3V34.6z M71.9,32.5c0-1.1,0.9-2,2-2v-1c-1.7,0-3,1.4-3,3H71.9
	z M73.9,30.5c1.1,0,2,0.9,2,2h1c0-1.7-1.4-3-3-3V30.5z M52.3,32.5c0,1.1-0.9,2-2,2v1c1.7,0,3-1.4,3-3H52.3z M50.3,34.6
	c-1.1,0-2-0.9-2-2h-1c0,1.7,1.4,3,3,3V34.6z M48.3,32.5c0-1.1,0.9-2,2-2v-1c-1.7,0-3,1.4-3,3H48.3z M50.3,30.5c1.1,0,2,0.9,2,2h1
	c0-1.7-1.4-3-3-3V30.5z M37,26.3h30.2v-1H37V26.3z M67.2,26.3c1,0,1.7-0.7,1.7-1.7h-1c0,0.4-0.3,0.7-0.7,0.7V26.3z M68.8,24.7V8.2
	h-1v16.5H68.8z M68.8,8.2c0-0.4,0.3-0.7,0.7-0.7v-1c-1,0-1.7,0.7-1.7,1.7H68.8z M69.5,7.5h5.2v-1h-5.2V7.5z M74.7,7.5
	c0.2,0,0.5,0.1,0.6,0.3l0.8-0.6c-0.3-0.4-0.9-0.7-1.4-0.7V7.5z M75.3,7.8l4.2,6.2l0.8-0.6l-4.2-6.2L75.3,7.8z M79.4,13.9
	c0.1,0.2,0.1,0.3,0.1,0.5h1c0-0.4-0.1-0.7-0.2-0.9L79.4,13.9z M79.6,14.4v10.2h1V14.4H79.6z M79.6,24.6c0,0.4-0.3,0.7-0.7,0.7v1
	c1,0,1.7-0.7,1.7-1.7H79.6z M78.9,25.2H68.3v1h10.6V25.2z M32.5,2.6v18h1v-18H32.5z M32.5,20.7c0,1,0.7,1.7,1.7,1.7v-1
	c-0.4,0-0.7-0.3-0.7-0.7H32.5z M34.2,22.4H64v-1H34.2V22.4z M64,22.4c1,0,1.7-0.7,1.7-1.7h-1c0,0.4-0.3,0.7-0.7,0.7V22.4z
	 M65.6,20.7v-18h-1v18H65.6z M65.6,2.6c0-1-0.7-1.7-1.7-1.7v1c0.4,0,0.7,0.3,0.7,0.7H65.6z M64,1H34.2v1H64V1z M34.2,1
	c-0.5,0-0.9,0.2-1.2,0.5c-0.3,0.3-0.5,0.7-0.5,1.2h1c0-0.1,0.1-0.3,0.2-0.4C33.9,2.1,34.1,2,34.2,2V1z"/>
<path class="st2" d="M32.5,57.6c14,0,25.4-1,25.4-2.2c0-1.2-11.4-2.2-25.4-2.2s-25.4,1-25.4,2.2C7.1,56.6,18.5,57.6,32.5,57.6z"/>
<path class="st1" d="M49.8,55.9c1.4,0,2.5-1.1,2.5-2.5c0-1.4-1.1-2.5-2.5-2.5c-1.4,0-2.5,1.1-2.5,2.5C47.3,54.8,48.4,55.9,49.8,55.9
	z"/>
<path class="st1" d="M26.2,55.9c1.4,0,2.5-1.1,2.5-2.5c0-1.4-1.1-2.5-2.5-2.5c-1.4,0-2.5,1.1-2.5,2.5C23.7,54.8,24.8,55.9,26.2,55.9
	z"/>
<path class="st1" d="M12.9,46.7h30.2c0.7,0,1.2-0.5,1.2-1.2V29c0-0.7,0.5-1.2,1.2-1.2h5.2c0.4,0,0.8,0.2,1,0.5l4.2,6.2
	c0.1,0.2,0.2,0.4,0.2,0.7v10.2c0,0.7-0.5,1.2-1.2,1.2H44.3"/>
<path class="st1" d="M8.8,25v18c0,0.7,0.5,1.2,1.2,1.2h29.8c0.7,0,1.2-0.5,1.2-1.2V25c0-0.7-0.5-1.2-1.2-1.2H9.9
	C9.3,23.8,8.8,24.4,8.8,25z"/>
<path class="st0" d="M51.7,28.4l-0.4,0.3l0,0L51.7,28.4z M55.8,34.6l0.4-0.2l0,0l0,0L55.8,34.6z M51.8,53.4c0,1.1-0.9,2-2,2v1
	c1.7,0,3-1.4,3-3H51.8z M49.8,55.4c-1.1,0-2-0.9-2-2h-1c0,1.7,1.4,3,3,3V55.4z M47.8,53.4c0-1.1,0.9-2,2-2v-1c-1.7,0-3,1.4-3,3H47.8
	z M49.8,51.4c1.1,0,2,0.9,2,2h1c0-1.7-1.4-3-3-3V51.4z M28.3,53.4c0,1.1-0.9,2-2,2v1c1.7,0,3-1.4,3-3H28.3z M26.2,55.4
	c-1.1,0-2-0.9-2-2h-1c0,1.7,1.4,3,3,3V55.4z M24.2,53.4c0-1.1,0.9-2,2-2v-1c-1.7,0-3,1.4-3,3H24.2z M26.2,51.4c1.1,0,2,0.9,2,2h1
	c0-1.7-1.4-3-3-3V51.4z M12.9,47.2h30.2v-1H12.9V47.2z M43.1,47.2c1,0,1.7-0.7,1.7-1.7h-1c0,0.4-0.3,0.7-0.7,0.7V47.2z M44.8,45.5
	V29h-1v16.5H44.8z M44.8,29c0-0.4,0.3-0.7,0.7-0.7v-1c-1,0-1.7,0.7-1.7,1.7H44.8z M45.4,28.4h5.2v-1h-5.2V28.4z M50.7,28.4
	c0.2,0,0.5,0.1,0.6,0.3l0.8-0.6c-0.3-0.4-0.9-0.7-1.4-0.7V28.4z M51.2,28.6l4.2,6.2l0.8-0.6l-4.2-6.2L51.2,28.6z M55.4,34.8
	c0.1,0.2,0.1,0.3,0.1,0.5h1c0-0.4-0.1-0.7-0.2-0.9L55.4,34.8z M55.5,35.3v10.2h1V35.3H55.5z M55.5,45.4c0,0.4-0.3,0.7-0.7,0.7v1
	c1,0,1.7-0.7,1.7-1.7H55.5z M54.9,46.1H44.3v1h10.6V46.1z M8.3,25v18h1V25H8.3z M8.3,43c0,1,0.7,1.7,1.7,1.7v-1
	c-0.4,0-0.7-0.3-0.7-0.7H8.3z M9.9,44.7h29.8v-1H9.9V44.7z M39.7,44.7c1,0,1.7-0.7,1.7-1.7h-1c0,0.4-0.3,0.7-0.7,0.7V44.7z M41.4,43
	V25h-1v18H41.4z M41.4,25c0-1-0.7-1.7-1.7-1.7v1c0.4,0,0.7,0.3,0.7,0.7H41.4z M39.7,23.3H9.9v1h29.8V23.3z M9.9,23.3
	c-0.5,0-0.9,0.2-1.2,0.5c-0.3,0.3-0.5,0.7-0.5,1.2h1c0-0.1,0.1-0.3,0.2-0.4c0.1-0.1,0.3-0.2,0.4-0.2V23.3z"/>
<path class="st3" d="M14.4,38.5v-3.3c0-0.1,0-0.1-0.1-0.2l-3.4-5.4h1.4c0.1,0,0.2,0.1,0.3,0.2l2.2,3.5c0.1,0.2,0.6,0.2,0.7,0
	l2.2-3.5c0.1-0.1,0.2-0.2,0.3-0.2h1.3L15.9,35c0,0.1-0.1,0.1-0.1,0.2v3.3H14.4z"/>
<path class="st4" d="M19.2,29.5h-1.3c-0.1,0-0.2,0.1-0.3,0.2l-2.2,3.5c-0.1,0.1-0.2,0.2-0.3,0.2c-0.1,0-0.2-0.1-0.3-0.2l-2.2-3.5
	c-0.1-0.1-0.2-0.2-0.3-0.2h-1.4l3.4,5.4c0,0.1,0.1,0.1,0.1,0.2v3.3h1.3v-3.3c0-0.1,0-0.1,0.1-0.2L19.2,29.5z"/>
<path class="st4" d="M20.8,29.6h1.5c0.2,0,0.4,0.1,0.6,0.3l2.2,6l2.2-6c0.1-0.2,0.2-0.3,0.6-0.3h1.5c0.3,0,0.6,0.2,0.6,0.6V38
	c0,0.3-0.2,0.6-0.6,0.6h-0.6c-0.3,0-0.6-0.2-0.6-0.6v-6.6l-2.5,6.9c-0.1,0.2-0.2,0.3-0.6,0.3h-0.3c-0.2,0-0.4-0.1-0.6-0.3l-2.5-6.9
	V38c0,0.3-0.2,0.6-0.6,0.6h-0.4c-0.3,0-0.6-0.2-0.6-0.6v-7.9C20.2,29.8,20.4,29.6,20.8,29.6z"/>
<path class="st4" d="M36.7,31c-0.2,0.2-0.4,0.2-0.7,0.1c-0.1-0.1-0.2-0.1-0.3-0.2c-0.3-0.1-0.7-0.2-0.9-0.2c-0.2,0-0.3,0-0.6,0.1
	c-0.2,0-0.3,0.1-0.6,0.2c-0.2,0.1-0.2,0.2-0.3,0.3c-0.1,0.1-0.1,0.3-0.1,0.6c0,0.2,0,0.3,0.1,0.6c0.1,0.1,0.2,0.2,0.3,0.3
	c0.1,0.1,0.3,0.2,0.6,0.2c0.2,0.1,0.4,0.1,0.7,0.2c0.3,0.1,0.6,0.2,0.9,0.3s0.6,0.2,0.9,0.4c0.2,0.2,0.4,0.4,0.7,0.8
	c0.1,0.3,0.2,0.7,0.2,1.1c0,0.4-0.1,0.9-0.2,1.2c-0.2,0.3-0.4,0.7-0.7,0.9c-0.3,0.2-0.7,0.4-1,0.6c-0.4,0.1-0.8,0.2-1.2,0.2
	c-0.6,0-1.1-0.1-1.7-0.3c-0.3-0.1-0.7-0.3-1-0.6c-0.2-0.2-0.2-0.6,0-0.8l0.3-0.3c0.2-0.2,0.6-0.2,0.8,0c0.1,0.1,0.3,0.2,0.6,0.3
	c0.3,0.2,0.8,0.2,1.1,0.2c0.2,0,0.3,0,0.6-0.1c0.2,0,0.3-0.1,0.6-0.2c0.1-0.1,0.3-0.2,0.3-0.4c0.1-0.1,0.1-0.3,0.1-0.7
	c0-0.2,0-0.4-0.1-0.6c-0.1-0.1-0.2-0.3-0.4-0.4c-0.2-0.1-0.4-0.2-0.7-0.3c-0.2-0.1-0.6-0.2-0.8-0.2c-0.2-0.1-0.6-0.2-0.8-0.3
	c-0.2-0.1-0.6-0.2-0.8-0.4c-0.2-0.2-0.4-0.4-0.6-0.7c-0.1-0.3-0.2-0.7-0.2-1.1c0-0.4,0.1-0.9,0.3-1.2c0.2-0.3,0.4-0.6,0.8-0.8
	c0.3-0.2,0.7-0.3,1-0.4c0.4-0.1,0.8-0.1,1.2-0.1c0.4,0,0.9,0.1,1.3,0.2c0.2,0.1,0.6,0.2,0.8,0.3c0.2,0.2,0.3,0.6,0.1,0.8L36.7,31z"
	/>
</svg>
