<?xml version="1.0" encoding="utf-8"?>
<!-- Generator: Adobe Illustrator 21.0.0, SVG Export Plug-In . SVG Version: 6.00 Build 0)  -->
<svg version="1.1" id="图层_1" xmlns="http://www.w3.org/2000/svg" xmlns:xlink="http://www.w3.org/1999/xlink" x="0px" y="0px"
	 viewBox="0 0 116 52" style="enable-background:new 0 0 116 52;" xml:space="preserve">
<style type="text/css">
	.st0{fill:#D4E1EE;}
	.st1{fill:#4C5263;}
	.st2{fill:#495368;}
</style>
<path class="st0" d="M68.3,14.3c-6.2,0.1-9.7,0-15.9,0c-2.9,0-3.3,0.4-3.3,2.7c0,6.4,0,12.9,0,19.3c0,0.2,0,1.5,0,1.7
	c-0.3,0-2.3,0-2.6,0c-2,0,0.6,0-1.4,0c0,0,0.3,0.6,0.5,1.2c0.6,1.7,2.1,1.8,3.4,1.8c1.8,0,2.6-0.3,3.8,0"/>
<path class="st1" d="M73.8,16.6c0,0.4,0,0.8,0,1.2V16.6z M73.8,11.6c-5.8,0.1-11.7,0-17.5,0c-2.9,0-5,1.7-5,3.9c0,6.4,0,12.8,0,19.2
	c0,0.2,0,0.4,0,0.6c-0.3,0-0.6,0-0.9,0c-2,0-4,0-6,0c-0.8,0-1.1,0.2-1.1,0.8c0.1,1.5,0.7,2.9,2.1,4c0.9,0.7,2.1,1.1,3.3,1.4
	c6,0,12,0,18.1,0c0.1,0,0.3-0.1,0.4-0.1c4-0.7,6.6-3.1,6.6-6.3c0-5.5,0-11,0-16.6c0-0.2,0-0.5,0-0.7l0,0c0-0.4,0-0.8,0-1.2
	c0-1.3,0-2.5,0-3.7C73.8,12.5,73.8,12.1,73.8,11.6c0,0.4,0,0.9,0,1.3V11.6z M53.2,40.4c-1.1,0-2.2,0-3.2,0c-2.8,0-4.7-1.5-5-3.7
	c0.2,0,0.4,0,0.6,0c3.8,0,7.6,0,11.4,0c0.5,0,0.7,0.1,0.9,0.5c0.3,1.1,1.2,2,2.2,2.7c0.2,0.1,0.4,0.3,0.8,0.5
	C58.2,40.4,55.7,40.4,53.2,40.4z M72.2,13.6c0,7.2,0,14.4,0,21.6c0,2.4-1.6,4.2-4.6,4.9c-3.6,0.9-7.7-1.1-8.2-4
	c-0.1-0.5-0.4-0.8-1.1-0.7c-1.7,0-3.5,0-5.3,0c0-0.2,0-0.4,0-0.5c0-6.4,0-12.9,0-19.3c0-1.6,1.2-2.6,3.3-2.7c5.2,0,10.3,0,15.5,0
	c0.1,0,0.2,0,0.4,0C72.2,13.1,72.2,13.4,72.2,13.6z"/>
<path class="st0" d="M60.9,40.4c-2.7,0-5.2,0-7.7,0c-1.1,0-2.2,0-3.2,0c-2.8,0-4.7-1.5-5-3.7c0.2,0,0.4,0,0.6,0c3.8,0,7.6,0,11.4,0
	c0.5,0,0.7,0.1,0.9,0.5c0.3,1.1,1.2,2,2.2,2.7C60.4,40,60.6,40.1,60.9,40.4z"/>
<path class="st1" d="M62.5,26c-2,0-4,0-5.9,0c-0.2,0-0.5,0-0.7,0c-0.3-0.1-0.6-0.4-0.6-0.6s0.4-0.4,0.6-0.6c0.1,0,0.2,0,0.4,0
	c4.1,0,8.2,0,12.3,0c0,0,0,0,0.1,0c0.6,0,1,0.2,1,0.6c0,0.5-0.4,0.6-0.9,0.6c-1,0-2,0-2.9,0C64.7,26,63.6,26,62.5,26z"/>
<path class="st1" d="M62.5,28.5c2,0,4.1,0,6.1,0c0.6,0,1.1,0.1,1.1,0.6s-0.5,0.6-1.1,0.6c-4.1,0-8.1,0-12.2,0
	c-0.6,0-1.1-0.1-1.1-0.6s0.5-0.6,1.1-0.6C58.5,28.5,60.5,28.5,62.5,28.5z"/>
<path class="st1" d="M62.5,33.5c-2,0-3.9,0-5.9,0c-0.2,0-0.5,0-0.7,0c-0.3-0.1-0.6-0.4-0.6-0.6s0.4-0.4,0.6-0.6c0.1-0.1,0.3,0,0.4,0
	c4.1,0,8.1,0,12.2,0c0.1,0,0.1,0,0.2,0c0.5,0,0.9,0.2,0.9,0.6s-0.4,0.6-0.9,0.6c-1.1,0-2.1,0-3.2,0C64.6,33.5,63.5,33.5,62.5,33.5z"
	/>
<path class="st2" d="M56.9,15.9h2.2c0.3,0,0.6,0,0.9,0.1s0.5,0.2,0.7,0.3c0.2,0.1,0.4,0.3,0.5,0.6c0.1,0.2,0.2,0.5,0.2,0.9
	c0,0.5-0.1,0.8-0.4,1.1c-0.3,0.3-0.6,0.5-1.1,0.6l1.7,2.8h-1.4l-1.5-2.7H58v2.7h-1.1V15.9z M58.9,18.7c0.2,0,0.3,0,0.5,0
	s0.3-0.1,0.4-0.1c0.1-0.1,0.2-0.2,0.3-0.3c0.1-0.1,0.1-0.3,0.1-0.5s0-0.3-0.1-0.4s-0.2-0.2-0.3-0.3C59.7,17,59.5,17,59.4,17
	s-0.3,0-0.4,0h-1v1.8h0.9V18.7z M62.5,15.9H64l3,4.8l0,0v-4.8h1.1v6.4h-1.4l-3-4.9l0,0v4.9h-1.1v-6.4H62.5z"/>
</svg>
