<?xml version="1.0" encoding="UTF-8" standalone="no"?>
<svg width="60px" height="66px" viewBox="0 0 60 66" version="1.1" xmlns="http://www.w3.org/2000/svg" xmlns:xlink="http://www.w3.org/1999/xlink">
    <!-- Generator: sketchtool 42 (36781) - http://www.bohemiancoding.com/sketch -->
    <title>88D204D2-9EC6-437B-802D-757B6F5B8284</title>
    <desc>Created with sketchtool.</desc>
    <defs></defs>
    <g id="Help/Support" stroke="none" stroke-width="1" fill="none" fill-rule="evenodd">
        <g id="Help/support2-dark" transform="translate(-813.000000, -637.000000)" fill="#FFFFFF">
            <g id="Help-Modal" transform="translate(215.000000, 98.000000)">
                <g id="ic_account_balance" transform="translate(545.000000, 502.000000)">
                    <g id="Group-12">
                        <path d="M59,65 L59,87 L68,87 L68,65 L59,65 L59,65 Z M78,65 L78,87 L87,87 L87,65 L78,65 L78,65 Z M53,103 L113,103 L113,94 L53,94 L53,103 L53,103 Z M97,65 L97,87 L106,87 L106,65 L97,65 L97,65 Z M83,37 L53,53 L53,59 L113,59 L113,53 L83,37 L83,37 Z" id="Shape"></path>
                    </g>
                </g>
            </g>
        </g>
    </g>
</svg>