<?xml version="1.0" encoding="UTF-8" standalone="no"?>
<svg width="69px" height="50px" viewBox="0 0 69 50" version="1.1" xmlns="http://www.w3.org/2000/svg" xmlns:xlink="http://www.w3.org/1999/xlink">
    <!-- Generator: sketchtool 42 (36781) - http://www.bohemiancoding.com/sketch -->
    <title>5FB7AE15-CB1D-4AC3-B746-1ECF064AAC20</title>
    <desc>Created with sketchtool.</desc>
    <defs></defs>
    <g id="Help/Support" stroke="none" stroke-width="1" fill="none" fill-rule="evenodd">
        <g id="Help/support2-dark" transform="translate(-311.000000, -644.000000)" fill="#FFFFFF">
            <g id="Help-Modal" transform="translate(215.000000, 98.000000)">
                <g id="ic_local_shipping" transform="translate(45.000000, 502.000000)">
                    <g id="Group-6">
                        <path d="M111,57 L101,57 L101,44 L57,44 C53.8227273,44 51,46.8125 51,50 L51,85 L57,85 C57.2727273,89.8125 61.4754545,94 67,94 C71.8881818,94 76.0909091,89.8125 76,85 L95,85 C94.9090909,89.8125 99.1118182,94 104,94 C109.524545,94 113.727273,89.8125 114,85 L120,85 L120,69 L111,57 L111,57 Z M67,89 C64.01,89 62,86.99 62,85 C62,82.01 64.01,80 67,80 C68.99,80 71,82.01 71,85 C71,86.99 68.99,89 67,89 L67,89 Z M109,61 L115,69 L101,69 L101,61 L109,61 L109,61 Z M105,89 C102.01,89 100,86.99 100,85 C100,82.01 102.01,80 105,80 C106.99,80 109,82.01 109,85 C109,86.99 106.99,89 105,89 L105,89 Z" id="Shape"></path>
                    </g>
                </g>
            </g>
        </g>
    </g>
</svg>