<?xml version="1.0" encoding="utf-8"?>
<!-- Generator: Adobe Illustrator 21.0.0, SVG Export Plug-In . SVG Version: 6.00 Build 0)  -->
<svg version="1.1" id="图层_1" xmlns="http://www.w3.org/2000/svg" xmlns:xlink="http://www.w3.org/1999/xlink" x="0px" y="0px"
	 viewBox="0 0 66 47" style="enable-background:new 0 0 66 47;" xml:space="preserve">
<style type="text/css">
	.st0{fill:#F9F9F9;}
	.st1{fill:#FFFFFF;}
</style>
<path class="st0" d="M8.1,9.1L7.3,8.5l0,0l0,0L8.1,9.1z M2.7,17.1l-0.8-0.6l0,0L2.7,17.1z M61.3,1.5v-1V1.5z M12.8,41.3
	c0,1.3-1,2.3-2.3,2.3v2c2.4,0,4.3-1.9,4.3-4.3H12.8z M10.5,43.5c-1.3,0-2.3-1-2.3-2.3h-2c0,2.4,1.9,4.3,4.3,4.3V43.5z M8.2,41.3
	c0-1.3,1-2.3,2.3-2.3v-2c-2.4,0-4.3,1.9-4.3,4.3H8.2z M10.5,39c1.3,0,2.3,1,2.3,2.3h2c0-2.4-1.9-4.3-4.3-4.3V39z M43,41.3
	c0,1.3-1,2.3-2.3,2.3v2c2.4,0,4.3-1.9,4.3-4.3H43z M40.7,43.5c-1.3,0-2.3-1-2.3-2.3h-2c0,2.4,1.9,4.3,4.3,4.3V43.5z M38.5,41.3
	c0-1.3,1-2.3,2.3-2.3v-2c-2.4,0-4.3,1.9-4.3,4.3H38.5z M40.7,39c1.3,0,2.3,1,2.3,2.3h2c0-2.4-1.9-4.3-4.3-4.3V39z M57.7,31.5H19.1v2
	h38.6V31.5z M19.1,31.5c-0.3,0-0.5-0.2-0.5-0.5h-2c0,1.5,1.2,2.5,2.5,2.5V31.5z M18.6,31V10h-2v21H18.6z M18.6,10
	c0-1.3-1-2.5-2.5-2.5v2c0.3,0,0.5,0.2,0.5,0.5H18.6z M16.1,7.5H9.3v2h6.7V7.5z M9.3,7.5c-0.9,0-1.6,0.4-2.1,1l1.6,1.2
	C9,9.6,9.1,9.5,9.3,9.5V7.5z M7.2,8.6l-5.4,8l1.7,1.1l5.4-8L7.2,8.6z M1.9,16.6c-0.3,0.4-0.4,0.9-0.4,1.4h2c0,0,0-0.1,0.1-0.3
	L1.9,16.6z M1.4,17.9V31h2V17.9H1.4z M1.4,31c0,1.3,1,2.5,2.5,2.5v-2c-0.3,0-0.5-0.2-0.5-0.5H1.4z M4,33.5H20v-2H4V33.5z M61.8,3
	v23.1h2V3H61.8z M61.8,26.1c0,0.3-0.2,0.5-0.5,0.5v2c1.5,0,2.5-1.2,2.5-2.5H61.8z M61.3,26.6H23.1v2h38.1V26.6z M23.1,26.6
	c-0.3,0-0.5-0.2-0.5-0.5h-2c0,1.5,1.2,2.5,2.5,2.5V26.6z M22.6,26.1V3h-2v23.1H22.6z M22.6,3c0-0.3,0.2-0.5,0.5-0.5v-2
	c-1.5,0-2.5,1.2-2.5,2.5H22.6z M23.1,2.5h38.1v-2H23.1V2.5z M61.3,2.5c0.3,0,0.5,0.3,0.5,0.5h2c0-1.4-1.2-2.5-2.5-2.5V2.5z"/>
<path class="st1" d="M30.7,9.6h6.4v1.5h-4.6v2.7h4.4v1.5h-4.4v4.2h-1.8V9.6z M41.4,11.1h-3V9.6h7.8v1.5h-3v8.4h-1.8V11.1z M48.1,9.6
	h1.8v8.3H54v1.6h-6V9.6z"/>
</svg>
