<?xml version="1.0" encoding="utf-8"?>
<!-- Generator: Adobe Illustrator 21.0.0, SVG Export Plug-In . SVG Version: 6.00 Build 0)  -->
<svg version="1.1" id="图层_1" xmlns="http://www.w3.org/2000/svg" xmlns:xlink="http://www.w3.org/1999/xlink" x="0px" y="0px"
	 viewBox="0 0 116 52" style="enable-background:new 0 0 116 52;" xml:space="preserve">
<style type="text/css">
	.st0{fill:#D4E1EE;}
	.st1{fill:#4C5263;}
	.st2{fill:none;stroke:#495368;stroke-width:2;}
	.st3{fill:none;stroke:#495368;stroke-width:2;stroke-linecap:round;stroke-linejoin:round;stroke-miterlimit:10;}
	.st4{fill:#495368;}
	.st5{fill:none;stroke:#495368;stroke-width:1.0164;stroke-miterlimit:10;}
	.st6{fill:none;stroke:#495368;stroke-width:0.5082;stroke-linecap:round;stroke-linejoin:round;stroke-miterlimit:10;}
	.st7{fill:#D4E1EE;stroke:#495368;stroke-width:0.5203;stroke-miterlimit:10;}
</style>
<g>
	<path class="st0" d="M57,31.7h6.8c0.4,0,0.7,0.3,0.7,0.7v6.3c0,0.4-0.3,0.7-0.7,0.7H57c-0.4,0-0.7-0.3-0.7-0.7v-6.3
		C56.3,32,56.6,31.7,57,31.7z"/>
	<path class="st1" d="M55.4,31.3C55.4,31.3,55.4,31.2,55.4,31.3c0.1-0.1,0.1-0.1,0.2-0.1h3.2l0,0v2.3c0,0.3,0.2,0.5,0.5,0.5h0.6
		c0.3,0,0.5-0.2,0.5-0.5v-2.3l0,0h3.2c0.1,0,0.1,0,0.1,0.1v0.1v7.4v0.1c0,0-0.1,0-0.2,0h-8.1c-0.1,0-0.1,0-0.1-0.1v-0.1L55.4,31.3
		L55.4,31.3z M55.6,30.1c-0.6,0-1.2,0.5-1.2,1.2v7.4c0,0.7,0.6,1.2,1.2,1.2h8.1c0.6,0,1.2-0.4,1.2-1.2v-7.4c0-0.7-0.6-1.2-1.2-1.2
		H55.6z"/>
	<path class="st0" d="M57,24.5h6.8c0.4,0,0.7,0.2,0.7,0.5v4.7c0,0.3-0.3,0.5-0.7,0.5H57c-0.4,0-0.7-0.2-0.7-0.5V25
		C56.3,24.7,56.6,24.5,57,24.5z"/>
	<path class="st1" d="M55.4,29.7v-5.4c0,0,0.1,0,0.2,0h3.2v1.6c0,0.2,0.2,0.4,0.5,0.4h0.6c0.3,0,0.5-0.2,0.5-0.4v-1.6h3.2
		c0.1,0,0.1,0,0.2,0v5.4c0,0-0.1,0-0.2,0H55.4L55.4,29.7z M55.6,23.2c-0.3,0-0.6,0.1-0.8,0.2s-0.4,0.4-0.4,0.8v5.6
		c0,0.4,0.2,0.6,0.4,0.8s0.5,0.2,0.8,0.2h8.1c0.3,0,0.6-0.1,0.8-0.2c0.2-0.2,0.4-0.4,0.4-0.8v-5.6c0-0.4-0.2-0.6-0.4-0.8
		s-0.5-0.2-0.8-0.2H55.6z"/>
	<path class="st2" d="M39,36.2V11.6"/>
	<path class="st3" d="M38.9,40.8c1.3,0,2.3-1,2.3-2.2s-1-2.2-2.3-2.2s-2.3,1-2.3,2.2S37.7,40.8,38.9,40.8z"/>
	<path class="st3" d="M71.3,40.8c1.3,0,2.3-1,2.3-2.2s-1-2.2-2.3-2.2s-2.3,1-2.3,2.2S70,40.8,71.3,40.8z"/>
	<path class="st4" d="M33.6,10.3h5.5c0.6,0,1,0.4,1,1V12c0,0.6-0.4,1-1,1h-5.5c-0.6,0-1-0.4-1-1v-0.7C32.6,10.7,33,10.3,33.6,10.3z"
		/>
	<path class="st0" d="M82.8,18.9H70.6V33h12.2C82.8,33,82.8,18.9,82.8,18.9z"/>
	<path class="st5" d="M78,17.4v-1.2h-2c0,0,0-1-1-1s-1,1-1,1h-2v1.2h-3v14.3h12V17.4H78z"/>
	<path class="st5" d="M72.1,17v1.5H78V17"/>
	<path class="st6" d="M71.5,22.6H75"/>
	<path class="st6" d="M71.7,25.2h6.7"/>
	<path class="st6" d="M71.7,27.7h6.7"/>
	<path class="st7" d="M77.5,30.4c1.1,0,2-0.9,2-2s-0.9-2-2-2s-2,0.9-2,2S76.4,30.4,77.5,30.4z"/>
	<path class="st4" d="M77.3,28.8c0.1-0.1,0.2-0.2,0.3-0.3c0.2-0.2,0.3-0.4,0.5-0.7c0.1,0,0.1,0,0.2,0l0.1,0.1c0.1,0.1,0.1,0.1,0,0.2
		c-0.2,0.2-0.3,0.4-0.5,0.7c-0.2,0.2-0.3,0.4-0.5,0.6l0,0h-0.1c-0.2-0.2-0.3-0.3-0.5-0.5l-0.1-0.1c0,0,0,0,0-0.1
		c0.1-0.1,0.1-0.1,0.1-0.2c0.1,0,0.1,0,0.2,0C77.1,28.6,77.1,28.7,77.3,28.8L77.3,28.8z"/>
	<g>
		<path class="st0" d="M46.1,28.3h8c0.5,0,0.8,0.4,0.8,0.9v8.5c0,0.5-0.4,0.9-0.8,0.9h-8c-0.5,0-0.8-0.4-0.8-0.9v-8.5
			C45.3,28.8,45.7,28.3,46.1,28.3z"/>
		<path class="st1" d="M44.3,29.2C44.3,29.2,44.3,29.1,44.3,29.2c0.1-0.1,0.1-0.1,0.2-0.1h3.8l0,0v2.7c0,0.4,0.2,0.6,0.6,0.6h0.7
			c0.4,0,0.6-0.2,0.6-0.6v-2.7l0,0h3.8c0.1,0,0.1,0,0.1,0.1v0.1v8.8v0.1c0,0-0.1,0-0.2,0h-9.5c-0.1,0-0.1,0-0.1-0.1V38L44.3,29.2
			L44.3,29.2z M44.5,27.8c-0.7,0-1.4,0.6-1.4,1.4V38c0,0.8,0.7,1.4,1.4,1.4H54c0.7,0,1.4-0.5,1.4-1.4v-8.8c0-0.8-0.7-1.4-1.4-1.4
			H44.5z"/>
		<path class="st0" d="M46.1,18.8h8c0.5,0,0.8,0.3,0.8,0.7v6.7c0,0.4-0.4,0.7-0.8,0.7h-8c-0.5,0-0.8-0.3-0.8-0.7v-6.7
			C45.3,19,45.7,18.8,46.1,18.8z"/>
		<path class="st1" d="M44.3,26.7v-8.1c0,0,0.1,0,0.2,0h3.8V21c0,0.3,0.2,0.6,0.6,0.6h0.7c0.4,0,0.6-0.3,0.6-0.6v-2.4h3.8
			c0.1,0,0.1,0,0.2,0v8.1c0,0-0.1,0-0.2,0h-9.5H44.3z M44.5,16.9c-0.4,0-0.7,0.2-0.9,0.3c-0.2,0.2-0.5,0.6-0.5,1.2v8.4
			c0,0.6,0.2,0.9,0.5,1.2s0.6,0.3,0.9,0.3H54c0.4,0,0.7-0.2,0.9-0.3c0.2-0.3,0.5-0.6,0.5-1.2v-8.4c0-0.6-0.2-0.9-0.5-1.2
			s-0.6-0.3-0.9-0.3H44.5z"/>
	</g>
	<path class="st2" d="M69,39H41.6"/>
</g>
</svg>
