<?xml version="1.0" encoding="utf-8"?>
<!-- Generator: Adobe Illustrator 21.0.0, SVG Export Plug-In . SVG Version: 6.00 Build 0)  -->
<svg version="1.1" id="图层_1" xmlns="http://www.w3.org/2000/svg" xmlns:xlink="http://www.w3.org/1999/xlink" x="0px" y="0px"
	 viewBox="0 0 933 605" style="enable-background:new 0 0 933 605;" xml:space="preserve">
<style type="text/css">
	.st0{fill:#F5F5F5;}
	.st1{fill:#FFFFFF;}
	.st2{fill:none;stroke:#656565;}
	.st3{fill:#3F73B9;}
	.st4{fill:none;stroke:#3F73B9;stroke-dasharray:5,5;}
	.st5{fill:#656565;}
</style>
<path class="st0" d="M899,605H34c-18.7,0-34-15.3-34-34V34C0,15.3,15.3,0,34,0h865c18.7,0,34,15.3,34,34v537
	C933,589.7,917.7,605,899,605z"/>
<path class="st1" d="M89.4,405h81.2c8.3,0,15,6.7,15,15v26.5c0,8.3-6.7,15-15,15H89.4c-8.3,0-15-6.7-15-15V420
	C74.4,411.7,81.2,405,89.4,405z"/>
<path class="st2" d="M92,408.5h75c8,0,14.5,6.5,14.5,14.5v20.5c0,8-6.5,14.5-14.5,14.5H92c-8,0-14.5-6.5-14.5-14.5V423
	C77.5,415,84,408.5,92,408.5z"/>
<path class="st1" d="M431.4,34h81.2c8.3,0,15,6.7,15,15v26.5c0,8.3-6.7,15-15,15h-81.2c-8.3,0-15-6.7-15-15V49
	C416.4,40.7,423.2,34,431.4,34z"/>
<path class="st2" d="M434,37.5h75c8,0,14.5,6.5,14.5,14.5v20.5c0,8-6.5,14.5-14.5,14.5h-75c-8,0-14.5-6.5-14.5-14.5V52
	C419.5,44,426,37.5,434,37.5z"/>
<path class="st1" d="M607.4,508h81.2c8.3,0,15,6.7,15,15v26.5c0,8.3-6.7,15-15,15h-81.2c-8.3,0-15-6.7-15-15V523
	C592.4,514.7,599.2,508,607.4,508z"/>
<path class="st2" d="M610,511.5h75c8,0,14.5,6.5,14.5,14.5v20.5c0,8-6.5,14.5-14.5,14.5h-75c-8,0-14.5-6.5-14.5-14.5V526
	C595.5,518,602,511.5,610,511.5z"/>
<path class="st3" d="M840,229h45c5.5,0,10,4.5,10,10v10c0,5.5-4.5,10-10,10h-45c-5.5,0-10-4.5-10-10v-10
	C830,233.5,834.5,229,840,229z"/>
<path class="st3" d="M843,102h46c5.5,0,10,4.5,10,10v10c0,5.5-4.5,10-10,10h-46c-5.5,0-10-4.5-10-10v-10
	C833,106.5,837.5,102,843,102z"/>
<path class="st3" d="M750,498h46c5.5,0,10,4.5,10,10v10c0,5.5-4.5,10-10,10h-46c-5.5,0-10-4.5-10-10v-10
	C740,502.5,744.5,498,750,498z"/>
<path class="st3" d="M630.6,390.6h46c5.5,0,10,4.5,10,10v10c0,5.5-4.5,10-10,10h-46c-5.5,0-10-4.5-10-10v-10
	C620.6,395.1,625,390.6,630.6,390.6z"/>
<path class="st3" d="M272,146h46c5.5,0,10,4.5,10,10v10c0,5.5-4.5,10-10,10h-46c-5.5,0-10-4.5-10-10v-10
	C262,150.5,266.5,146,272,146z"/>
<path class="st1" d="M783.2,34h81.2c8.3,0,15,6.7,15,15v26.5c0,8.3-6.7,15-15,15h-81.2c-8.3,0-15-6.7-15-15V49
	C768.2,40.7,775,34,783.2,34z"/>
<path class="st2" d="M785.8,37.5h75c8,0,14.5,6.5,14.5,14.5v20.5c0,8-6.5,14.5-14.5,14.5h-75c-8,0-14.5-6.5-14.5-14.5V52
	C771.3,44,777.8,37.5,785.8,37.5z"/>
<path class="st1" d="M630.8,27.2h46c5.5,0,10,4.5,10,10v10c0,5.5-4.5,10-10,10h-46c-5.5,0-10-4.5-10-10v-10
	C620.8,31.7,625.3,27.2,630.8,27.2z"/>
<path class="st4" d="M632.8,29.7h43c5.2,0,9.5,4.3,9.5,9.5v6c0,5.2-4.3,9.5-9.5,9.5h-43c-5.2,0-9.5-4.3-9.5-9.5v-6
	C623.3,33.9,627.6,29.7,632.8,29.7z"/>
<path class="st1" d="M770.7,271h113c8.3,0,15,6.7,15,15v43c0,8.3-6.7,15-15,15h-113c-8.3,0-15-6.7-15-15v-43
	C755.7,277.7,762.4,271,770.7,271z"/>
<path class="st1" d="M770.7,397h113c8.3,0,15,6.7,15,15v43c0,8.3-6.7,15-15,15h-113c-8.3,0-15-6.7-15-15v-43
	C755.7,403.7,762.4,397,770.7,397z"/>
<path class="st1" d="M415,397h113c8.3,0,15,6.7,15,15v43c0,8.3-6.7,15-15,15H415c-8.3,0-15-6.7-15-15v-43
	C400,403.7,406.7,397,415,397z"/>
<path class="st1" d="M415,144h113c8.3,0,15,6.7,15,15v43c0,8.3-6.7,15-15,15H415c-8.3,0-15-6.7-15-15v-43
	C400,150.7,406.7,144,415,144z"/>
<path class="st1" d="M770.5,144h113c8.3,0,15,6.7,15,15v43c0,8.3-6.7,15-15,15h-113c-8.3,0-15-6.7-15-15v-43
	C755.5,150.7,762.2,144,770.5,144z"/>
<path class="st1" d="M233.9,271h113c8.3,0,15,6.7,15,15v43c0,8.3-6.7,15-15,15h-113c-8.3,0-15-6.7-15-15v-43
	C218.9,277.7,225.6,271,233.9,271z"/>
<path class="st1" d="M54.1,144h113c8.3,0,15,6.7,15,15v43c0,8.3-6.7,15-15,15h-113c-8.3,0-15-6.7-15-15v-43
	C39.1,150.7,45.9,144,54.1,144z"/>
<path class="st5" d="M471,88.8l-3.5,6.6h6.9L471,88.8z"/>
<path class="st2" d="M471,94.8v23v23"/>
<circle class="st3" cx="471" cy="141.8" r="3"/>
<path class="st5" d="M823,145l-3.5-6.6h6.9L823,145z"/>
<path class="st2" d="M823,139v-23V93"/>
<circle class="st3" cx="823" cy="92" r="3"/>
<path class="st5" d="M824,271l-3.5-6.6h6.9L824,271z"/>
<path class="st2" d="M824,265v-23v-23"/>
<circle class="st3" cx="824" cy="218" r="3"/>
<path class="st5" d="M826,400l-3.5-6.6h6.9L826,400z"/>
<path class="st2" d="M826,394v-23v-23"/>
<circle class="st3" cx="826" cy="347" r="3"/>
<path class="st5" d="M701,539.6l6.6,3.5v-6.9L701,539.6z"/>
<path class="st2" d="M827.3,475.1v39.5c0,13.8-11.2,25-25,25h-95.8"/>
<circle class="st3" cx="827.3" cy="472.6" r="3"/>
<path class="st5" d="M542.1,433l6.6,3.5v-6.9L542.1,433z"/>
<path class="st2" d="M757.9,433H651.3H544.8"/>
<circle class="st3" cx="756.1" cy="433" r="3"/>
<path class="st5" d="M743,62l-6.6,3.5v-6.9L743,62z"/>
<path class="st2" d="M527.3,62h106.5h106.5"/>
<circle class="st3" cx="529" cy="62" r="3"/>
<path class="st2" d="M230.4,346.4l-23.7,23.7l-33.2,33"/>
<path class="st5" d="M235.1,341.7l-2.2,7.1l-4.9-4.9L235.1,341.7z"/>
<circle class="st3" cx="172" cy="404.7" r="3"/>
<path class="st2" d="M410.4,215.5l-23.7,23.7l-33.2,33"/>
<path class="st5" d="M415.1,210.8l-2.2,7.1L408,213L415.1,210.8z"/>
<circle class="st3" cx="352" cy="273.8" r="3"/>
<path class="st5" d="M403.7,180l-6.6,3.5v-6.9L403.7,180z"/>
<path class="st2" d="M399.3,180h-108h-108"/>
<circle class="st3" cx="182" cy="180" r="3"/>
<path class="st5" d="M471,214.7l-3.5,6.6h6.9L471,214.7z"/>
<path class="st2" d="M471,219.1v77v101.4"/>
<circle class="st3" cx="471" cy="397" r="3"/>
<path class="st5" d="M182.8,433l6.6,3.5v-6.9L182.8,433z"/>
<path class="st2" d="M398.2,433H268.7H188"/>
<circle class="st3" cx="400.1" cy="433" r="3"/>
<path class="st2" d="M589.5,539.6h-94.2c-13.8,0-25-11.2-25-25v-38.1"/>
<path class="st5" d="M470.3,470.6l-3.5,6.6h6.9L470.3,470.6z"/>
<circle class="st3" cx="591.3" cy="539.6" r="3"/>
<path class="st2" d="M110,216.1v73.1l0.3,115.4"/>
<circle class="st3" cx="110" cy="404.9" r="3"/>
<path class="st5" d="M110,214l-3.5,6.6h6.9L110,214z"/>
<path class="st5" d="M418.8,60l-6.6,3.5v-6.9L418.8,60z"/>
<path class="st2" d="M414,59.7H147c-13.8,0-25,11.2-25,25V143"/>
<circle class="st3" cx="122" cy="143.5" r="3"/>
<path class="st3" d="M252.4,498h81.2c8.3,0,15,6.7,15,15v26.5c0,8.3-6.7,15-15,15h-81.2c-8.3,0-15-6.7-15-15V513
	C237.4,504.7,244.2,498,252.4,498z"/>
</svg>
