<?xml version="1.0" encoding="utf-8"?>
<!-- Generator: Adobe Illustrator 21.0.0, SVG Export Plug-In . SVG Version: 6.00 Build 0)  -->
<svg version="1.1" id="图层_1" xmlns="http://www.w3.org/2000/svg" xmlns:xlink="http://www.w3.org/1999/xlink" x="0px" y="0px"
	 viewBox="0 0 116 52" style="enable-background:new 0 0 116 52;" xml:space="preserve">
<style type="text/css">
	.st0{opacity:0.25;fill:#D4E1EE;enable-background:new    ;}
	.st1{fill:#FFFFFF;}
</style>
<path class="st0" d="M17.2,10v14.2l11,4.8l10.1-5.1L38.4,10L28.2,5.3L17.2,10z"/>
<path class="st1" d="M15.6,7l-0.4-0.9l-0.6,0.3V7H15.6z M15.6,20.4h-1v0.7l0.6,0.3L15.6,20.4z M28.2,25.5l-0.4,0.9l0.4,0.2l0.4-0.2
	L28.2,25.5z M40,20.4l0.4,0.9l0.6-0.3v-0.7H40z M40,7h1V6.4l-0.6-0.3L40,7z M28.2,2l0.4-0.9l-0.4-0.2L27.8,1L28.2,2z M43.2,10.6
	l0.4,0.9l1.2-0.5l-0.8-1L43.2,10.6z M31,16.1l-0.8,0.6l0.5,0.7l0.8-0.4L31,16.1z M28.3,12l0.8-0.6l-0.8-1.2l-0.8,1.2L28.3,12z
	 M25.5,16.1l-0.3,0.9l0.7,0.3l0.4-0.7L25.5,16.1z M11.7,11l-0.7-0.7l-1,1.1l1.4,0.5L11.7,11z M15,7.5l0.3-1l-0.6-0.2l-0.4,0.4
	L15,7.5z M14.6,7v13.4h2V7H14.6z M15.2,21.4l12.6,5.1l0.7-1.9L16,19.5L15.2,21.4z M28.6,26.4l11.8-5.1l-0.8-1.8l-11.8,5.1L28.6,26.4
	z M41,20.4V7h-2v13.4H41z M40.4,6.1L28.6,1.1l-0.8,1.8L39.6,8L40.4,6.1z M27.8,1L15.2,6.1L16,8l12.6-5.1L27.8,1z M39.4,7.7l3,3.6
	l1.5-1.3l-3-3.6L39.4,7.7z M42.8,9.7l-12.2,5.5l0.8,1.8l12.2-5.5L42.8,9.7z M31.8,15.6l-2.7-4.1l-1.7,1.1l2.7,4.1L31.8,15.6z
	 M27.4,11.5l-2.7,4.1l1.7,1.1l2.7-4.1L27.4,11.5z M25.9,15.2L12,10l-0.7,1.9l13.9,5.1L25.9,15.2z M12.4,11.7l3.3-3.5l-1.5-1.4
	l-3.3,3.5L12.4,11.7z M14.7,8.4l13.2,3.8l0.6-1.9L15.2,6.5L14.7,8.4z M28.5,12.2L40.3,8l-0.7-1.9l-11.8,4.3L28.5,12.2z M27.2,11.3
	v14.2h2V11.3H27.2z"/>
</svg>
