<?xml version="1.0" encoding="utf-8"?>
<!-- Generator: Adobe Illustrator 21.0.0, SVG Export Plug-In . SVG Version: 6.00 Build 0)  -->
<svg version="1.1" id="图层_1" xmlns="http://www.w3.org/2000/svg" xmlns:xlink="http://www.w3.org/1999/xlink" x="0px" y="0px"
	 viewBox="0 0 116 52" style="enable-background:new 0 0 116 52;" xml:space="preserve">
<style type="text/css">
	.st0{opacity:0.25;fill:#D4E1EE;enable-background:new    ;}
	.st1{fill:#FFFFFF;}
</style>
<path class="st0" d="M3.1,33.1v14.2l11,4.8l10.1-5.1l0.1-13.9l-10.2-4.7L3.1,33.1z"/>
<path class="st1" d="M7.4,33.3l-0.4-0.9l-0.6,0.3v0.7H7.4z M14.2,49.3l-0.4,0.9l0.4,0.2l0.4-0.2L14.2,49.3z M26,30.8h1v-0.7
	l-0.6-0.3L26,30.8z M1.5,30.8l-0.4-0.9l-0.6,0.3v0.7H1.5z M1.5,44.3h-1V45l0.6,0.3L1.5,44.3z M26,44.3l0.4,0.9l0.6-0.3v-0.7H26z
	 M14.2,25.7l0.4-0.9l-0.4-0.2l-0.4,0.2L14.2,25.7z M19.7,27.3L7.1,32.4l0.7,1.9l12.6-5.1L19.7,27.3z M6.4,33.3v5.1h2v-5.1H6.4z
	 M15.2,49.3V35.8h-2v13.5H15.2z M14.6,36.7l11.8-5l-0.8-1.8l-11.8,5L14.6,36.7z M14.5,34.9l-12.6-5l-0.7,1.9l12.6,5L14.5,34.9z
	 M0.5,30.8v13.5h2V30.8H0.5z M1.2,45.2l12.6,5l0.7-1.9l-12.6-5L1.2,45.2z M14.6,50.2l11.8-5l-0.8-1.8l-11.8,5L14.6,50.2z M27,44.3
	V30.8h-2v13.5H27z M26.4,29.9l-11.8-5.1l-0.8,1.8l11.8,5.1L26.4,29.9z M13.8,24.8L1.2,29.9l0.7,1.9l12.6-5.1L13.8,24.8z"/>
</svg>
