<?xml version="1.0" encoding="utf-8"?>
<!-- Generator: Adobe Illustrator 21.0.0, SVG Export Plug-In . SVG Version: 6.00 Build 0)  -->
<svg version="1.1" id="图层_1" xmlns="http://www.w3.org/2000/svg" xmlns:xlink="http://www.w3.org/1999/xlink" x="0px" y="0px"
	 viewBox="0 0 69.4 75.6" style="enable-background:new 0 0 69.4 75.6;" xml:space="preserve">
<style type="text/css">
	.st0{fill:#2F333D;}
	.st1{fill:#FFFFFF;}
</style>
<g>
	<path class="st0" d="M11.8,1.8c-5.6,0-10,4.5-10,10.1c-0.1,6.4,3.4,13.8,7,20.8c1,2.1,2,4.1,3,6.2c0.9-2.1,1.9-4.2,3-6.2
		c3.6-7.1,7.2-14.4,7.1-20.8C21.8,6.3,17.3,1.8,11.8,1.8z M11.8,17.8c-3.3,0-5.9-2.6-5.9-5.9S8.5,6,11.8,6c3.2,0,5.9,2.6,5.9,5.9
		S15.1,17.8,11.8,17.8z"/>
	<path class="st0" d="M11.8,7.7c-2.3,0-4.2,1.8-4.2,4.2s1.8,4.2,4.2,4.2s4.2-1.8,4.2-4.2S14,7.7,11.8,7.7z"/>
	<path class="st0" d="M11.8,43.2C7.9,33.2-0.2,21.9,0,11.8C0,5.3,5.2,0,11.8,0c6.4,0,11.7,5.4,11.7,11.8
		C23.8,21.8,15.7,33.1,11.8,43.2z"/>
	<path class="st1" d="M11.8,0C5.2,0,0,5.3,0,11.8c-0.3,10,7.8,21.3,11.8,31.4c3.9-10,12-21.3,11.8-31.4C23.5,5.4,18.2,0,11.8,0z
		 M14.7,32.7c-1,2-2.1,4.1-3,6.2c-1-2.1-2-4.1-3-6.2c-3.5-7-7-14.4-7-20.8c0-5.6,4.4-10.1,10-10.1c5.5,0,10,4.5,10,10.1
		C22,18.3,18.3,25.7,14.7,32.7z"/>
	<path class="st1" d="M11.8,6c-3.2,0-5.9,2.6-5.9,5.9s2.6,5.9,5.9,5.9s5.9-2.6,5.9-5.9S15,6,11.8,6z M11.8,16.1
		c-2.4,0-4.2-1.8-4.2-4.2s1.9-4.2,4.2-4.2S16,9.5,16,11.9S14.1,16.1,11.8,16.1z"/>
</g>
</svg>
