<?xml version="1.0" encoding="utf-8"?>
<!-- Generator: Adobe Illustrator 21.0.0, SVG Export Plug-In . SVG Version: 6.00 Build 0)  -->
<svg version="1.1" id="图层_1" xmlns="http://www.w3.org/2000/svg" xmlns:xlink="http://www.w3.org/1999/xlink" x="0px" y="0px"
	 viewBox="0 0 69.4 75.6" style="enable-background:new 0 0 69.4 75.6;" xml:space="preserve">
<style type="text/css">
	.st0{fill:#FFFFFF;}
	.st1{opacity:0.5;fill:#D4E1EE;enable-background:new    ;}
</style>
<g>
	<path class="st0" d="M39,14.8c-16.8,0-30.4,13.6-30.4,30.4S22.2,75.6,39,75.6S69.4,62,69.4,45.2S55.8,14.8,39,14.8z M62.3,29
		c3,4.3,4.8,9.5,5,15.2H53c-0.1-3.6-0.4-7.1-1-10.3c2-0.6,3.7-1.2,5.2-1.9c2-0.9,3.4-1.8,4.4-2.5C61.9,29.3,62.1,29.2,62.3,29z
		 M61.1,27.4c-0.2,0.1-0.4,0.3-0.6,0.5c-0.9,0.6-2.2,1.5-4.1,2.3c-1.3,0.6-2.9,1.2-4.7,1.8c-0.6-2.9-1.5-5.6-2.5-7.9
		c-1.2-2.7-2.7-5-4.4-6.6C51.3,18.8,57,22.4,61.1,27.4z M51.1,45.2c0,3.8-0.3,7.4-0.9,10.7c-3.1-0.7-6.8-1.2-11.1-1.2H39h-0.1
		c-4.3,0-8,0.5-11.1,1.2c-0.6-3.3-0.9-6.9-0.9-10.7s0.3-7.4,0.9-10.8c3.1,0.7,6.8,1.2,11.1,1.2H39h0.1c4.3,0,8-0.5,11.1-1.2
		C50.7,37.8,51.1,41.4,51.1,45.2z M39,16.8c1.5,0,3,0.7,4.4,2c1.4,1.4,2.8,3.4,3.9,6c1,2.2,1.8,4.8,2.4,7.6c-3,0.7-6.5,1.2-10.7,1.2
		h-0.1h-0.1c-4.2,0-7.7-0.5-10.7-1.2c0.6-2.8,1.4-5.4,2.4-7.6c1.1-2.6,2.5-4.6,3.9-6C36,17.5,37.5,16.8,39,16.8z M33.2,17.4
		C31.5,19,30,21.3,28.8,24c-1,2.3-1.9,5-2.5,7.9c-1.8-0.5-3.4-1.1-4.7-1.8c-1.8-0.9-3.2-1.7-4.1-2.3c-0.2-0.2-0.4-0.3-0.6-0.5
		C21,22.4,26.7,18.8,33.2,17.4z M15.7,29c0.2,0.1,0.4,0.3,0.6,0.5c1,0.7,2.4,1.6,4.4,2.5c1.4,0.7,3.2,1.3,5.2,1.9
		c-0.6,3.2-0.9,6.6-1,10.3H10.6C10.9,38.6,12.7,33.4,15.7,29z M16.3,63.4L16.3,63.4L16.3,63.4L16.3,63.4L16.3,63.4z M15.7,61.3
		c-3-4.3-4.8-9.5-5-15.1H25c0.1,3.6,0.4,7,1,10.2c-2,0.6-3.7,1.2-5.2,1.9c-2,0.9-3.4,1.8-4.4,2.5C16.1,61,15.9,61.2,15.7,61.3z
		 M16.9,62.9c0.2-0.1,0.4-0.3,0.7-0.5c0.9-0.6,2.2-1.5,4.1-2.3c1.3-0.6,2.9-1.2,4.7-1.7c0.7,3,1.5,5.7,2.5,8c1.2,2.7,2.7,5,4.4,6.6
		C26.6,71.6,20.9,68,16.9,62.9z M39,73.6c-1.5,0-3-0.7-4.4-2c-1.4-1.4-2.8-3.4-3.9-6c-1-2.2-1.8-4.8-2.4-7.7c3-0.7,6.5-1.2,10.7-1.2
		h0.1h0.1c4.2,0,7.7,0.5,10.7,1.2c-0.6,2.9-1.4,5.5-2.4,7.7c-1.1,2.6-2.5,4.6-3.9,6C42,72.9,40.5,73.6,39,73.6z M44.8,73
		c1.7-1.6,3.2-3.9,4.4-6.6c1-2.3,1.9-5.1,2.5-8c1.8,0.5,3.4,1.1,4.7,1.7c1.8,0.9,3.2,1.7,4.1,2.3c0.3,0.2,0.5,0.3,0.7,0.5
		C57.1,68,51.4,71.6,44.8,73z M61.7,63.4L61.7,63.4L61.7,63.4L61.7,63.4L61.7,63.4z M62.3,61.3c-0.2-0.2-0.4-0.3-0.7-0.5
		c-1-0.7-2.4-1.6-4.4-2.5C55.8,57.6,54,57,52,56.4c0.6-3.2,0.9-6.6,1-10.2h14.3C67.1,51.8,65.3,57,62.3,61.3z"/>
	<path class="st0" d="M33.6,46h2.1v2.5c-0.6,0.2-1.2,0.3-2,0.3c-0.6,0-1-0.1-1.5-0.3c-0.4-0.2-0.8-0.4-1.1-0.8
		c-0.3-0.3-0.5-0.7-0.7-1.1c-0.2-0.4-0.2-0.9-0.2-1.5c0-0.5,0.1-1,0.2-1.4c0.2-0.4,0.4-0.8,0.7-1.1c0.3-0.3,0.7-0.6,1.1-0.8
		c0.4-0.2,0.9-0.3,1.4-0.3s1,0.1,1.5,0.3s0.8,0.4,1.1,0.7l1.2-1.3c-0.4-0.4-0.9-0.7-1.6-0.9c-0.7-0.2-1.4-0.4-2.2-0.4
		s-1.5,0.1-2.1,0.4c-0.7,0.2-1.2,0.6-1.7,1s-0.9,1-1.1,1.6c-0.3,0.6-0.4,1.3-0.4,2.1s0.1,1.5,0.4,2.1s0.6,1.2,1.1,1.7s1,0.8,1.7,1.1
		c0.7,0.3,1.4,0.4,2.2,0.4s1.5-0.1,2.1-0.2c0.6-0.1,1.2-0.3,1.7-0.6v-5.1h-3.8L33.6,46L33.6,46z"/>
	<rect x="39.5" y="40.2" class="st0" width="1.8" height="9.9"/>
	<path class="st0" d="M47.4,48.6c-0.2,0.1-0.4,0.2-0.6,0.3c-0.2,0-0.4,0.1-0.6,0.1c-0.4,0-0.8-0.1-1.2-0.3s-0.7-0.5-1-0.8l-1.3,1.2
		c0.4,0.5,0.9,0.8,1.5,1.1c0.6,0.2,1.2,0.4,1.9,0.4c0.5,0,0.9-0.1,1.4-0.2c0.4-0.1,0.8-0.3,1.1-0.6s0.6-0.6,0.8-1s0.3-0.9,0.3-1.4
		s-0.1-0.9-0.3-1.2s-0.4-0.6-0.7-0.8s-0.6-0.4-0.9-0.5c-0.3-0.1-0.7-0.2-1-0.3s-0.5-0.2-0.8-0.3c-0.2-0.1-0.4-0.2-0.6-0.3
		c-0.2-0.1-0.3-0.2-0.4-0.4c-0.1-0.2-0.1-0.3-0.1-0.6c0-0.2,0.1-0.4,0.2-0.6c0.1-0.2,0.3-0.3,0.4-0.4c0.2-0.1,0.4-0.2,0.6-0.2
		c0.2-0.1,0.4-0.1,0.6-0.1c0.3,0,0.7,0.1,1,0.3s0.6,0.4,0.8,0.6l1.1-1.3c-0.4-0.4-0.8-0.6-1.4-0.8c-0.5-0.2-1-0.3-1.5-0.3
		c-0.4,0-0.9,0.1-1.3,0.2c-0.4,0.1-0.8,0.3-1.2,0.5c-0.3,0.2-0.6,0.5-0.8,0.9s-0.3,0.8-0.3,1.3s0.1,0.9,0.2,1.2
		c0.1,0.3,0.3,0.6,0.6,0.8c0.2,0.2,0.5,0.4,0.8,0.5s0.6,0.2,0.9,0.3c0.3,0.1,0.6,0.2,0.9,0.3c0.3,0.1,0.5,0.2,0.7,0.3
		s0.4,0.3,0.5,0.4c0.1,0.2,0.2,0.4,0.2,0.6c0,0.3-0.1,0.5-0.2,0.7C47.7,48.3,47.6,48.5,47.4,48.6z"/>
</g>
<path class="st1" d="M9.7,48.4c5.4,0,9.8-1.5,9.8-3.4c0-1.9-4.4-3.4-9.8-3.4C4.4,41.7,0,43.2,0,45C0,46.9,4.4,48.4,9.7,48.4z"/>
</svg>
