<?xml version="1.0" encoding="utf-8"?>
<!-- Generator: Adobe Illustrator 21.0.0, SVG Export Plug-In . SVG Version: 6.00 Build 0)  -->
<svg version="1.1" id="图层_1" xmlns="http://www.w3.org/2000/svg" xmlns:xlink="http://www.w3.org/1999/xlink" x="0px" y="0px"
	 viewBox="0 0 116 52" style="enable-background:new 0 0 116 52;" xml:space="preserve">
<style type="text/css">
	.st0{fill:#D4E1EE;}
	.st1{fill:#4C5263;}
	.st2{fill:none;stroke:#495368;stroke-width:1.879;stroke-miterlimit:10;}
	.st3{fill:none;stroke:#495368;stroke-width:0.9395;stroke-linecap:round;stroke-linejoin:round;stroke-miterlimit:10;}
	.st4{fill:#495368;}
</style>
<path class="st0" d="M41.2,23.1h11.2c0.6,0,1.2,0.4,1.2,0.8v7.3c0,0.4-0.5,0.8-1.2,0.8H41.2c-0.6,0-1.2-0.4-1.2-0.8v-7.3
	C40,23.5,40.6,23.1,41.2,23.1z"/>
<path class="st1" d="M38.9,30.9v-8.7c0,0,0,0,0.1,0s0.1,0,0.2,0h5.3v3.1c0,0.4,0.4,0.7,0.9,0.7h0.9c0.5,0,0.9-0.3,0.9-0.7v-3.1h5.3
	c0.1,0,0.1,0,0.2,0c0,0,0,0,0.1,0v8.7c0,0-0.1,0-0.2,0H39.3C39.1,31,39,30.9,38.9,30.9C39,30.9,39,30.9,38.9,30.9z M39.2,20.2
	c-0.5,0-1,0.1-1.4,0.4c-0.4,0.2-0.8,0.7-0.8,1.3V31c0,0.6,0.4,1.1,0.8,1.3c0.4,0.3,0.9,0.4,1.4,0.4h13.3c0.5,0,1-0.1,1.4-0.4
	c0.4-0.3,0.7-0.7,0.7-1.3v-9c0-0.6-0.4-1.1-0.8-1.3c-0.4-0.3-0.9-0.4-1.4-0.4L39.2,20.2L39.2,20.2z"/>
<path class="st0" d="M41.2,12.4h11.2c0.6,0,1.2,0.4,1.2,0.8v7.3c0,0.4-0.5,0.8-1.2,0.8H41.2c-0.6,0-1.2-0.4-1.2-0.8v-7.3
	C40,12.8,40.6,12.4,41.2,12.4z"/>
<path class="st1" d="M38.9,20.2v-8.7c0,0,0,0,0.1,0s0.1,0,0.2,0h5.3v3.1c0,0.4,0.4,0.7,0.9,0.7h0.9c0.5,0,0.9-0.3,0.9-0.7v-3.1h5.3
	c0.1,0,0.1,0,0.2,0c0,0,0,0,0.1,0v8.7c0,0-0.1,0-0.2,0H39.3C39.1,20.2,39,20.2,38.9,20.2C39,20.2,39,20.2,38.9,20.2z M39.2,9.5
	c-0.5,0-1,0.1-1.4,0.4S37,10.6,37,11.2v9.1c0,0.6,0.4,1.1,0.8,1.3c0.4,0.3,0.9,0.4,1.4,0.4h13.3c0.5,0,1-0.1,1.4-0.4
	c0.4-0.3,0.7-0.7,0.7-1.3v-9.1c0-0.6-0.4-1.1-0.8-1.3c-0.4-0.3-0.9-0.4-1.4-0.4H39.2z"/>
<path class="st0" d="M41.2,33.9h11.2c0.6,0,1.2,0.4,1.2,0.8V42c0,0.4-0.5,0.8-1.2,0.8H41.2c-0.6,0-1.2-0.4-1.2-0.8v-7.3
	C40,34.2,40.6,33.9,41.2,33.9z"/>
<path class="st1" d="M38.9,41.6v-8.7c0,0,0,0,0.1,0s0.1,0,0.2,0h5.3V36c0,0.4,0.4,0.7,0.9,0.7h0.9c0.5,0,0.9-0.3,0.9-0.7v-3.1h5.3
	c0.1,0,0.1,0,0.2,0c0,0,0,0,0.1,0v8.7c0,0-0.1,0-0.2,0H39.3C39.1,41.7,39,41.7,38.9,41.6C39,41.7,39,41.7,38.9,41.6z M39.2,31
	c-0.5,0-1,0.1-1.4,0.4c-0.4,0.3-0.8,0.7-0.8,1.3v9.1c0,0.6,0.4,1.1,0.8,1.3c0.4,0.3,0.9,0.4,1.4,0.4h13.3c0.5,0,1-0.1,1.4-0.4
	c0.4-0.3,0.7-0.7,0.7-1.3v-9.1c0-0.6-0.4-1.1-0.8-1.3c-0.4-0.3-0.9-0.4-1.4-0.4C52.4,31,39.2,31,39.2,31z"/>
<path class="st0" d="M80.8,22.4H62.1V44h18.7V22.4z"/>
<path class="st2" d="M73.5,20v-1.8h-3c0,0,0-1.5-1.5-1.5s-1.5,1.5-1.5,1.5h-3V20h-4.8v21.9h18.4V20H73.5z"/>
<path class="st2" d="M64.5,19.5v2.3h9v-2.3"/>
<path class="st3" d="M63.5,27.7h6.7"/>
<path class="st4" d="M73.5,27.7c0.2-0.2,0.3-0.4,0.5-0.6c0.3-0.4,0.6-0.8,0.9-1.2c0.1-0.1,0.2-0.1,0.3,0c0,0,0.1,0.1,0.2,0.1
	c0.1,0.1,0.1,0.2,0,0.3c-0.3,0.4-0.6,0.8-0.9,1.2c-0.3,0.4-0.6,0.7-0.9,1.1l0,0h-0.1c-0.3-0.3-0.6-0.5-0.9-0.8c0,0-0.1-0.1-0.2-0.2
	v-0.1c0.1-0.1,0.2-0.2,0.2-0.3c0.1-0.1,0.2-0.1,0.3,0c0.2,0.1,0.3,0.3,0.5,0.4C73.5,27.6,73.5,27.7,73.5,27.7z"/>
<path class="st3" d="M63.5,32.2h6.7"/>
<path class="st4" d="M73.5,32.2c0.2-0.2,0.3-0.4,0.5-0.6c0.3-0.4,0.6-0.8,0.9-1.2c0.1-0.1,0.2-0.1,0.3,0c0,0,0.1,0.1,0.2,0.1
	c0.1,0.1,0.1,0.2,0,0.3c-0.3,0.4-0.6,0.8-0.9,1.2c-0.3,0.4-0.6,0.7-0.9,1.1l0,0h-0.1c-0.3-0.3-0.6-0.5-0.9-0.8c0,0-0.1-0.1-0.2-0.2
	V32c0.1-0.1,0.2-0.2,0.2-0.3c0.1-0.1,0.2-0.1,0.3,0c0.2,0.1,0.3,0.3,0.5,0.4C73.5,32.1,73.5,32.2,73.5,32.2z"/>
<path class="st3" d="M63.5,36.7h6.7"/>
<path class="st4" d="M73.5,36.7c0.2-0.2,0.3-0.4,0.5-0.6c0.3-0.4,0.6-0.8,0.9-1.2c0.1-0.1,0.2-0.1,0.3,0c0,0,0.1,0.1,0.2,0.1
	c0.1,0.1,0.1,0.2,0,0.3c-0.3,0.4-0.6,0.8-0.9,1.2c-0.3,0.4-0.6,0.7-0.9,1.1l0,0h-0.1c-0.3-0.3-0.6-0.5-0.9-0.8c0,0-0.1-0.1-0.2-0.2
	v-0.1c0.1-0.1,0.2-0.2,0.2-0.3c0.1-0.1,0.2-0.1,0.3,0c0.2,0.1,0.3,0.3,0.5,0.4C73.5,36.6,73.5,36.7,73.5,36.7z"/>
</svg>
