<?xml version="1.0" encoding="utf-8"?>
<!-- Generator: Adobe Illustrator 21.0.0, SVG Export Plug-In . SVG Version: 6.00 Build 0)  -->
<svg version="1.1" id="图层_1" xmlns="http://www.w3.org/2000/svg" xmlns:xlink="http://www.w3.org/1999/xlink" x="0px" y="0px"
	 viewBox="0 0 116 52" style="enable-background:new 0 0 116 52;" xml:space="preserve">
<style type="text/css">
	.st0{fill:none;stroke:#4C5263;stroke-width:2;stroke-linecap:round;stroke-linejoin:round;stroke-miterlimit:10;}
	.st1{fill:#D4E1EE;}
	.st2{fill:none;stroke:#4C5263;stroke-width:2;stroke-miterlimit:10;}
	.st3{fill:#4C5263;}
	.st4{fill:none;stroke:#495368;stroke-width:1.5;}
</style>
<g>
	<path class="st0" d="M78.9,16.4h-5.7v22.7H47.6"/>
	<path class="st1" d="M43.5,36.5H68V23.3H37L43.5,36.5z"/>
	<path class="st2" d="M54.4,19.9H41.6l6,14h25.6v-14"/>
	<path class="st3" d="M69.6,44.5c0,0.5-0.4,0.9-1,0.9v2c1.6,0,3-1.3,3-2.9H69.6z M68.6,45.4c-0.6,0-1-0.4-1-0.9h-2
		c0,1.6,1.4,2.9,3,2.9V45.4z M67.7,44.5c0-0.5,0.4-0.9,1-0.9v-2c-1.6,0-3,1.3-3,2.9H67.7z M68.6,43.6c0.6,0,1,0.4,1,0.9h2
		c0-1.6-1.4-2.9-3-2.9V43.6z M53.5,44.5c0,0.5-0.4,0.9-1,0.9v2c1.6,0,3-1.3,3-2.9H53.5z M52.5,45.4c-0.6,0-1-0.4-1-0.9h-2
		c0,1.6,1.4,2.9,3,2.9V45.4z M51.6,44.5c0-0.5,0.4-0.9,1-0.9v-2c-1.6,0-3,1.3-3,2.9H51.6z M52.5,43.6c0.6,0,1,0.4,1,0.9h2
		c0-1.6-1.4-2.9-3-2.9V43.6z"/>
	<path class="st4" d="M69.5,18.2l-2.8,2.7l-2.8-2.7"/>
	<path class="st4" d="M66.7,21.3V8.7"/>
	<path class="st4" d="M62.9,15l-2.8,2.7L57.3,15"/>
	<path class="st4" d="M60.2,18.1V5.5"/>
</g>
</svg>
