<?xml version="1.0" encoding="UTF-8" standalone="no"?>
<svg width="59px" height="59px" viewBox="0 0 59 59" version="1.1" xmlns="http://www.w3.org/2000/svg" xmlns:xlink="http://www.w3.org/1999/xlink">
    <!-- Generator: sketchtool 42 (36781) - http://www.bohemiancoding.com/sketch -->
    <title>B53A4C2A-5F2D-41F8-A999-37E9F5FEED3C</title>
    <desc>Created with sketchtool.</desc>
    <defs></defs>
    <g id="Help/Support" stroke="none" stroke-width="1" fill="none" fill-rule="evenodd" fill-opacity="0.7">
        <g id="Help/Support-white/light" transform="translate(-1080.000000, -644.000000)" fill="#333333">
            <g id="Help-Modal" transform="translate(214.000000, 98.000000)">
                <g id="Group-13" transform="translate(811.000000, 503.000000)">
                    <g id="ic_extension">
                        <path d="M107,71 L103,71 L103,60 C102.761905,56.7666667 100.233333,54.2380952 97,54 L86,54 L86,50 C85.9047619,46.1466667 82.7580952,43 79,43 C75.0038095,43 71.8571429,46.1466667 72,50 L72,54 L61,54 C57.5285714,54.2380952 55.0280952,56.7666667 55,60 L55,71 L59,71 C63.4004762,70.5333333 66.8,73.9328571 67,78 C66.8,82.3052381 63.4004762,85.7047619 59,86 L55,86 L55,96 C55,99.4714286 57.5285714,102 61,102 L71,102 L71,98 C71.2952381,93.5995238 74.6947619,90.2 79,90 C83.0671429,90.2 86.4666667,93.5995238 86,98 L86,102 L97,102 C100.233333,102 102.761905,99.4714286 103,96 L103,85 L107,85 C110.853333,85.1428571 114,81.9961905 114,78 C114,74.2419048 110.853333,71.0952381 107,71 L107,71 Z" id="Shape"></path>
                    </g>
                </g>
            </g>
        </g>
    </g>
</svg>